<?xml version="1.0" encoding="utf-8"?>
<!-- Generator: Adobe Illustrator 29.8.2, SVG Export Plug-In . SVG Version: 9.03 Build 0)  -->
<svg version="1.0" id="Layer_2" xmlns="http://www.w3.org/2000/svg" xmlns:xlink="http://www.w3.org/1999/xlink" x="0px" y="0px"
	 viewBox="0 0 1584.29 1440" style="enable-background:new 0 0 1584.29 1440;" xml:space="preserve">
<style type="text/css">
	.st0{fill:none;stroke:#000000;stroke-width:1.5;stroke-linecap:round;stroke-linejoin:round;stroke-miterlimit:10;}
	.st1{fill:none;stroke:#C4B8A6;stroke-width:1.5;stroke-miterlimit:10;}
	.st2{fill:#C4B8A6;}
	.st3{fill:none;stroke:#000000;stroke-width:1.5;stroke-miterlimit:10;}
	.st4{fill:none;stroke:#C4B8A6;stroke-width:1.5;stroke-linecap:round;stroke-linejoin:round;stroke-miterlimit:10;}
	.st5{fill:#FFFFFF;stroke:#000000;stroke-width:1.5;stroke-linecap:round;stroke-linejoin:round;stroke-miterlimit:10;}
	.st6{fill:none;stroke:#000000;stroke-linecap:round;stroke-linejoin:round;stroke-miterlimit:10;}
	.st7{fill:none;stroke:#C4B8A6;stroke-width:1.5;stroke-linejoin:round;}
	.st8{fill:none;stroke:#C4B8A6;stroke-width:1.5;stroke-linejoin:round;stroke-dasharray:8.9415,8.9415;}
	.st9{fill:none;stroke:#C4B8A6;stroke-width:1.5;stroke-linejoin:round;stroke-miterlimit:10;}
	.st10{fill:none;stroke:#C4B8A6;stroke-width:1.5;stroke-linejoin:round;stroke-dasharray:8.9032,8.9032;}
	.st11{fill:none;stroke:#C4B8A6;stroke-width:1.5;stroke-linejoin:round;stroke-dasharray:8.9709,8.9709;}
	.st12{fill:none;}
</style>
<path class="st0" d="M1389.43,396.58c0,0,15.58,11.86,38.96,13.72s28.12-7.28,28.12-15.75c0-8.47-1.52-10.61,3.56-11.07
	c1.8-0.16,4.16-0.27,5.45-1.74c2.47-2.8-0.39-6.79-3.16-7.97c-2.05-0.88-4.36-1.31-6.58-1.47"/>
<path class="st0" d="M1459.83,352.09c0,0,3.73,4.63,8.58,3.5c4.86-1.13,11.4-8.24,8.92-14.68c-2.48-6.44-13.78-10.61-14.57-18.86
	c-0.79-8.24,0.79-18.97,3.5-26.99c2.71-8.02-1.02-29.47-3.95-36.36"/>
<path class="st0" d="M1367.47,350.96c0,0,1.02,11.63-4.4,13.32c-5.42,1.69-23.82-12.42-32.97-25.41
	c-9.15-12.99,5.53-29.47,10.28-27.78s6.32,4.06,10.61,2.37c4.29-1.69,8.92-2.6,15.58,4.74c6.66,7.34,6.44,11.86,12.65,11.18
	c6.21-0.68,8.47-4.63,11.97-21.34c3.5-16.71,2.37-29.7,12.53-40.54c10.16-10.84,24.05-12.42,36.7-10.5
	c12.65,1.92,18.18,3.73,23.49-0.23c5.31-3.95,14.57-12.76,12.65-21.23s-18.07-21.45-30.04-28.79c-11.97-7.34-30.83-7.11-47.42-9.26
	s-16.6-1.13-23.03-4.29c-6.44-3.16-19.99-0.9-30.04,7.68c-10.05,8.58-11.52,8.13-18.07,8.69c-6.55,0.56-24.95,15.58-37.37,31.62
	c-12.31,15.89-13.94,35.32-10.39,54.54c3.36,18.19,5.03,37.1,11.76,54.48c3.27,8.43,8.82,16.59,17.9,19.48
	c3.82,1.21,8.2,0.92,11.42-1.63c3.79-2.98,4.22-8.49,6.88-12.32c2.35-3.38,5.16-6.49,8.13-9.34"/>
<path class="st0" d="M1400.37,402.84c0,0,0.25,23.38,14.47,42.69c14.23,19.31,22.02,31.5,29.98,52.34s14.57,68.43,14.57,105.35
	c0,36.92,3.27,93.38,3.27,93.38"/>
<path class="st0" d="M1402.59,696.59c0,0,18.63,3.5,34.66,2.03s26.08-6.39,27.1,0.36c1.02,6.75-1.92,40.52-8.69,62.42
	c-6.77,21.91-17.16,63.91-23.94,89.88c-6.77,25.97-10.61,67.3-18.74,102.75c-8.13,35.46-8.13,44.71-15.81,59.17
	c-7.68,14.45-10.84,36.58-13.78,62.55s-8.13,77.69-4.97,101.85c0,0,15.24,5.02,32.52,20.78c17.28,15.75,24.39,17.28,31.16,18.8
	c2.94,0.66,6.06,1.46,8.6,3.14c2.09,1.4,3.66,3.75,3.86,6.28c0.44,5.75-5.69,9.19-10.68,9.84"/>
<path class="st0" d="M1430.36,1222.09c6.34,0.43,12.6,4.64,13.63,11.25c0.71,4.58-3.14,6.13-6.87,6.37"/>
<path class="st0" d="M1427.6,1226.95c0,0,6.66,3.9,8.81,8.47c2.15,4.57-0.66,8.41-6.3,7.62"/>
<path class="st0" d="M1422.46,1231.75c0,0,5.96,4.69,7.48,8.19c1.52,3.5-2.24,5.82-5.24,4.86"/>
<path class="st0" d="M1416.65,1236.94c0,0,8.03,4.63,8.28,8.02c0.25,3.39-6.3,5.02-17.82,0c-11.52-5.02-17.95-5.59-37.6-6.83
	s-23.82-1.19-23.82-1.19s-18.97,1.86-26.65-3.44c-7.68-5.31-8.69-14.34-6.66-34.89s3.61-33.2,2.37-45.62
	c-1.24-12.42-5.87-42.91-7-71.81s0.68-56.01,6.32-79.94s8.58-34.78,9.48-62.33c0.9-27.55,0.45-62.33-1.58-72.49
	s-16.71-31.84-25.07-60.52c-8.36-28.68-10.84-50.81-3.39-76.33c7.45-25.52,22.36-51.71,25.29-67.75c2.94-16.03-0.9-42.68-6.55-67.07
	c-5.65-24.39-15.81-72.72-16.71-103.2c-0.9-30.49,8.13-58.49,15.81-70.91c7.68-12.42,15.39-30.1,15.15-61.8"/>
<path class="st0" d="M1413.14,823.22c-0.17,0.85,1.02,25.41-2.03,40.65c-3.05,15.24-11.69,16.09-11.35,3.56
	c0.19-7.2,0.57-14.4,0.55-21.6c0-1.96,0.84-11.3-1.74-12.27c-2.71-1.02-2.88,7.62-2.37,22.19c0.51,14.57-0.17,25.74-7.28,26.08
	c-6.81,0.32-6.48-11.52-6.19-15.91c0.73-11.1,1.55-22.19,2.33-33.29c0.09-1.31-0.12-3.05-1.41-3.29c-0.85-0.16-1.63,0.5-2.13,1.2
	c-1.37,1.92-1.69,4.38-1.82,6.73c-0.6,10.67,1.82,21.62-1.01,31.93c-0.68,2.49-2.37,5.71-5.4,4.57c-1.74-0.65-2.7-2.3-3.3-3.96
	c-2.21-6.06-1.22-13.58-0.7-19.83c1.19-14.06,0.34-24.05,0.34-24.05"/>
<path class="st0" d="M1368.6,852.53c0,0-9.14,4.57-9.65-16.6c-0.51-21.17,2.54-35.23,3.05-59.11c0.51-23.88-6.44-31.5-13.72-59.45
	c-7.28-27.95-10.5-47.09-11.01-65.21c-0.51-18.12-4.23-43.53-8.13-61.99s-13.38-67.41-14.9-89.6c-0.76-11.11-2.81-22.35-1.57-33.5
	c1.14-10.26,6.14-19.83,13.1-27.35c5.27-5.69,11.89-10.81,19.54-12.95c10.04-2.81,20.57,0.91,29.47,5.49
	c8.17,4.21,15.56,10.6,19.23,19.2c9.48,22.19,11.69,65.04,8.13,86.38c-3.56,21.34-7.96,51.15-9.65,67.41
	c-1.69,16.26-0.51,24.39,3.73,54.54c4.23,30.15,7.45,34.04,7.45,60.3c0,26.25,4.4,67.07,6.94,74.35
	c2.54,7.28,8.75,11.01,10.39,32.69c1.64,21.68-8.02,27.95-8.02,27.95"/>
<g>
	<path d="M1343.76,327.36c2.39,3.62,3.55,7.92,4.66,12.06c1.26,5.19,3.69,6.28,8.59,7.48c-5.42,0.22-8.65-1.66-10.03-7.06
		C1345.91,335.59,1345.06,331.53,1343.76,327.36L1343.76,327.36z"/>
</g>
<g>
	<path d="M1427.54,305c7.61-4.49,17.63-7.04,26.08-3.5C1444.71,300.09,1436.07,302.46,1427.54,305L1427.54,305z"/>
</g>
<path class="st0" d="M1445.61,312.57c0,0-7,6.1-14.9,7.9c0,0,10.28,3.95,14.9,9.26C1445.61,329.73,1443.57,324.63,1445.61,312.57z"
	/>
<path class="st0" d="M1308.8,689.91c0,0,22.65,5.63,34.11,5.07"/>
<path class="st1" d="M1403.3,527.5c0,0-55.87,17.69-85.09,3.96"/>
<path class="st1" d="M1402.9,494.22c0,0,6.91-20.98-5.28-47.4s-57.13-35.08-79.04-6.77c-21.91,28.31-10.73,64.07-3.56,68.85"/>
<line class="st1" x1="1275.95" y1="458.68" x2="1324" y2="765.47"/>
<polygon class="st2" points="1332.5,758.95 1323.86,765.62 1314.03,762.05 1326.19,783.42 "/>
<polygon class="st2" points="1267.67,465.16 1275.95,458.82 1285.31,462.27 1273.79,441.84 "/>
<polygon class="st2" points="1202.78,222.81 1211.93,217.82 1220.65,222.68 1212.43,200.71 "/>
<polygon class="st2" points="1202.89,1218.69 1212.04,1223.67 1220.76,1218.82 1212.54,1240.78 "/>
<polygon class="st2" points="1366.84,545.34 1361.53,536.32 1366.27,527.5 1344.07,536.23 "/>
<polygon class="st2" points="1389.59,445.81 1389.63,435.35 1398.2,430.18 1374.65,426.36 "/>
<line class="st1" x1="1211.93" y1="217.82" x2="1212.04" y2="1223.67"/>
<path class="st0" d="M1319.87,860.13c0,0,29.24,2.05,48.72,0.69"/>
<path class="st0" d="M1411.8,859.79c0,0,10.58,1.09,19.6-7.27"/>
<ellipse class="st3" cx="1445.33" cy="533.54" rx="2.09" ry="3.78"/>
<g>
	<g>
		<g>
			<path class="st2" d="M1165.63,745.18c0-7.84,3.85-12.05,9.43-12.05s9.43,4.21,9.43,12.05c0,8.03-3.85,12.27-9.43,12.27
				S1165.63,753.21,1165.63,745.18z M1179.06,745.18c0-4.87-1.54-7.47-3.99-7.47c-2.45,0-3.99,2.59-3.99,7.47
				c0,5.06,1.54,7.68,3.99,7.68C1177.51,752.87,1179.06,750.24,1179.06,745.18z"/>
		</g>
	</g>
</g>
<g>
	<g>
		<g>
			<path class="st2" d="M1268.58,621.22h5.3v19.01h10.44v4.45h-15.74V621.22z"/>
		</g>
	</g>
</g>
<g>
	<g>
		<g>
			<path class="st2" d="M1341.76,564.76h5.57l2.3,8.31l0.79,3.24h0.14l0.78-3.24l2.31-8.31h5.57v23.46h-4.49v-7.26
				c0-2.64,0.46-8.36,0.71-10.9h-0.11l-1.8,6.3l-1.83,5.65h-2.58l-1.86-5.65l-1.68-6.3h-0.12c0.27,2.54,0.71,8.25,0.71,10.9v7.26
				h-4.42V564.76z"/>
		</g>
	</g>
</g>
<g>
	<g>
		<g>
			<path class="st2" d="M1345.32,448.53h5.57l2.3,8.31l0.79,3.24h0.14l0.78-3.24l2.31-8.31h5.57v23.46h-4.49v-7.26
				c0-2.64,0.46-8.36,0.71-10.9h-0.11l-1.8,6.3l-1.83,5.65h-2.58l-1.86-5.65l-1.68-6.3h-0.12c0.27,2.54,0.71,8.25,0.71,10.9v7.26
				h-4.42V448.53z"/>
		</g>
	</g>
</g>
<path class="st0" d="M1467,355.76c0,0-1.35,2.29,0,8.3s0.95,9.14-4.1,9.99"/>
<path class="st4" d="M248.53,553.07c0,0,79.06,19.61,177.15-2.13"/>
<line class="st4" x1="216.16" y1="465.56" x2="457.81" y2="465.56"/>
<path class="st4" d="M292.64,428.28c10.37,3.05,24.88,6.16,42.38,6.33c18.95,0.18,34.57-3.14,45.4-6.33"/>
<path class="st4" d="M247.39,1045.24c7.77,3.14,20.92,7.34,37.69,7.38c17.02,0.04,30.36-4.22,38.17-7.38"/>
<path class="st4" d="M237.98,857.93c10.04,3.91,26.7,8.99,47.81,9.02c21.02,0.03,37.65-4.96,47.69-8.82"/>
<path class="st4" d="M232.62,768.94c19.53,9.34,57.99,24.55,108.45,23.75c46.25-0.74,81.61-14.59,100.75-23.75"/>
<path class="st4" d="M239.88,702.5c21.19,7.56,53.91,16.45,94.6,16.8c43.19,0.37,77.79-9.03,99.56-16.8"/>
<path class="st4" d="M243.48,644.63c23.58,6.05,55.37,11.77,93.15,11.83c38.35,0.06,70.59-5.73,94.38-11.83"/>
<path class="st4" d="M431.13,304.62c-24.99,6.48-59.09,12.67-99.74,12.41c-38.4-0.24-70.76-6.15-94.91-12.41"/>
<path class="st5" d="M383.99,276.94"/>
<path class="st0" d="M257.02,317.09c0,0-8.67,10.54-8.17,22.34c0.5,11.81,8.83,26.96,16.5,32.81s12.83-1.49,12.83-1.49"/>
<path class="st0" d="M266.22,319.71c0,0-11.11-2.48-21.81-8.43c-10.7-5.95-14.33-17.96-13.52-24.01c0,0,1.31,5.15,3.83,3.23
	c2.52-1.92,7.16-17.25,6.76-29.97c-0.4-12.71-1.72-25.73,2.22-31.58c0,0,1.31,12.41,11.2,6.36c9.89-6.05,14.13-21.49,20.68-25.73
	c6.56-4.24,8.68,7.67,19.58,10.59c10.9,2.93,26.64-20.18,40.87-20.48c14.23-0.3,20.58,10.39,30.27,8.88s15.54-9.28,23.71-1.92
	c8.17,7.36,9.89,20.77,9.89,20.79c-0.04-0.29,3.32-1.22,3.56-1.28c2.81-0.77,5.77-1.11,8.68-0.8c8.46,0.88,14.78,7.79,18.24,15.14
	c3.48,7.39,2.14,14.97,1.59,22.79c-0.62,8.74,1.75,17.27,1.57,25.97c-0.13,6.32-1.36,12.8-3.51,18.74c-1.6,4.42-3.85,9.14-8.1,11.59
	"/>
<path class="st0" d="M405.8,319.86c0,0,17.21-3.73,18.63,2.83c1.41,6.56-2.99,58.32-30.57,49.04"/>
<path class="st0" d="M296.48,398.69c0.22,10.66,2.38,24.38-6.35,32.49c-10.31,9.58-27.33,11.23-40.49,13.82
	c-12.66,2.49-25.11,10.82-33.47,20.55c-17.15,19.98-19.17,44.2-19.27,53.78c-0.1,9.59-0.5,56-2.32,76.38s-14.33,30.27-15.94,60.74
	c-1.61,30.47,2.62,52.87,3.83,77.9s1.61,26.23-5.65,43.19c-7.26,16.95-11.75,48.49,5.74,59.92"/>
<path class="st0" d="M177.89,819.39c0,0-0.81,24.08,22.2,33.63"/>
<path class="st0" d="M186.36,816.43c0.31,2.68,0.77,5.34,1.29,7.98c1.11,5.6,2.57,11.17,4.71,16.47c2.99,7.41,8.08,14.65,16.24,16.7
	c2.15,0.54,4.48,0.57,6.3-0.84c3.26-2.52,3.52-7.66-0.19-9.83c-3.41-2-6.64-3.92-9.23-6.97c-2.51-2.96-4.27-6.49-5.37-10.2
	c-1.41-4.81-1.89-9.86-1.92-14.86"/>
<path class="st0" d="M216.15,848.12c0,0,1.32-1.66-2.21-12.45c-3.53-10.8-5.25-19.98-1.21-21.49c4.04-1.51,3.03,20.28,10.09,24.22
	s6.86-18.97,4.54-33.4c-2.32-14.43-9.25-20.72-8.85-36.73s6.73-28.05,11.37-69.62c4.64-41.57,0-37.94,5.85-67.6
	c5.85-29.67,14.4-82.74,17.09-115.84"/>
<path class="st0" d="M333.95,836.74c-0.19,6.88-0.31,14.5-0.47,21.38c-0.26,10.88-1.16,21.73-1.56,32.6
	c-0.31,8.53,0.07,17.08,0.51,25.61c0.54,10.53,1.67,21.19,1.15,31.71c-0.53,10.78-2.71,21.42-4.9,31.96
	c-0.69,3.33-1.4,6.66-2.08,9.99c-3.39,16.54-3.35,33.34-3.36,50.17c0,5.11,0.03,10.22,0.08,15.33c0.21,21.92,0.91,43.82,1.76,65.72
	c0,14.68,0.05,29.24-0.7,43.92c-0.56,10.93,0.02,21.58,1.47,32.43c0.26,1.98,0.54,3.95,0.82,5.93c1.24,8.73,1.91,18.21-1.49,26.56
	c-1.01,2.47-2.47,4.91-4.31,6.85c-4.44,4.67-12.95,4.8-15.3-2.18c-1.5-4.44-0.62-9.5,0.07-14.01c0.11-0.74,0.23-1.49,0.34-2.24"/>
<path class="st0" d="M242.53,592.99c0,0,1.68,90.13,1.88,104.46"/>
<path class="st0" d="M305.56,1234.73c0,0-1.65,5.33-7.54,5.28c-6.22-0.05-10.43-5.38-8-21.22"/>
<path class="st0" d="M261.77,1216.57c0,0-4.04,23.61,14.43,16.95"/>
<path class="st0" d="M276.2,1216.57c0,0-2.93,17.15,2.32,20.68s12.54-1.34,12.54-1.34"/>
<path class="st0" d="M262.87,1229.88c-2.51,0.56-5.15,0.11-7.05-1.73c-3.06-2.95-3.41-8.19-3.07-12.18
	c0.44-5.12,2.29-10.05,4.63-14.58c3.06-5.94,8.34-10.59,10.88-16.78c5.51-13.44,0.46-28.68-3.27-41.87
	c-4.46-15.78-9.82-31.32-13.33-47.36c-4.32-19.77-4.1-40.35-4.4-60.48c-0.28-18.47-0.37-36.99,0.68-55.43
	c0.16-2.73,0.34-5.46,0.58-8.18c2.56-29.73-5.11-80.52-10.16-110.99c-5.05-30.47-5.13-59-3.98-84.99"/>
<path class="st0" d="M378,399.85c-0.17,7.96-1.62,15.1,0.41,22.94c2.35,9.07,9.57,11.95,17.67,14.57
	c14.08,4.54,29.28,6.05,42.57,12.86c25.42,13.03,38.68,41.34,38.98,69.12c0.1,9.59,0.5,56,2.32,76.38
	c1.82,20.38,14.33,30.27,15.94,60.74s-2.62,52.87-3.83,77.9c-1.21,25.02-1.61,26.23,5.65,43.19c7.26,16.95,12.64,62.93-10.85,68.91"
	/>
<path class="st0" d="M496.62,819.39c0,0-0.36,10-5.35,19.2c-3.48,6.41-8.54,18.21-18.64,14.43"/>
<path class="st0" d="M488.15,816.43c-0.31,2.68-0.77,5.34-1.29,7.98c-1.11,5.6-2.57,11.17-4.71,16.47
	c-2.99,7.41-6.77,12.1-14.49,13.8c-5.31,1.16-8.89-3.64-3.22-8.21c8.65-6.97,8.86-13.01,9.95-16.72c1.41-4.81,1.89-9.86,1.92-14.86"
	/>
<path class="st0" d="M463.66,847.15c0,0-4.63,2.04-6.56,1.4c-2.96-0.97-5.24-4.41-1.07-9.88c7.06-9.26,9.79-22.98,5.75-24.5
	c-4.04-1.51-3.03,20.28-10.09,24.22c-7.06,3.94-6.86-18.97-4.54-33.4c2.32-14.43,9.25-20.72,8.85-36.73
	c-0.4-16.01-6.73-28.05-11.37-69.62c-4.64-41.57,0-37.94-5.85-67.6c-5.85-29.67-14.4-82.74-17.09-115.84"/>
<path class="st0" d="M340.49,836.44c0.19,6.88,0.38,14.8,0.54,21.68c0.26,10.88,1.16,21.73,1.56,32.6
	c0.31,8.53-0.07,17.08-0.51,25.61c-0.54,10.53-1.67,21.19-1.15,31.71c0.53,10.78,2.71,21.42,4.9,31.96c0.69,3.33,1.4,6.66,2.08,9.99
	c3.39,16.54,3.35,33.34,3.36,50.17c0,5.11-0.03,10.22-0.08,15.33c-0.21,21.92-0.91,43.82-1.76,65.72c0,14.68-0.05,29.24,0.7,43.92
	c0.56,10.93-0.02,21.58-1.47,32.43c-0.26,1.98-0.54,3.95-0.82,5.93c-1.24,8.73-1.91,18.21,1.49,26.56c1.01,2.47,2.47,4.91,4.31,6.85
	c4.44,4.67,12.95,4.8,15.3-2.18c1.5-4.44,0.62-9.5-0.07-14.01c-0.11-0.74-0.23-1.49-0.34-2.24"/>
<path class="st0" d="M431.98,592.99c0,0-1.68,90.13-1.88,104.46"/>
<path class="st0" d="M337.12,836.94c-1.49,0.06-2.98-0.09-4.43-0.49c-6.08-1.69-8.21-6.67-19.87-17.33
	c-13.99-12.78-29.46-22.2-49.24-30.54c-19.78-8.34-30.54-10.49-30.94-17.09s5.92-54.22,7-65.38s-2.69-14.13,28.59,3.83
	c8.26,4.74,17.25,8.13,26.47,10.43c10.5,2.63,21.33,3.65,32.12,4.11c11.09,0.47,22.22,0.19,33.27-0.84
	c10.42-0.97,20.69-3.25,30.62-6.56c5.38-1.93,10.62-4.29,15.58-7.14c31.28-17.96,27.51-15,28.59-3.83c1.08,11.17,7.4,58.79,7,65.38
	c-0.4,6.59-11.17,8.74-30.94,17.09s-35.25,17.76-49.24,30.54c-11.88,10.85-14.21,15.35-20.78,17.2
	C339.67,836.67,338.4,836.88,337.12,836.94z"/>
<path class="st0" d="M368.95,1234.73c0,0,1.65,5.33,7.54,5.28c6.22-0.05,10.43-5.38,8-21.22"/>
<path class="st0" d="M412.74,1216.57c0,0,4.04,23.61-14.43,16.95"/>
<path class="st0" d="M398.31,1216.57c0,0,2.93,17.15-2.32,20.68s-12.54-1.34-12.54-1.34"/>
<path class="st0" d="M411.64,1229.88c2.51,0.56,5.15,0.11,7.05-1.73c3.06-2.95,3.41-8.19,3.07-12.18
	c-0.44-5.12-2.29-10.05-4.63-14.58c-3.06-5.94-8.34-10.59-10.88-16.78c-5.51-13.44-0.46-28.68,3.27-41.87
	c4.46-15.78,9.82-31.32,13.33-47.36c4.32-19.77,4.1-40.35,4.4-60.48c0.28-18.47,0.37-36.99-0.68-55.43
	c-0.16-2.73-0.34-5.46-0.58-8.18c-2.56-29.73,5.11-80.52,10.16-110.99s5.13-59,3.98-84.99"/>
<g>
	<path d="M365.9,471.21c14.04-10.29,32.3-13.93,49.44-12.65c-2.16,0.2-4.31,0.23-6.45,0.44
		C393.98,460.28,379.03,463.86,365.9,471.21L365.9,471.21z"/>
</g>
<g>
	<path d="M254.84,458.54c17.41-1.51,36.17,1.99,50.32,12.67c-1.93-0.99-3.83-2.2-5.83-3.05
		C285.52,461.56,270.05,459.09,254.84,458.54L254.84,458.54z"/>
</g>
<ellipse cx="281.24" cy="561.01" rx="4.64" ry="2.93"/>
<ellipse cx="387.96" cy="561.01" rx="4.64" ry="2.93"/>
<ellipse cx="335.39" cy="680.28" rx="6.09" ry="2.89"/>
<path class="st0" d="M269.02,314.22c-0.33,0.64-0.69,1.27-1.06,1.9c-1.43,2.44-1.58,5.44-1.16,8.18c1.11,7.06,2.52,9.08,4.44,23.71
	s14.13,43.79,32.09,56.71c17.96,12.92,49.71,16.45,68.95,0.57s23.41-41.03,29.33-66.86c3.48-15.17,7.9-31.4,6.37-47.1
	c-0.13-1.38-0.23-2.74-0.57-4.09c-0.43-1.76-1.22-3.47-2.52-4.73c-3.11-3.03-7.99-2.64-11.99-2.74c-8.41-0.2-17.56-0.3-25.68-2.58
	c-7.31-2.05-14.3-5.68-19.89-10.85c-1.68-1.56-3.22-3.4-5.41-4.25c-1.88-0.73-4.01-0.61-5.95-0.06c-3.3,0.95-6.25,2.9-9.05,4.83
	c-8.05,5.56-16.86,10.98-26.95,11.07c-7.4,0.07-17.43-1.94-21.67,6.16c-0.97,1.86-1.47,3.93-1.93,5.98
	C274.55,298.33,272.99,306.65,269.02,314.22z"/>
<g>
	<path d="M291.13,323.79c10.22-4.43,24.53-4.83,32.29,4.34C314.34,320.8,301.93,321.52,291.13,323.79L291.13,323.79z"/>
</g>
<g>
	<path d="M292.54,331.86c8.26-5.46,19.93-6.36,28.45-1.01C311.68,327.57,301.74,328.4,292.54,331.86L292.54,331.86z"/>
</g>
<g>
	<path d="M293.05,337.92c6.33,2.44,13.26,2.15,19.85,1.21c1.98-0.3,4.73-0.87,6.69-1.21C311.49,341.68,300.81,343.2,293.05,337.92
		L293.05,337.92z"/>
</g>
<ellipse transform="matrix(0.9974 -0.0723 0.0723 0.9974 -23.3686 23.0183)" class="st0" cx="306.2" cy="334.24" rx="4.92" ry="6.01"/>
<path class="st6" d="M297.36,329.93c0,0-1.92,5.17,1.46,9.99"/>
<path class="st6" d="M314.53,328.9c0,0,1.9,3.07,0.61,10.34"/>
<g>
	<path d="M379.7,321.59c-10.95-1.32-23.39-0.96-31.79,7.13C354.84,318.91,369.13,318.07,379.7,321.59L379.7,321.59z"/>
</g>
<g>
	<path d="M378.99,329.76c-9.46-2.65-19.44-2.61-28.43,1.47C358.58,325.15,370.29,325.04,378.99,329.76L378.99,329.76z"/>
</g>
<g>
	<path d="M379.02,335.83c-7.27,5.94-18.04,5.36-26.44,2.31c1.97,0.16,4.77,0.5,6.77,0.62C366,339.13,372.93,338.82,379.02,335.83
		L379.02,335.83z"/>
</g>
<ellipse transform="matrix(0.9999 -0.0148 0.0148 0.9999 -4.8919 5.4455)" class="st0" cx="365.59" cy="333.34" rx="4.92" ry="5.97"/>
<path class="st6" d="M374.03,328.25c0,0,2.36,4.98-0.58,10.08"/>
<path class="st6" d="M356.83,328.72c0,0-1.63,3.23,0.3,10.35"/>
<g>
	<path d="M329.04,349.92c2.25,3.07-2.13,5.94-3.42,8.25c-1.57,2.66-0.73,5.85,1.21,8.05c4.09,4.75,11.47,5.05,17.02,2.6
		c-5.33,3.73-13.76,3.58-18.17-1.64c-2.28-2.62-3.14-6.64-1.05-9.62C326.1,355.07,330.58,353.35,329.04,349.92L329.04,349.92z"/>
</g>
<path class="st0" d="M316.05,382.01c0,0,11.75-1.01,17.91-1.01c6.16,0,6.05-2.07,12.76-1.01s5.85,2.12,13.12,2.72
	c0,0-5.45,10.09-16.55,13.27C332.2,399.16,320.36,391.16,316.05,382.01z"/>
<path class="st0" d="M318.88,386.55c0,0,12.11,1.85,16.89,0c4.78-1.85,0.34-2.38,7.74-1.91c7.4,0.47,14.94,0.25,14.94,0.25"/>
<polygon class="st2" points="407.82,713.54 416.97,708.56 425.69,713.42 417.47,691.45 "/>
<polygon class="st2" points="291.3,1043.91 286.34,1052.04 290.38,1060.22 270.69,1051.72 "/>
<polygon class="st2" points="283.35,857.93 277.91,865.74 281.45,874.15 262.31,864.48 "/>
<polygon class="st2" points="321.94,783.65 316.5,791.46 320.03,799.87 300.9,790.2 "/>
<polygon class="st2" points="315.46,708.85 310.42,716.93 314.37,725.15 294.77,716.45 "/>
<polygon class="st2" points="314.99,648.39 309.3,656.03 312.58,664.54 293.75,654.27 "/>
<polygon class="st2" points="320.08,553.9 314.39,561.54 317.66,570.06 298.84,559.79 "/>
<polygon class="st2" points="235.51,457.93 230.45,466 234.39,474.23 214.81,465.49 "/>
<polygon class="st2" points="347.8,426.95 342.74,435.01 346.68,443.24 327.1,434.5 "/>
<polygon class="st2" points="343.2,309.4 338.13,317.47 342.07,325.7 322.49,316.96 "/>
<polygon class="st2" points="433.57,457.98 438.63,466.04 434.69,474.27 454.27,465.53 "/>
<g>
	<g>
		<line class="st7" x1="278.07" y1="449.89" x2="278.07" y2="454.39"/>
		<line class="st8" x1="278.07" y1="463.33" x2="278.07" y2="1156.29"/>
		<line class="st7" x1="278.07" y1="1160.76" x2="278.07" y2="1165.26"/>
		<g>
			<polygon class="st2" points="278.07,439.29 271.97,454.22 278.07,450.68 284.17,454.22 			"/>
		</g>
		<g>
			<polygon class="st2" points="278.07,1175.85 271.97,1160.93 278.07,1164.47 284.17,1160.93 			"/>
		</g>
	</g>
</g>
<line class="st9" x1="283.2" y1="1175.85" x2="219.27" y2="1175.85"/>
<line class="st9" x1="283.2" y1="970.2" x2="219.27" y2="970.2"/>
<line class="st9" x1="283.2" y1="734.05" x2="186.36" y2="734.05"/>
<g>
	<g>
		<line class="st7" x1="416.06" y1="702.04" x2="416.06" y2="706.54"/>
		<line class="st10" x1="416.06" y1="715.44" x2="416.06" y2="1156.15"/>
		<line class="st7" x1="416.06" y1="1160.61" x2="416.06" y2="1165.11"/>
		<g>
			<polygon class="st2" points="416.06,691.45 409.96,706.37 416.06,702.83 422.15,706.37 			"/>
		</g>
		<g>
			<polygon class="st2" points="416.06,1175.7 409.96,1160.77 416.06,1164.31 422.15,1160.77 			"/>
		</g>
	</g>
</g>
<line class="st9" x1="470.79" y1="1175.7" x2="409.22" y2="1175.7"/>
<line class="st9" x1="470.79" y1="977.62" x2="409.22" y2="977.62"/>
<g>
	<g>
		<g>
			<path class="st2" d="M453.85,295.34h6.36l7.31,23.46h-5.63l-3.03-11.88c-0.59-2.34-1.31-5.09-1.87-7.57h-0.14
				c-0.57,2.48-1.23,5.22-1.82,7.57l-3.05,11.88h-5.43L453.85,295.34z M451.38,309.08h11.22v4.14h-11.22V309.08z"/>
		</g>
	</g>
</g>
<g>
	<g>
		<g>
			<path class="st2" d="M421.84,412.98h7.89c4.88,0,8.59,1.33,8.59,5.81c0,2.11-1.25,4.35-4.01,5.07v0.14
				c3.35,0.62,5.11,2.39,5.11,5.52c0,4.77-3.91,6.91-9.02,6.91h-8.56V412.98z M429.49,422.4c2.58,0,3.65-1.09,3.65-2.86
				c0-1.75-1.14-2.43-3.61-2.43h-2.39v5.29H429.49z M429.97,432.31c2.89,0,4.27-1.05,4.27-3.19c0-2.06-1.35-2.91-4.27-2.91h-2.83
				v6.09H429.97z"/>
		</g>
	</g>
</g>
<g>
	<g>
		<g>
			<path class="st2" d="M371.07,529.56h6.48c6.81,0,11.28,3.56,11.28,11.62c0,8.07-4.47,11.84-10.98,11.84h-6.78V529.56z
				 M377.26,548.74c3.65,0,6.13-1.95,6.13-7.56c0-5.6-2.48-7.35-6.13-7.35h-0.88v14.91H377.26z"/>
		</g>
	</g>
</g>
<g>
	<g>
		<g>
			<path class="st2" d="M342.5,627.09h15.55v4.45h-10.24v4.7h8.7v4.45h-8.7v5.4h10.6v4.45H342.5V627.09z"/>
		</g>
	</g>
</g>
<g>
	<g>
		<g>
			<path class="st2" d="M349.04,688.74h15.6v4.45h-10.29v5.44h8.78v4.45h-8.78v9.12h-5.31V688.74z"/>
			<path class="st2" d="M369.7,707.92h6.16v-13.21h-5.07v-3.29c3.09-0.46,4.71-1.03,6.47-2.08h3.89v18.59h5.2v4.28H369.7V707.92z"/>
		</g>
	</g>
</g>
<g>
	<g>
		<g>
			<path class="st2" d="M343.15,761.56h15.6v4.45h-10.29v5.44h8.78v4.45h-8.78v9.12h-5.31V761.56z"/>
			<path class="st2" d="M363.06,781.98c6.55-5.5,10.96-9.38,10.96-12.67c0-2.21-1.38-3.42-3.77-3.42c-1.82,0-3.3,1.12-4.6,2.32
				l-2.84-2.86c2.37-2.4,4.67-3.62,8.17-3.62c4.82,0,8.08,2.88,8.08,7.29c0,3.85-3.96,7.95-8.39,11.81
				c1.31-0.13,2.97-0.26,4.15-0.26h5.42v4.45h-17.18V781.98z"/>
		</g>
	</g>
</g>
<g>
	<g>
		<g>
			<path class="st2" d="M284.92,900.4c0-7.84,4.77-12.29,10.86-12.29c3.16,0,5.36,1.45,6.85,2.98l-2.92,3.28
				c-1.01-1.01-2.08-1.68-3.93-1.68c-3.08,0-5.39,2.83-5.39,7.53c0,4.82,1.9,7.62,5.6,7.62c0.88,0,1.78-0.24,2.28-0.69v-4.05h-3.41
				v-4.33h8.16v10.82c-1.55,1.46-4.33,2.84-7.34,2.84C289.7,912.43,284.92,908.31,284.92,900.4z"/>
		</g>
	</g>
</g>
<g>
	<g>
		<g>
			<path class="st2" d="M283.29,1076.04h5.32v9.03h6.36v-9.03h5.32v23.46h-5.32v-9.79h-6.36v9.79h-5.32V1076.04z"/>
		</g>
	</g>
</g>
<g>
	<g>
		<g>
			<path class="st2" d="M473.84,475.39c0-7.78,4.92-12.29,11.21-12.29c2.97,0,5.41,1.42,7,2.98l-2.92,3.28
				c-1.12-1.04-2.38-1.68-4.08-1.68c-3.33,0-5.76,2.83-5.76,7.53c0,4.82,2.43,7.62,5.97,7.62c1.69,0,3.09-0.83,4.23-2.07l2.92,3.21
				c-1.91,2.26-4.54,3.45-7.7,3.45C478.88,487.42,473.84,483.3,473.84,475.39z"/>
			<path class="st2" d="M496.33,482.72h6.16v-13.21h-5.07v-3.29c3.09-0.46,4.71-1.03,6.47-2.08h3.89v18.59h5.2v4.28h-16.65V482.72z"
				/>
		</g>
	</g>
</g>
<g>
	<g>
		<g>
			<path class="st2" d="M144.69,1161.02h5.37v9.57h0.13l6.91-9.57h5.9l-12.94,17.05v6.41h-5.37V1161.02z M152.32,1173.59l3.11-4.14
				l8.23,15.03h-5.89L152.32,1173.59z"/>
			<path class="st2" d="M166.7,1180.2h6.16v-13.21h-5.07v-3.29c3.09-0.46,4.71-1.03,6.47-2.08h3.89v18.59h5.2v4.28H166.7V1180.2z"/>
			<path class="st2" d="M187.87,1175.56c0-5.95,4.83-9.37,10.33-9.37c2.82,0,5.19,1,6.68,2.43l-2.44,3.28
				c-1.36-0.99-2.61-1.43-3.96-1.43c-3.07,0-5.19,2-5.19,5.09c0,3.09,2.09,5.08,5.02,5.08c1.87,0,3.41-0.82,4.7-1.7l2.14,3.35
				c-2.15,1.81-4.9,2.63-7.34,2.63C192.18,1184.91,187.87,1181.48,187.87,1175.56z"/>
		</g>
	</g>
</g>
<g>
	<g>
		<g>
			<path class="st2" d="M144.69,955.36h5.37v9.57h0.13l6.91-9.57h5.9l-12.94,17.05v6.41h-5.37V955.36z M152.32,967.93l3.11-4.14
				l8.23,15.03h-5.89L152.32,967.93z"/>
			<path class="st2" d="M166.7,974.54h6.16v-13.21h-5.07v-3.29c3.09-0.46,4.71-1.03,6.47-2.08h3.89v18.59h5.2v4.28H166.7V974.54z"/>
			<path class="st2" d="M192.77,976.88h-0.13l-0.44,1.94h-4.14v-25.21h5.3v6.15l-0.2,2.81h0.13c1.32-1.28,3.14-2.04,4.88-2.04
				c4.46,0,7.19,3.57,7.19,9.05c0,6.16-3.74,9.67-7.73,9.67C195.99,979.25,194.24,978.43,192.77,976.88z M199.94,969.66
				c0-3.2-1.05-4.8-3.29-4.8c-1.13,0-2.18,0.48-3.29,1.66v7.2c1,0.88,2.13,1.19,3.08,1.19
				C198.37,974.91,199.94,973.36,199.94,969.66z"/>
		</g>
	</g>
</g>
<g>
	<g>
		<g>
			<path class="st2" d="M108.83,719.21h5.37v9.57h0.13l6.91-9.57h5.9l-12.94,17.05v6.41h-5.37V719.21z M116.46,731.78l3.11-4.14
				l8.23,15.03h-5.89L116.46,731.78z"/>
			<path class="st2" d="M130.85,738.4H137v-13.21h-5.07v-3.29c3.09-0.46,4.71-1.03,6.47-2.08h3.89v18.59h5.2v4.28h-16.65V738.4z"/>
			<path class="st2" d="M151.81,737.72c0-4,3.31-6.04,11.75-6.55c-0.19-1.6-1.39-2.57-3.79-2.57c-1.72,0-3.43,0.66-5.44,1.67
				l-1.89-3.47c2.48-1.41,5.32-2.42,8.36-2.42c5.02,0,8.06,2.61,8.06,8.08v10.21h-4.33l-0.38-2.01h-0.13
				c-1.8,1.36-4.04,2.44-6.33,2.44C154.07,743.1,151.81,740.72,151.81,737.72z M163.55,737.29v-2.92c-5.25,0.26-6.66,1.4-6.66,2.93
				c0,1.15,0.97,1.71,2.46,1.71C160.94,739,162.29,738.28,163.55,737.29z"/>
		</g>
	</g>
</g>
<g>
	<g>
		<g>
			<path class="st2" d="M475.91,1181.29h5.48v-14.55h-5.48v-4.45h16.26v4.45h-5.48v14.55h5.48v4.45h-16.26V1181.29z"/>
			<path class="st2" d="M496.93,1182.7c6.55-5.5,10.96-9.38,10.96-12.67c0-2.21-1.38-3.42-3.77-3.42c-1.82,0-3.3,1.12-4.6,2.32
				l-2.84-2.86c2.37-2.4,4.67-3.62,8.17-3.62c4.82,0,8.08,2.88,8.08,7.29c0,3.85-3.96,7.95-8.39,11.81
				c1.31-0.13,2.97-0.26,4.15-0.26h5.42v4.45h-17.17V1182.7z"/>
		</g>
	</g>
</g>
<g>
	<g>
		<g>
			<path class="st2" d="M478.16,986.88h5.48v-14.55h-5.48v-4.45h16.26v4.45h-5.48v14.55h5.48v4.45h-16.26V986.88z"/>
			<path class="st2" d="M499.93,987.06h6.16v-13.21h-5.07v-3.29c3.09-0.46,4.71-1.03,6.47-2.08h3.89v18.59h5.2v4.28h-16.65V987.06z"
				/>
		</g>
	</g>
</g>
<path class="st0" d="M887.63,387.66c0,0,1.62,15.13-17.91,26.99"/>
<path class="st0" d="M867.63,392.34c0,0,1.05,36.58,11.03,51.49c9.97,14.9,60.96,34.89,81.28,52.17
	c20.32,17.28,25.74,26.76,29.64,58.43c3.9,31.67,3.73,50.64,10.33,75.03c6.61,24.39,10.5,56.4,9.15,85.87s-8.81,63.34-7.11,78.42
	c1.69,15.07,13.38,28.79,12.53,50.47s-22.53,38.62-35.23,38.96c-12.7,0.34-22.7-4.74-16.09-16.94
	c6.61-12.19,16.26-25.24,17.11-32.86c0.85-7.62-5.25-7.11-9.32,1.52c-4.06,8.64-4.57,20.32-9.48,21.51
	c-4.91,1.19-5.59-5.76-1.69-24.22c3.9-18.46,4.57-19.14,1.52-45.9c-3.05-26.76-5.59-55.89-6.94-86.55s1.02-22.87-4.23-51.15
	c-5.25-28.29-12.08-68.31-11.4-85.48"/>
<path class="st0" d="M794.46,394.88c0,0,1.19,21.51-1.69,35.74c-2.88,14.23-34.04,32.35-58.6,45.9
	c-24.56,13.55-46.58,29.47-56.23,54.71c-9.65,25.24-19.03,104.11-22.19,150.43c-3.16,46.32,10.84,66.19,8.47,100.07
	c-2.37,33.87-12.96,42.34-8.94,62.33c4.02,19.99,13.17,25.24,24.18,31.84c11.01,6.61,20.83,5.76,21.17-2.2s-2.2-14.23-7.96-27.78
	c-5.76-13.55-5.42-10.16-5.59-22.7c-0.17-12.53-4.74-17.95-7.28-20.49"/>
<path class="st0" d="M667.43,849.65c0,0-0.4,12.6,7.76,23.66"/>
<path class="st0" d="M678.27,848.46c0,0,0.75,20.65,10.71,31.41"/>
<path class="st0" d="M684.88,844.23c0,0,4.17,17.68,15.63,25.1"/>
<path class="st0" d="M696.66,855.54c0,0,11.42-11.65,12.1-22.83s-7.79-18.97-5.08-35.06c2.71-16.09,4.69-36.47,9.65-77.57
	c4.97-41.1,5.87-70.46,7-102.07c1.13-31.62,2.48-50.36,2.48-50.36"/>
<path class="st0" d="M940.23,586.85c0,0-6.93,23.48-9.87,66.39c-2.94,42.91-3.8,61.14-3.8,61.14"/>
<path class="st0" d="M721.48,591.02c0,0,7.44,8.13,13.54,53.52s0.79,71.25,0.79,71.25"/>
<path class="st0" d="M919.46,717.2c0,0,8.98-5.08,12.36-1.35s0.22,24.56,1.55,48.44c1.33,23.88,3.53,34.04-10.36,54.54
	s-39.63,41.95-89.54,41.27c-49.91-0.68-65.72-11.74-81.75-26.87c-16.03-15.13-22.81-30.71-24.84-44.04
	c-1.68-11.04,0.21-52.74,1.8-68.65c0.33-3.28,0.48-4.55,1.25-5.28c1.86-1.77,4.11,0.09,5.52,1.01c4.88,3.17,15.53,7.13,37.27,11.94
	C814.51,737.47,897.95,728.55,919.46,717.2z"/>
<path class="st0" d="M931.26,803.54c0,0,2.37,41.87,3.11,75.75c0.73,33.87-3.33,45.84-6.72,81.75c-3.39,35.91,2.71,58.26,4.06,94.17
	s-1.35,46.52-7.68,78.59c-6.32,32.07-9.03,63.23-7.23,65.72c1.81,2.48,11.74,10.61,25.41,19.08c13.66,8.47,19.31,16.71,9.6,18.18
	c-9.71,1.47-50.59,3.61-66.73,2.82c-16.15-0.79-15.13-10.05-16.03-29.13s-2.6-40.99-5.31-71.02c-2.71-30.04-5.87-87.62-6.32-109.98
	c0,0-14.9-45.84-20.1-75.2c-5.19-29.36-3.84-94.17-3.84-94.17h-4.74c0,0,3.12,69.56,1.56,86.72c-1.56,17.16-12.63,41.33-17.37,55.78
	c-4.74,14.45-5.87,36.58-7,59.39s-3.61,66.62-6.77,91.91c-3.16,25.29-4.29,31.16-3.84,45.84c0.45,14.68,1.84,24.16-0.1,33.42
	c-1.94,9.26-17.07,7.9-46.65,8.13s-41.78,0.23-41.33-9.48c0.45-9.71,37.49-17.84,41.78-29.13c4.29-11.29,3.84-31.62-1.81-48.1
	c-5.65-16.49-12.19-40.2-12.87-63.01c-0.68-22.81-2.48-62.55,2.26-88.52c4.74-25.97,7.9-28.45,3.84-60.07
	c-4.06-31.62-9.94-42.68-10.84-71.14s-0.89-74.44-0.89-74.44"/>
<path class="st0" d="M776.12,387.32c0,0,2.32,19.75,18.32,28.68"/>
<path class="st0" d="M768.93,376.86c3.51,6.47,8.69,12.55,15.61,15.44c5.98,2.5,12.71,2.66,19.01,1.46c4.74-0.9,10.95-2.15,21,1.13
	s13.66,1.81,26.31,0s12.76-2.82,21.45-2.54s15.24-3.22,27.66-17.22c12.42-14,18.29-36.13,18.52-40.54c0.23-4.4-5.08-7.68-3.27-15.13
	c1.81-7.45,4.4-17.05,5.87-34.21s-1.35-26.76-7.23-35.23c-5.87-8.47-12.53-14.23-15.24-26.08c-2.71-11.86-3.84-13.44-13.32-17.16
	c-9.48-3.73-20.55-3.84-27.66,0c-7.11,3.84-9.71,4.74-19.2-0.9c-9.48-5.65-19.65-12.53-30.04-7.45s-28.57,7.68-40.99,17.28
	c-12.42,9.6-28.91,20.21-31.84,29.81c-2.94,9.6,1.47,19.08,2.48,29.58s0.34,28.85,4.23,51.38c3.9,22.53,1.86,27.44,11.18,34.21
	c3.77,2.74,7.51,5.6,10.69,9.04C766.21,371.92,767.58,374.37,768.93,376.86z"/>
<path class="st0" d="M972.98,802.22c0,0-0.67,15.3,4.32,25.86"/>
<path class="st0" d="M983.48,857.95c0,0-7.62,14.68-18.21,22.41"/>
<path class="st0" d="M1000.76,857.95c0,0-10.67,18.46-21.51,25.24"/>
<path class="st0" d="M687.01,821.24c0,0,1.87-6.2,5.68-2.47s0.66,23.59,2.07,32.12"/>
<polygon class="st2" points="734.86,495.47 729.88,486.32 734.74,477.61 712.77,485.82 "/>
<polygon class="st2" points="925.04,495.47 930.02,486.32 925.17,477.61 947.14,485.82 "/>
<polygon class="st2" points="821.1,692.3 830.25,697.29 838.97,692.43 830.75,714.4 "/>
<g>
	<g>
		<g>
			<path class="st2" d="M742.53,516.62c0-7.78,4.92-12.29,11.21-12.29c2.97,0,5.41,1.42,7,2.98l-2.92,3.28
				c-1.12-1.04-2.38-1.68-4.08-1.68c-3.33,0-5.76,2.83-5.76,7.53c0,4.82,2.43,7.62,5.97,7.62c1.69,0,3.09-0.83,4.23-2.07l2.92,3.21
				c-1.91,2.26-4.54,3.45-7.7,3.45C747.57,528.65,742.53,524.53,742.53,516.62z"/>
			<path class="st2" d="M764.27,525.18c6.55-5.5,10.96-9.37,10.96-12.67c0-2.21-1.38-3.42-3.77-3.42c-1.82,0-3.3,1.12-4.6,2.32
				l-2.84-2.86c2.37-2.4,4.67-3.62,8.17-3.62c4.82,0,8.08,2.88,8.08,7.29c0,3.85-3.96,7.95-8.39,11.81
				c1.31-0.13,2.97-0.26,4.15-0.26h5.42v4.45h-17.17V525.18z"/>
		</g>
	</g>
</g>
<line class="st1" x1="728.44" y1="486.32" x2="935.01" y2="486.32"/>
<g>
	<g>
		<line class="st7" x1="830.79" y1="451.8" x2="830.79" y2="456.3"/>
		<line class="st11" x1="830.79" y1="465.27" x2="830.79" y2="1196.4"/>
		<line class="st7" x1="830.79" y1="1200.88" x2="830.79" y2="1205.38"/>
		<g>
			<polygon class="st2" points="830.79,441.21 824.69,456.13 830.79,452.59 836.88,456.13 			"/>
		</g>
		<g>
			<polygon class="st2" points="830.79,1215.97 824.69,1201.05 830.79,1204.59 836.88,1201.05 			"/>
		</g>
	</g>
</g>
<line class="st4" x1="947.69" y1="1215.97" x2="768.19" y2="1215.97"/>
<line class="st4" x1="947.69" y1="1023.95" x2="766.48" y2="1023.95"/>
<line class="st4" x1="951.38" y1="714.4" x2="736.47" y2="714.4"/>
<g>
	<g>
		<g>
			<path class="st2" d="M960.15,701.73h5.37v9.57h0.13l6.91-9.57h5.9l-12.94,17.05v6.41h-5.37V701.73z M967.78,714.3l3.11-4.14
				l8.23,15.03h-5.89L967.78,714.3z"/>
			<path class="st2" d="M981.41,722.15c6.55-5.5,10.96-9.37,10.96-12.67c0-2.21-1.38-3.42-3.77-3.42c-1.82,0-3.3,1.12-4.6,2.32
				l-2.84-2.86c2.37-2.4,4.67-3.62,8.17-3.62c4.81,0,8.08,2.88,8.08,7.29c0,3.85-3.96,7.95-8.39,11.81
				c1.31-0.13,2.97-0.26,4.15-0.26h5.42v4.45h-17.17V722.15z"/>
			<path class="st2" d="M1003.13,720.24c0-4,3.31-6.04,11.75-6.55c-0.19-1.6-1.39-2.57-3.79-2.57c-1.72,0-3.43,0.66-5.44,1.67
				l-1.89-3.47c2.48-1.41,5.32-2.42,8.36-2.42c5.02,0,8.06,2.61,8.06,8.08v10.21h-4.33l-0.38-2.01h-0.13
				c-1.8,1.36-4.04,2.44-6.33,2.44C1005.39,725.62,1003.13,723.24,1003.13,720.24z M1014.88,719.81v-2.93
				c-5.25,0.26-6.66,1.4-6.66,2.93c0,1.15,0.97,1.71,2.46,1.71C1012.27,721.52,1013.61,720.79,1014.88,719.81z"/>
		</g>
	</g>
</g>
<g>
	<g>
		<g>
			<path class="st2" d="M958.06,1009.91h5.37v9.57h0.13l6.91-9.57h5.9l-12.94,17.05v6.41h-5.37V1009.91z M965.69,1022.48l3.11-4.14
				l8.23,15.03h-5.89L965.69,1022.48z"/>
			<path class="st2" d="M979.31,1030.33c6.55-5.5,10.96-9.38,10.96-12.67c0-2.21-1.38-3.42-3.77-3.42c-1.82,0-3.3,1.12-4.6,2.32
				l-2.84-2.86c2.37-2.4,4.67-3.62,8.17-3.62c4.81,0,8.08,2.88,8.08,7.29c0,3.85-3.96,7.95-8.39,11.81
				c1.31-0.13,2.97-0.26,4.15-0.26h5.42v4.45h-17.17V1030.33z"/>
			<path class="st2" d="M1006.14,1031.42h-0.13l-0.44,1.94h-4.14v-25.21h5.3v6.15l-0.2,2.81h0.13c1.32-1.28,3.14-2.04,4.88-2.04
				c4.46,0,7.19,3.57,7.19,9.05c0,6.16-3.74,9.67-7.73,9.67C1009.36,1033.8,1007.61,1032.98,1006.14,1031.42z M1013.31,1024.21
				c0-3.2-1.05-4.8-3.3-4.8c-1.13,0-2.18,0.48-3.29,1.66v7.2c1,0.88,2.13,1.19,3.08,1.19
				C1011.73,1029.46,1013.31,1027.91,1013.31,1024.21z"/>
		</g>
	</g>
</g>
<g>
	<g>
		<g>
			<path class="st2" d="M958.06,1202.42h5.37v9.57h0.13l6.91-9.57h5.9l-12.94,17.05v6.41h-5.37V1202.42z M965.69,1214.99l3.11-4.14
				l8.23,15.03h-5.89L965.69,1214.99z"/>
			<path class="st2" d="M979.31,1222.84c6.55-5.5,10.96-9.38,10.96-12.67c0-2.21-1.38-3.42-3.77-3.42c-1.82,0-3.3,1.12-4.6,2.32
				l-2.84-2.86c2.37-2.4,4.67-3.62,8.17-3.62c4.81,0,8.08,2.88,8.08,7.29c0,3.85-3.96,7.95-8.39,11.81
				c1.31-0.13,2.97-0.26,4.15-0.26h5.42v4.45h-17.17V1222.84z"/>
			<path class="st2" d="M1001.24,1216.96c0-5.95,4.83-9.37,10.33-9.37c2.82,0,5.19,1,6.68,2.43l-2.44,3.28
				c-1.36-0.99-2.61-1.43-3.96-1.43c-3.07,0-5.19,2-5.19,5.09c0,3.09,2.09,5.08,5.02,5.08c1.87,0,3.41-0.82,4.7-1.7l2.14,3.35
				c-2.15,1.81-4.9,2.63-7.34,2.63C1005.55,1226.31,1001.24,1222.89,1001.24,1216.96z"/>
		</g>
	</g>
</g>
<rect class="st12" width="1584.29" height="1440"/>
</svg>
