<?xml version="1.0" encoding="utf-8"?>
<!-- Generator: Adobe Illustrator 29.8.2, SVG Export Plug-In . SVG Version: 9.03 Build 0)  -->
<svg version="1.0" xmlns="http://www.w3.org/2000/svg" xmlns:xlink="http://www.w3.org/1999/xlink" x="0px" y="0px"
	 viewBox="0 0 1584.29 1440" style="enable-background:new 0 0 1584.29 1440;" xml:space="preserve">
<style type="text/css">
	.st0{fill:none;stroke:#C4B8A6;stroke-width:1.5;stroke-linejoin:round;stroke-miterlimit:10;stroke-dasharray:9;}
	.st1{fill:#C4B8A6;}
	.st2{fill:none;stroke:#C4B8A6;stroke-width:1.5;stroke-linecap:round;stroke-linejoin:round;stroke-miterlimit:10;}
	.st3{fill:none;stroke:#000000;stroke-width:1.5;stroke-linecap:round;stroke-linejoin:round;stroke-miterlimit:10;}
	.st4{fill:none;stroke:#C4B8A6;stroke-width:1.5;stroke-linejoin:round;}
	.st5{fill:none;stroke:#C4B8A6;stroke-width:1.5;stroke-linejoin:round;stroke-dasharray:9.0231,9.0231;}
	.st6{fill:none;stroke:#C4B8A6;stroke-width:1.5;stroke-linejoin:round;stroke-miterlimit:10;}
	.st7{fill:none;stroke:#C4B8A6;stroke-width:1.5;stroke-linejoin:round;stroke-dasharray:9.0166,9.0166;}
	.st8{fill:none;stroke:#C4B8A6;stroke-width:1.5;stroke-linejoin:round;stroke-dasharray:8.9666,8.9666;}
	.st9{fill:none;}
</style>
<g id="Layer_1">
</g>
<g id="Layer_2">
	<line class="st0" x1="1196.99" y1="217.39" x2="1196.99" y2="1220.46"/>
	<polygon class="st1" points="1190.46,1217.67 1196.72,1221.37 1203.15,1217.67 1196.99,1233 	"/>
	<polygon class="st1" points="1190.64,220.04 1196.91,216.34 1203.34,220.04 1197.18,204.72 	"/>
	<polygon class="st1" points="1249.6,397.5 1255.97,394.01 1262.13,397.5 1255.87,382.12 	"/>
	<polygon class="st1" points="1341.67,723.42 1349.17,723.17 1352.17,716.89 1355.49,733.03 	"/>
	<polyline class="st2" points="1256.23,394.16 1256.23,580.03 1349.17,723.17 	"/>
	<g>
		<path d="M1402.85,498.33c-10.01,1.14-19.29-4.65-26.61-10.87c0,0,2.92,2.17,2.92,2.17c6.73,4.56,15.02,8.59,23.33,7.24
			C1403.5,496.58,1403.89,498.12,1402.85,498.33L1402.85,498.33z"/>
	</g>
	<path class="st3" d="M1364.94,265.98c0,0,3.38-0.05,5.62,2.95s5.14,5.3,6.91,8.2s2.68,6.43,5.68,6.21c3-0.21,6.86-2.52,7.02-11.73
		c0.16-9.21-0.21-16.82,0.32-17.57c0.54-0.75,1.66,1.82,4.18-1.93s4.02-10.07,1.55-14.09c-2.46-4.02-5.89-7.93-6.54-10.66
		c-0.64-2.73,1.29-5.2,7.18-4.02c5.89,1.18,8.84,1.45,11.62,6.11c2.79,4.66,9.59,18.64,11.95,25.23c2.36,6.59-1.05,12.93,0.52,16.36
		c1.57,3.43,11.86,14.21,13.79,19.43c1.93,5.21,1,6.43-1.46,6.5c-2.46,0.07-6.89-0.21-7.57,1.07c-0.68,1.29-0.21,2.21-0.75,4.36
		c-0.54,2.14,2.32,5.07,3.18,6.36c0.86,1.29-0.57,3.64-3.32,5.07c0,0,1.93,2.75,3.11,4.25s0.43,3.04-2.46,4.32
		c-2.89,1.29-3.32,3.64-3,7.68c0.32,4.04,0.93,11.77-5.61,14.29s-23.95,0.27-25.02,0.86c-1.07,0.59-11.88,17.54-14.59,35.39
		c0,0,20.29,36.86,29.43,55.71c9.14,18.86,16.86,45.86-4,61.29"/>
	<path class="st3" d="M1380.31,442.82c0,0-13.29,9-16.93,27.11c-3.64,18.11,1.5,29.68-3.64,57.75c-5.14,28.07-6.43,31.5,0,46.93
		s12,30.43,16.93,51s2.68,21.32,12.75,40.18c10.07,18.86,15.43,30.07,23.04,47.82c7.61,17.75,16.07,30.5,21.11,39.5
		c5.04,9,5.25,11.25,5.46,23.57c0.21,12.32-1.07,17.29-6.86,22.79c-5.79,5.5-11.43,6-12.57,2.79"/>
	<path class="st3" d="M1430.96,777.39c0,0,1.23,11.74-0.64,18.36c-1.87,6.62-20.43,8.36-21.21,5.79"/>
	<path class="st3" d="M1420.23,779.32c0,0,1.52,11.71,0.87,15.64c-0.64,3.93-10.93,6.56-17,7.71c-6.07,1.15-7.21-3.14-7.21-3.14"/>
	<path class="st3" d="M1407.24,779.82c0,0,2.43,8.36-0.5,12.36s-10.93,8.79-13.79,6.36c-2.86-2.43-6.71-5.51,0.71-8.5
		c0,0,1.93-8.64-0.07-14.5c-2-5.86-4.64-10.29-7.64-15.86c-3-5.57-6.29-15.5-5-34.71c0,0-3.14-7.36-15.86-22.07
		s-25.93-33.36-40.5-59.93c-14.57-26.57-21.07-43.79-23.21-61.93c-2.14-18.14-1.43-30.29-2.86-35.86
		c-1.43-5.57-8.29-24.29-10.43-50.29s-0.43-39.43,0.14-50.29s0.14-12.14-4.71-23.43c-4.86-11.29,4-22,14.14-33.57
		c10.14-11.57,21.71-19.86,54.57-16.86"/>
	<path class="st3" d="M1402.67,497.6c0,0,6.25,12.61,7.11,25.04c0.86,12.43-1.93,11.79,0,25.71s0.89,19.93-1.59,26.68
		c0,0,2.34,18.96,2.98,41.57s-0.16,30.88-0.16,30.88"/>
	<path class="st3" d="M1379.6,639.33c0,0,25.03-0.44,32.32,9.74c0,0-3.54,15.86-1.07,27.75c2.46,11.89,6.21,13.29,9.64,30.86
		c3.43,17.57,0.67,23.87,0.67,23.87"/>
	<path class="st3" d="M1381.43,647.49c0,0,23.94,0.37,29.45,7.63"/>
	<g>
		<path d="M1403.24,591.96c2.45,6.54,3.13,13.6,3.73,20.51c0.48,6.94,0.56,13.91,0.07,20.85
			C1405.63,619.51,1405.64,605.63,1403.24,591.96L1403.24,591.96z"/>
	</g>
	<path class="st3" d="M1303.3,592.23c0,0-0.92,22.52-2.77,32.37s-19.21,13.64-20.5,59.29c-1.29,45.64,20.36,51.43,23.79,66
		c3.43,14.57-5.25,19.29,18.96,24.86c24.21,5.57,58.68,7.59,71.73,6.96"/>
	<path class="st3" d="M1407.66,801.91c0,0-12.56,35.62-19.63,69.26c-7.07,33.64-6.86,54.64-15.64,77.79
		c-8.79,23.14-10.93,28.07-13.5,51.86c-2.57,23.79-6.21,34.93-13.5,59.14c-7.29,24.21-8.57,40.5-9,72.86
		c-0.43,32.36,3.64,45,36.64,62.79c33,17.79,31.39,15.64,38.79,18c7.39,2.36,15.43,2.68,20.14,6.75c0,0,9.93-2.11,11.86,1.89
		c1.93,4,0.61,10.46-7.18,12.46"/>
	<path class="st3" d="M1414.96,1221.82c0,0,15.14,3.07,17.93,5.5c2.79,2.43,5.14,6.14,2.79,8.79c-2.36,2.64-5.14,1.64-5.14,1.64"/>
	<path class="st3" d="M1413.17,1224.32c0,0,13.14,3.21,16.07,7.29c2.93,4.07,1.57,7.14-1.5,7.79s-4.57-0.6-4.57-0.6"/>
	<path class="st3" d="M1408.67,1227.1c0,0,12.07,3,14.64,11.57c0,0-6.87,5.64-12.45,0.57"/>
	<path class="st3" d="M1401.38,1229.39c0,0,7.93,4.21,9.14,6.93c1.21,2.71-0.86,5.22-5.79,4.93c-4.93-0.29-11.71-4.51-11.71-4.51"/>
	<path class="st3" d="M1397.14,1238.94c0,0-5.33,3.95-17.47,3.74c-12.14-0.21-61-4.79-76.86-6.93
		c-15.86-2.14-21.29-9.43-19.57-26.43c1.71-17,7.57-15,7.86-67.29c0.29-52.29-1.43-60.86-4-103.43
		c-2.57-42.57-3.14-52.29,6.86-78.29s9.43-30.86,11.14-62c1.71-31.14-1.28-84.3,4.07-128.3"/>
	<path class="st3" d="M1364.94,278.35c0,0,3.59,1.07,4.66,4.5c1.07,3.43,0.71,5.18,2.93,7.54c2.21,2.36,1.61,5.61-1.36,8.43
		c-2.96,2.82-5.64,1.82-8.57-1.18s-8.5-7.64-10.75-10.46c-2.25-2.82-6.68-8.66-5.61-13.75c1.07-5.09,1.66-10.5,7.34-11.89
		s11.52,2.04,11.84,7.39C1365.74,274.28,1364.94,278.35,1364.94,278.35z"/>
	<g>
		<path d="M1358.51,269.3c0.65,2.28,0.57,4.79-0.17,7.13c-0.72,2.17-1.09,4.4-0.32,6.4c0.73,2.07,2.41,3.79,3.89,5.38
			c1.15,1.08,2.57,2.44,4.16,1.61c0.5-0.24,0.89-0.69,1.28-1.13c-0.26,0.52-0.54,1.08-1.05,1.47c-3.12,2.51-8.75-4.08-9.69-6.83
			c-0.88-2.39-0.37-5.09,0.64-7.31C1358.12,273.96,1358.54,271.65,1358.51,269.3L1358.51,269.3z"/>
	</g>
	<g>
		<path d="M1364.94,278.35c-0.57,4.44,0.26,8.77,5.66,8.52C1364.85,289.88,1361.61,282.66,1364.94,278.35L1364.94,278.35z"/>
	</g>
	<path class="st3" d="M1348.03,281.58c0,0-3.39,1.81-4.04,14.35c-0.64,12.54,1.18,19.39-1.29,21.86
		c-2.46,2.46-12.75,7.18-22.71,3.54c-9.96-3.64-9.75-8.25-12.64-22.5s-6-13.93-9.32-26.57s-4.5-24.96,6.64-42.86
		s30.11-31.07,35.36-31.18c5.25-0.11,10.93-1.5,18-4.29c7.07-2.79,11.57-3,23.79,1.39c12.21,4.39,20.57,4.29,28.39,10.71
		c7.82,6.43,5.25,18.54-1.71,23.41"/>
	<path class="st3" d="M1417.71,268.5c0,0-5.52-0.91-9.91,2.3c0,0,3.27,3.05,6.16,3.7C1413.96,274.5,1413.85,269.35,1417.71,268.5z"
		/>
	<path class="st3" d="M1421.1,257.28c0,0-7.57-0.14-10.62,3.66c0,0,6.08-1.02,10.49,3.32"/>
	<path class="st3" d="M1329.74,322.57c0,0-3.32,18.14-6.43,22.43c-3.11,4.29-18.21,17.36-30,34.71
		c-11.79,17.36-20.25,43.18-21.96,59.36c-1.71,16.18,6.96,29.89,12.11,59.68c5.14,29.79,8.83,45.66,16.52,65.58"/>
	<path class="st3" d="M1299.03,628.33c0,0,7.91,5.2,20.86,5.84"/>
	<path class="st3" d="M1293.32,635.98c0,0,13.95,6.25,30.81,6.13"/>
	<g>
		<path d="M1393.6,543c4.87,1.75,10.36,1.29,15.07-0.72c0.39-0.15,0.82,0.03,0.98,0.42c0.15,0.39-0.03,0.82-0.42,0.98
			c-1.31,0.4-2.64,0.74-3.99,0.91C1401.32,545.14,1397.19,544.69,1393.6,543L1393.6,543z"/>
	</g>
	<g>
		<path d="M1395.42,575.25c4.06,1.5,8.74,1.31,12.47-0.9c0.36-0.2,0.82-0.06,1.02,0.3c0.22,0.39,0.04,0.89-0.37,1.06
			C1404.39,577.57,1399.42,577.27,1395.42,575.25L1395.42,575.25z"/>
	</g>
	
		<ellipse transform="matrix(0.3304 -0.9438 0.9438 0.3304 492.6453 1654.4269)" class="st3" cx="1412.37" cy="480" rx="2.25" ry="1.7"/>
	<path class="st2" d="M1363.65,468.71c13.77-13.96,20.3-39.61,7.45-65.32s-45.64-24-45.64-24s-25.21,1.64-36.93,26.07
		c-11.71,24.43-3.74,43.71-1.01,50.57"/>
	<path class="st2" d="M1362.07,480.89c0,0-46.9,18.15-74.32,0"/>
	<polygon class="st1" points="1327.12,483.32 1312.11,488.66 1326.21,496.07 1323.47,489.32 	"/>
	<g>
		<g>
			<g>
				<path class="st1" d="M1150.68,679.77c0-7.84,3.85-12.05,9.43-12.05s9.43,4.21,9.43,12.05c0,8.02-3.85,12.27-9.43,12.27
					S1150.68,687.79,1150.68,679.77z M1164.1,679.77c0-4.87-1.54-7.47-3.99-7.47c-2.45,0-3.99,2.59-3.99,7.47
					c0,5.06,1.54,7.68,3.99,7.68C1162.56,687.45,1164.1,684.83,1164.1,679.77z"/>
			</g>
		</g>
	</g>
	<g>
		<g>
			<g>
				<path class="st1" d="M1228.01,574.65h5.3v19.01h10.44v4.45h-15.74V574.65z"/>
			</g>
		</g>
	</g>
	<g>
		<g>
			<g>
				<path class="st1" d="M1314.18,498.22h5.57l2.3,8.31l0.79,3.24h0.14l0.78-3.24l2.31-8.31h5.57v23.46h-4.49v-7.26
					c0-2.64,0.46-8.36,0.71-10.9h-0.11l-1.8,6.3l-1.82,5.65h-2.58l-1.86-5.65l-1.68-6.3h-0.12c0.27,2.54,0.71,8.25,0.71,10.9v7.26
					h-4.42V498.22z"/>
			</g>
		</g>
	</g>
	<g>
		<g>
			<g>
				<path class="st1" d="M1333.83,390.75h5.44l4.94,11.66l2.01,5.15h0.12c-0.24-2.47-0.73-5.76-0.73-8.53v-8.29h5.06v23.46h-5.44
					l-4.94-11.69l-2.01-5.13h-0.12c0.24,2.59,0.73,5.74,0.73,8.5v8.32h-5.06V390.75z"/>
			</g>
		</g>
	</g>
	<polygon class="st1" points="1362.81,401.89 1356.5,387.43 1372.1,393.21 1364.62,394.72 	"/>
	<path class="st3" d="M308.3,282.61c0,0-3.18,0.28-4.25-5.65c-1.07-5.93-3.79-15.14-7.36-20.36c-3.57-5.21-4.14-10.64-4.36-18.71
		c-0.21-8.07,0.29-18.71,3.93-26.5c3.64-7.79,9.86-18,20.21-18.5s21.14,1.64,33.79,1.43c12.64-0.21,24.71-3.43,31.43,2.21
		c6.71,5.64,13.64,15.07,15.79,24.71s1.43,17.36,1.71,26.07c0.29,8.71-2.55,17.07-2.55,17.07"/>
	<path class="st3" d="M387.64,288.21c0,0,3.34-1.11,4.05-8.9c0.71-7.79-0.5-10.57,2.21-13.43c2.71-2.86,3.5-1.86,4.79,4.86
		c1.29,6.71,1.36,10.71,0,13.64c-1.36,2.93-3.29,4.07-5,9.36c-1.71,5.29-4.64,5.79-6.64,5.29"/>
	<path class="st3" d="M300.3,263.78c0,0-2.37,0.38-2.69,5.09s0.11,9.75,0.64,13.12s1.71,2.25,4.29,9.21
		c2.57,6.96,3.27,8.84,7.82,7.77"/>
	<path class="st3" d="M368.07,226.88c2.38-0.3,4.77,0.41,6.57,2c2.48,2.19,5.76,6.08,7.98,12.51c4,11.57,5.71,22.14,5.57,26.14
		c-0.42,11.8-0.19,23.53-1.72,35.29c-0.25,1.96-0.53,3.93-1,5.85c-1.79,7.3-5.77,14.53-10.71,20.17
		c-6.22,7.1-12.57,15.65-22.44,17.4c-10.5,1.86-16.43-0.71-24.57-10.64c-8.14-9.93-13.14-18.5-15.57-27.14
		c-2.43-8.64-4.21-26.07-4.43-35.21s-0.07-28.64,1.29-34.57c1.36-5.93,7.86-9.57,23.79-9.29
		C345.15,229.61,361.36,227.74,368.07,226.88z"/>
	<path class="st3" d="M316.54,319.2c0,0,0.15,5.87,0.9,17.76s1.18,13.29-8.25,18.21c-9.43,4.93-31.07,13.82-38.04,17.46
		c-6.96,3.64-9.32,5.36-16.07,6.75c-6.75,1.39-24.64,8.25-35.36,20.14c-10.71,11.89-13.18,21.07-14.89,39.36
		c-1.71,18.29-0.29,20.57-2.57,30.14c-2.29,9.57-6,23.29-7.57,43.57s-2.71,32.57-6.14,49s-4.29,19.71-6.29,41.57
		c-2,21.86-2.71,30.29-1.71,51.14c1,20.86,3.29,25.29,2.57,40.29s-2,11-0.29,22.14c1.71,11.14,0.57,15.71-1.57,29.29
		c-2.14,13.57-2.86,17.57,1.86,28c4.71,10.43,8.96,17.96,12.18,22.46c3.21,4.5,9.17,2.84,9.17,2.84"/>
	<path class="st3" d="M188.01,774.96c0,0,8.14,16.82,9.64,19.82s13.39,8.25,20.36,7.82c6.96-0.43,11.73-4.61,10.34-7.45
		c-1.39-2.84-16.77-1.45-17.04-2.09c-0.27-0.64-8.48-17.11-8.62-21.89s4.71-11,9.07-13.64c0,0,3.36,3.5,3.79,11.86
		c0.43,8.36,0.5,11.64,3.43,17.29c2.93,5.64,7,7.14,7.36-2.93c0.36-10.07-1.86-16.79-2.07-24.71c-0.21-7.93-0.43-10.5-3.29-18
		c-2.86-7.5-6.71-14.71-9.21-19s-3.06-6.71-3.46-11.86c-0.4-5.14-0.4-10.86,1.46-19.14c1.86-8.29,8.21-28.86,10.07-35.64
		c1.86-6.79,5.29-16.07,6.57-25.07c1.29-9,3.14-21.86,3.43-29.29c0.29-7.43,0.21-11.71,1.71-19.57c1.5-7.86,5.93-23.5,8.29-31.79
		c2.36-8.29,7.09-25.5,8.86-33.43c1.78-7.93,3.21-14.93,3.78-24s0.71-27.14-0.43-31.14"/>
	<path class="st3" d="M252.19,1221.64c-9.96,7.18-9.54,12.21-6.11,15.21c3.43,3,12.32,1.93,17.46-2.79c5.14-4.71,6-2.57,10.71-5.14
		c4.71-2.57,2.86-7.46,4.71-12.32c1.86-4.86,10.29-3.57,12.86-8.57c2.57-5,3.29-14.71,1.29-23.71s-2.77-16.86-2.77-16.86
		c1.37-7,0.2-9.86,0.06-17.29c-0.14-7.43-0.14-29.86,1.29-50.71c1.43-20.86,5.14-34.86,7.29-45.71c2.14-10.86,5.29-21.71,5.43-39.43
		c0.14-17.71-2.71-50.57-1.43-57.29s5-11.29,8.14-26.43s2.57-25.71,4.57-44.86c2-19.14,5.07-38.79,9.25-53.46
		c4.18-14.68,4.61-11.25,8.75-31.11c4.14-19.86,6.86-49.43,6.86-49.43h1.57h1.57c0,0-0.11,2.75,3.43,21.29s4.71,29.25,8.57,43.39
		c3.86,14.14,7.82,25.07,10.39,44.25c2.57,19.18,2.68,32.04,2.68,46.82c0,14.79,4.29,27.86,6.21,39.32
		c1.93,11.46,0.43,25.5-1.18,38.36c-1.61,12.86-3.32,18.11-2.36,33.32c0.96,15.21,2.78,21.43,4.44,37.93
		c1.66,16.5,1.02,30.86,1.23,46.82c0.21,15.96,0.32,23.68,0,36.32s-2.36,7.5-2.14,23.25s0.75,13.07-1.82,23.89
		c-2.57,10.82-3,18.11,1.39,21.86c4.39,3.75,8.25,1.93,9.21,7.39c0.96,5.46-0.16,9.54,2.46,13.55s4.55,1.98,8.79,6.54
		c4.23,4.55,12.38,5.04,17.52,2.95c5.14-2.09,2.36-5.95,0-8.3s-5.2-4.45-6-7.98"/>
	<path class="st3" d="M231.19,1218.96c-1.13,1.94-2.53,3.62-3.97,5.33c-1.21,1.44-2.69,3.35-2.07,5.35c0.46,1.5,2.43,2.71,4.18,2.43
		"/>
	<path class="st3" d="M236.76,1220.39c0,0-1.11,2.21-3.57,4.71c-2.28,2.31-5.32,6.17-2.15,9.1c0.67,0.62,1.61,0.82,2.5,0.71
		c1.01-0.13,1.93-0.73,2.98-0.45"/>
	<path class="st3" d="M242.65,1220.39c0,0-0.96,2.86-4.07,6.11c-3.11,3.25-3.29,6.25-1.82,8.36c1.46,2.11,5.16,1.95,7.6-0.22"/>
	<path class="st3" d="M225.23,1227.42c0,0-3.74-4.97-0.74-8.46s13.66-13.07,18.64-18.32c4.98-5.25,4.98-5.09,7.02-10.29
		c2.04-5.2,3.91-10.34,6.21-14.09c2.3-3.75,4.23-4.66,4.29-8.89c0.05-4.23-0.43-8.14,0-14.95c0.43-6.8,0.91-12-0.16-19.88
		s-3.54-23.14-4.5-28.23c-0.96-5.09-3.96-27.32-4.82-33.21c-0.86-5.89-3.32-26.68-3.96-32.36c-0.64-5.68-2.04-23.2-1.93-29.95
		c0.11-6.75,0.75-23.14,1.29-28.45c0.54-5.3,1.71-17.36,2.36-22.66s2.7-22.88,3.12-34.09s-1.36-31.14-2.71-41.64
		c-1.36-10.5-5.5-28.86-6.79-36.57c-1.29-7.71-2.64-17.21-3.29-29.21c-0.64-12-1.68-30.11-1.54-41.11"/>
	<g>
		<path d="M347.54,472.46c-1.22,10.52-6.18,21.5-15.57,27.08c-4.77,2.66-10.18,3.69-15.51,4.47c-12.36,1.66-37.34,1.6-47.02-6.77
			c-8.61-6.67-13.38-17.19-14.77-27.78c1.99,10.35,6.86,20.52,15.47,26.87c9.59,7.86,33.99,7.75,46.13,6.33
			c6.44-0.89,13.17-2.19,18.39-6.27C341.92,490.51,345.94,481.53,347.54,472.46L347.54,472.46z"/>
	</g>
	<g>
		<path d="M337.26,506.6c-13.01,7.24-24.79,16.46-35,27.29C310.89,521.68,323.31,511.98,337.26,506.6L337.26,506.6z"/>
	</g>
	<g>
		<path d="M292.19,557.53c3.59-2.69,7.52-4.95,11.73-6.63c4.15-1.79,8.75-2.33,13.14-3.12c3.36-0.5,6.42-1.57,9.7-2.46
			c5.62-1.14,11.34,0.16,16.86,0.85c-2.24,0.01-4.48-0.14-6.71-0.18c-3.31-0.1-6.63-0.2-9.84,0.61c-3.16,1-6.45,2.14-9.75,2.66
			c-4.41,0.76-8.78,1.2-13,2.74C300.15,553.45,296.09,555.33,292.19,557.53L292.19,557.53z"/>
	</g>
	<path class="st3" d="M249.38,513.14c0,0,8.88,24.89,12.45,35.89c3.57,11,1.57,15,0.71,27.71c-0.86,12.71-0.71,15.57-0.71,30.57
		s-3.57,29.57-4,31.71"/>
	<path class="st3" d="M339.41,762.64c0,0-16.44,9.82-41.01,15.11c-24.57,5.29-61,4-62.71-5.86c-1.71-9.86,3.29-54.29,8.29-77.57
		s8.71-34.57,10-46.86c1.29-12.29,2.57-8.14,14.43-3.57s51.43,11.71,73.71,12.57c0,0,34.25-1.82,51.82-6.11
		c17.57-4.29,29.79-7.61,33.32-6.21c3.54,1.39,2.68,11.89,6.64,28.07c3.96,16.18,7.18,35.14,9.86,48.96
		c2.68,13.82,4.39,30.75,4.61,44.25s3.32,12.43-11.68,14.04c-15,1.61-23.79,0.96-42.21-2.79c-18.43-3.75-42.98-9.4-48.95-12.3"/>
	<path class="st3" d="M255.4,944.89c0,0,22.71,14.43,45.57,1.14"/>
	<path class="st2" d="M245.36,1013.58c0,0,26.83,11.38,59.05-0.91"/>
	<path class="st3" d="M383.97,943.17c0,0,19.07,22.07,43.93,6.21"/>
	<path class="st3" d="M418.74,1222.92c0,0,5.46,7.66,6.64,11.89c1.18,4.23-8.31,6.37-10.34,2.3"/>
	<path class="st3" d="M426.4,1222.92c0,0,3.38,4.98,5.3,7.02c1.93,2.04,2.62,4.02,0.86,6.59c-1.77,2.57-6.11,1.71-7.18-0.32"/>
	<path class="st3" d="M431.65,1220.51c0,0,4.66,6.42,6.32,10.01s-3.32,4.4-4.39,3.81"/>
	<path class="st3" d="M447.62,777.91c0,0-0.07,28.41-1.64,47.84c-1.57,19.43-3.43,29.43-5.29,40.71
		c-1.86,11.29-2.86,12.71-6.14,22.43c-3.29,9.71-3,14.57-3.43,28.86c-0.43,14.29-0.43,22.71,0.43,38.43
		c0.86,15.71,2.29,35.43-0.14,56.86c-2.43,21.43-10.23,60.71-15.97,82.43c-5.74,21.71-8.89,32.29-11.46,50.14
		c-2.57,17.86,9.43,46.14,15.43,55c6,8.86,16.32,14.93,18.46,21.36s-0.4,7.55-0.4,7.55"/>
	<g>
		<path d="M350.97,475.46c0.04,5.63,2.68,11.04,6.57,15c4.74,5.12,11.47,8.03,18.06,10.01c9.39,2.67,19.23,4.34,29,4.11
			c10.8-0.26,23.11-2.48,29.78-11.78c6.63-9.08,12.01-19.06,17.15-29.06c-4.59,10.3-9.74,20.41-16.22,29.74
			c-3.2,4.86-8.41,8.04-13.83,9.88c-13.67,4.45-28.45,2.9-42.14-0.54c-8.13-2.14-16.62-5.43-22.34-11.86
			C353.23,486.79,350.68,481.14,350.97,475.46L350.97,475.46z"/>
	</g>
	<g>
		<path d="M356.12,506.6c14.06,4.51,26.48,14.26,34.57,26.57C380.96,522.21,369.32,513.03,356.12,506.6L356.12,506.6z"/>
	</g>
	<g>
		<path d="M350.01,545.41c4.38-0.85,8.83-1.42,13.36-1.19c4.46,0.22,8.61,2.5,13,3.05c2.16,0.4,4.35,0.49,6.63,0.97
			c6.62,1.52,12.53,5.02,18.16,8.62c-6.02-2.79-11.95-5.91-18.45-7.23c-2.09-0.41-4.36-0.5-6.59-0.89
			c-4.47-0.59-8.4-2.86-12.86-3.36C358.89,544.95,354.42,545.14,350.01,545.41L350.01,545.41z"/>
	</g>
	<g>
		<path d="M291.33,577.25c4.47,0.62,8.95,0.89,13.43,0.98c4.59,0.02,9.09,1.05,13.45,2.18c8.64,2.65,17.7,1.97,26.55,0.84
			c-8.66,2.33-18.26,3.25-26.93,0.61c-4.34-1.16-8.67-2.21-13.11-2.47C300.19,579.1,295.69,578.44,291.33,577.25L291.33,577.25z"/>
	</g>
	<g>
		<path d="M348.69,580.46c6.57,0.98,13.37,1.87,19.96,0.83c4.43-0.77,8.63-2.33,13.06-3.26c4.48-0.94,9.08-0.16,13.58-0.24
			c2.23,0.02,4.46-0.23,6.61-0.91c-2.04,0.99-4.32,1.41-6.58,1.64c-4.46,0.45-8.96-0.13-13.33,0.89c-4.34,1.01-8.64,2.59-13.12,3.27
			C362.08,583.59,355.19,582.33,348.69,580.46L348.69,580.46z"/>
	</g>
	<line class="st3" x1="344.76" y1="605.57" x2="343.9" y2="650.35"/>
	<path class="st3" d="M339.94,667.92c0,0-0.54,56.68,2.18,83.82"/>
	<path class="st3" d="M253.09,653.86c0,0,17.64,7.64,28.67,8.07c11.04,0.43,18.43,1.07,29.14,2.25c10.71,1.18,15.32,1.82,35.04,2.14
		c19.71,0.32,41.14-3.35,58.07-6.23c16.93-2.88,26.57-4.7,26.57-4.7"/>
	<path class="st3" d="M442.33,482.39c0,0,4,26.96,6.15,42.93s3.86,24.43,7.07,34.93c3.21,10.5,6.96,20.57,7.39,27.75
		c0.43,7.18-1.5,16.39-0.21,32.25c1.29,15.86,6,38.68,9.64,49.5c3.64,10.82,5.57,19.82,6,33.54s-1.93,18.64-8.57,25.61
		c-6.64,6.96-10.61,12.43-12.96,21.54c-2.36,9.11-2.57,15.86-5.04,25.93c-2.46,10.07-3.25,11.96-0.46,13.89
		c2.79,1.93,7.36-1.86,9.43-9.43c1.94-7.09,1.12-10.55,3.95-15.01c0.31-0.49,1-0.6,1.43-0.21c1.17,1.06,3.21,3.04,3.41,4
		c0.29,1.36-0.14,8.79-1.07,13.07c-0.93,4.29-2.86,9.93-5.57,11.43c-2.71,1.5-13.73,2.58-14.71,4.93c-0.98,2.35-0.64,6.36,7.36,5.29
		s10.5-1.29,16.61-9.21s13.39-19.93,13.39-19.93"/>
	<path class="st3" d="M496.37,775.71c0,0-10.61,15.54-15.61,21.04s-10.23,5.62-15.97,5.42"/>
	<path class="st3" d="M384.24,312.79c0,0,0.02,5.24,0.52,15.31c0.5,10.07,1.86,16.93,5.29,23.07c3.43,6.14,25.86,18,31.57,21.07
		s28.43,12.79,37.79,17.71c9.36,4.93,18.86,10.43,26.14,21.36c7.29,10.93,9.43,23.57,10.39,36.54c0.96,12.96,0.64,23.99,1.29,33.59
		c0.64,9.59,1.61,18.91,1.93,30.06c0.32,11.14-0.86,19.07,0.54,27.75c1.39,8.68,7.61,24.43,9.43,33.43s2.79,37.71,2.57,47.57
		c-0.21,9.86-1.07,32.57-2.14,43.82c-1.07,11.25-1.61,12.96-3.54,28.07c-1.93,15.11-2.04,15.11-1.61,17.32
		c0.43,2.21,0.71,4.07-0.29,10.07s-0.14,23.82-0.36,34.86s0.86,17.6-4.82,26.43c-5.68,8.82-11.14,17.5-14.89,18.36
		c-3.75,0.86-5.14,0-5.14,0"/>
	<path class="st3" d="M489.65,794.42c0,0,2.75,1.47,5.04-2.74c2.29-4.21,4.57-11.37,4.57-11.37"/>
	<path class="st3" d="M207.43,784.76c0,0,5.15-0.26,6.58,0.95c1.43,1.21-0.47,4.45-3.7,5.26"/>
	<path class="st3" d="M226.55,794.04c0,0-0.35-2.65-2.47-3.07"/>
	<path class="st3" d="M210.75,791.88c0,0,5.77-1.72,10.79-1.66"/>
	<path class="st3" d="M446.45,510.58c0,0-6.05,13.88-11.62,31.74c-5.57,17.86-8.43,23.63-8.86,37.31
		c-0.43,13.69,0.43,43.22-1.93,64.21"/>
	<path class="st3" d="M312.76,267.32c0,0,6.61,0.82,10.61,0.61c4-0.21,4.68-0.21,8.86,0.82c4.18,1.04,4.89,1.5,5.18,0
		c0.29-1.5,0.25-4.61-2.82-4.75c-3.07-0.14-5.39,0.29-11.04,0C317.9,263.71,315.33,264.25,312.76,267.32z"/>
	<path class="st3" d="M379.79,265.66c0,0-3.21,0.86-8.09,0.7s-6.43-0.27-10.39,0.59c-3.96,0.86-9.11-0.64-9.11-0.64
		s0.7-3.7,1.45-3.8s3.43,0.32,10.18-0.54S375.13,261.69,379.79,265.66z"/>
	<path class="st3" d="M339.94,274.55c0,0,0.96,12.12-1.89,18.05c-2.86,5.93-5.14,8.29-2.71,11.14c2.43,2.86,5,0.71,7.93,2.64
		c2.93,1.93,3.93,1.21,6.5,0c2.57-1.21,6.79-0.79,7.71-4.21c0.93-3.43-1-6.36-3.43-6.93"/>
	<path class="st3" d="M329.71,318.64c0,0,7.98-4.71,11.41-4.71s3.16,0.32,7.34,0c4.18-0.32,7.66,1.61,11.95,5.09
		c0,0-4.18,6.7-7.5,7.39c-3.32,0.7-4.02-0.21-8.68,0.43s-6-1.55-7.88-4.23C334.47,319.92,332.81,318.59,329.71,318.64z"/>
	<path class="st3" d="M329.71,318.64c0,0,25.98,0.43,30.7,0.38"/>
	<g>
		<path d="M255.08,379.39c11.23,0.9,22.43,2.29,33.47,4.58c7.34,1.66,14.53,3.65,21.88,5.18c3.64,0.75,7.34,1.49,10.98,1.56
			c5.42-0.24,11.99-0.48,16.17,3.76c1.38,1.32,2.41,2.94,3.21,4.63c-0.94-1.62-2.07-3.13-3.47-4.34c-4.39-3.84-10.44-3.31-15.88-2.9
			c-3.84,0.1-7.56-0.64-11.29-1.32c-7.36-1.44-14.63-3.44-21.9-5.18C277.29,382.87,266.17,381.17,255.08,379.39L255.08,379.39z"/>
	</g>
	<g>
		<path d="M362.44,399.1c5.29-6.99,14.92-4.38,22.44-5.07c7.84-0.46,15.56-2.55,23.46-3.6c15.72-2.05,31.69-3.73,47.53-2.26
			c-19.8-0.21-39.55,2.34-59.04,5.62c-5.86,1.1-11.9,1.68-17.88,1.32C373.22,394.69,366.54,394.31,362.44,399.1L362.44,399.1z"/>
	</g>
	<path class="st3" d="M348.72,485.14c0,0-0.75,73.79-1.18,90.95"/>
	<g>
		<path d="M334.83,275.46c-4.7-5.42-11.35-4.49-17.39-2.09c1.23-1.12,2.71-1.96,4.29-2.56C326.5,268.77,332.84,270.33,334.83,275.46
			L334.83,275.46z"/>
	</g>
	<g>
		<path d="M319.33,275.82c4.09,2.06,8.61,1.42,13,1.21C328.49,279.38,322.27,279.77,319.33,275.82L319.33,275.82z"/>
	</g>
	<path class="st2" d="M239.65,719.54c0,0,107.9,23.22,204.33,0"/>
	<path class="st2" d="M237.95,789.18c0,0,54.31,20.86,97.91,0"/>
	<path class="st2" d="M263.37,567.89c0,0,75,12.11,163.16,4.27"/>
	<path class="st2" d="M252.89,479.35c0,0,99.54,26.11,189.9,6.12"/>
	<path class="st2" d="M317.24,348.36c0,0,36.18,10,70.95-1.56"/>
	<path class="st2" d="M293.96,251.03c0,0,59.3,21.91,105.22-1.55"/>
	<g>
		<path d="M320.65,271.8c0.46,1.91,0.66,3.67,1.23,5.51C320.09,276.22,319.68,273.57,320.65,271.8L320.65,271.8z"/>
	</g>
	<g>
		<path d="M331.93,272.42c1.04,1.68,0.36,4.27-1.45,5.12C331.15,275.77,331.51,274.3,331.93,272.42L331.93,272.42z"/>
	</g>
	<path class="st3" d="M329.38,272.26c0,1.44-1.28,2.6-2.86,2.6c-1.57,0-2.85-1.16-2.85-2.6c0-0.38,0.09-0.75,0.26-1.08
		c1.67-0.28,3.51-0.29,5.3,0.26C329.33,271.7,329.38,271.98,329.38,272.26z"/>
	<g>
		<path d="M357.04,275.11c2.42-5.93,9.66-6.78,14.78-3.89c0.94,0.5,1.83,1.08,2.61,1.8c-0.98-0.37-1.96-0.7-2.94-0.99
			C366.06,270.32,360.97,270.71,357.04,275.11L357.04,275.11z"/>
	</g>
	<g>
		<path d="M372.54,275.47c-2.94,3.95-9.15,3.56-13,1.21C363.94,276.89,368.46,277.53,372.54,275.47L372.54,275.47z"/>
	</g>
	<g>
		<path d="M370.98,271.31c1.16,1.75,0.86,4.83-1.29,5.66C370.71,275.13,370.67,273.38,370.98,271.31L370.98,271.31z"/>
	</g>
	<g>
		<path d="M360.27,271.68c0.55,2.12,1.04,3.86,1.98,5.79C360.21,276.51,359.35,273.7,360.27,271.68L360.27,271.68z"/>
	</g>
	<path class="st3" d="M368.97,271.04c0,1.83-1.46,3.31-3.26,3.31c-1.81,0-3.28-1.48-3.28-3.31v-0.06c0.05-0.02,0.1-0.03,0.15-0.05
		c1.79-0.55,3.63-0.54,5.3-0.26c0.37,0.06,0.73,0.13,1.08,0.22C368.97,270.94,368.97,270.99,368.97,271.04z"/>
	<polygon class="st1" points="237.32,402.4 233.65,396.01 236.94,389.77 221.54,395.93 	"/>
	<polygon class="st1" points="324.99,497.48 321.99,490.74 325.91,484.87 309.96,489.43 	"/>
	<polygon class="st1" points="325.56,581.33 322.57,574.6 326.48,568.73 310.53,573.28 	"/>
	<polygon class="st1" points="322.75,650.44 319.48,643.09 323.67,637.84 307.54,642.6 	"/>
	<polygon class="st1" points="323.5,736.17 320.37,729.49 324.18,723.55 308.32,728.41 	"/>
	<polygon class="st1" points="284.76,804.75 281.63,798.08 285.43,792.14 269.57,797 	"/>
	<polygon class="st1" points="277.93,1025.09 274.81,1018.42 278.61,1012.47 262.75,1017.33 	"/>
	<polygon class="st1" points="454.41,402.4 458.08,396.01 454.78,389.77 470.18,395.93 	"/>
	<polygon class="st1" points="356.75,358.87 353.08,352.48 356.37,346.24 340.97,352.4 	"/>
	<polygon class="st1" points="350.7,267.03 347.03,260.64 350.33,254.4 334.93,260.56 	"/>
	<ellipse class="st3" cx="283.34" cy="485.57" rx="3.03" ry="2.3"/>
	<ellipse class="st3" cx="415.01" cy="490.34" rx="3.35" ry="2.6"/>
	<path class="st2" d="M258.18,637.44c27.87,5.84,48.5,5.17,75.82,5.84c33.11,0.81,63.34-0.83,90.45-3.38"/>
	<line class="st2" x1="233.65" y1="396.01" x2="458.08" y2="396.01"/>
	<g>
		<g>
			<g>
				<path class="st1" d="M418.33,234.63h6.36l7.31,23.46h-5.63l-3.03-11.88c-0.59-2.34-1.31-5.09-1.87-7.57h-0.14
					c-0.57,2.48-1.23,5.22-1.82,7.57l-3.05,11.88h-5.43L418.33,234.63z M415.86,248.37h11.22v4.14h-11.22V248.37z"/>
			</g>
		</g>
	</g>
	<g>
		<g>
			<g>
				<path class="st1" d="M405.8,331.09h7.89c4.88,0,8.59,1.33,8.59,5.81c0,2.11-1.25,4.35-4.01,5.07v0.14
					c3.35,0.62,5.11,2.39,5.11,5.52c0,4.77-3.91,6.91-9.02,6.91h-8.56V331.09z M413.45,340.5c2.58,0,3.65-1.09,3.65-2.86
					c0-1.75-1.15-2.43-3.61-2.43h-2.39v5.29H413.45z M413.93,350.41c2.89,0,4.27-1.05,4.27-3.19c0-2.06-1.35-2.91-4.27-2.91h-2.83
					v6.09H413.93z"/>
			</g>
		</g>
	</g>
	<g>
		<g>
			<g>
				<path class="st1" d="M500.12,396.03c0-7.78,4.92-12.29,11.21-12.29c2.97,0,5.41,1.42,7,2.98l-2.92,3.28
					c-1.12-1.04-2.38-1.68-4.08-1.68c-3.33,0-5.76,2.83-5.76,7.53c0,4.82,2.43,7.62,5.97,7.62c1.69,0,3.09-0.83,4.23-2.07l2.92,3.21
					c-1.91,2.26-4.54,3.45-7.7,3.45C505.15,408.06,500.12,403.94,500.12,396.03z"/>
				<path class="st1" d="M522.61,403.35h6.16v-13.21h-5.07v-3.29c3.09-0.46,4.71-1.03,6.47-2.08h3.89v18.59h5.2v4.28h-16.65V403.35z
					"/>
			</g>
		</g>
	</g>
	<g>
		<g>
			<g>
				<path class="st1" d="M379.84,463.35h6.48c6.81,0,11.28,3.56,11.28,11.62c0,8.07-4.47,11.84-10.98,11.84h-6.78V463.35z
					 M386.02,482.53c3.65,0,6.13-1.95,6.13-7.56c0-5.6-2.48-7.35-6.13-7.35h-0.88v14.91H386.02z"/>
			</g>
		</g>
	</g>
	<g>
		<g>
			<g>
				<path class="st1" d="M354.28,547.88h15.55v4.45h-10.24v4.7h8.7v4.45h-8.7v5.4h10.6v4.45h-15.91V547.88z"/>
			</g>
		</g>
	</g>
	<g>
		<g>
			<g>
				<path class="st1" d="M353.48,615.07h15.6v4.45h-10.29v5.44h8.78v4.45h-8.78v9.12h-5.31V615.07z"/>
				<path class="st1" d="M374.15,634.26h6.16v-13.21h-5.07v-3.29c3.09-0.46,4.71-1.03,6.47-2.08h3.89v18.59h5.2v4.28h-16.65V634.26z
					"/>
			</g>
		</g>
	</g>
	<g>
		<g>
			<g>
				<path class="st1" d="M351.32,697.95h15.6v4.45h-10.29v5.44h8.78v4.45h-8.78v9.12h-5.31V697.95z"/>
				<path class="st1" d="M371.23,718.37c6.55-5.5,10.96-9.37,10.96-12.67c0-2.21-1.38-3.42-3.77-3.42c-1.82,0-3.3,1.12-4.6,2.32
					l-2.84-2.86c2.37-2.4,4.67-3.62,8.17-3.62c4.81,0,8.08,2.88,8.08,7.29c0,3.85-3.96,7.95-8.39,11.81
					c1.31-0.13,2.97-0.26,4.15-0.26h5.42v4.45h-17.17V718.37z"/>
			</g>
		</g>
	</g>
	<g>
		<g>
			<g>
				<path class="st1" d="M273.86,820.83c0-7.84,4.77-12.29,10.86-12.29c3.16,0,5.37,1.45,6.85,2.98l-2.92,3.28
					c-1.01-1.01-2.08-1.68-3.93-1.68c-3.08,0-5.39,2.83-5.39,7.53c0,4.82,1.9,7.62,5.6,7.62c0.88,0,1.77-0.24,2.28-0.69v-4.05h-3.41
					v-4.33h8.16v10.82c-1.55,1.46-4.33,2.84-7.34,2.84C278.64,832.86,273.86,828.74,273.86,820.83z"/>
			</g>
		</g>
	</g>
	<g>
		<g>
			<g>
				<path class="st1" d="M277.18,1027.29h5.32v9.03h6.36v-9.03h5.32v23.46h-5.32v-9.79h-6.36v9.79h-5.32V1027.29z"/>
			</g>
		</g>
	</g>
	<path class="st3" d="M345.35,591.91c0,0-1.5,0.11-3.21,0.43c-1.71,0.32-1.45,3.21,0.32,4.45c1.77,1.23,3.8,1.93,4.93,0.75
		c1.12-1.18,1.5-3.16,0.96-4.66S345.35,591.91,345.35,591.91z"/>
	<g>
		<g>
			<line class="st4" x1="267.6" y1="381.48" x2="267.6" y2="385.98"/>
			<line class="st5" x1="267.6" y1="395" x2="267.6" y2="1148.43"/>
			<line class="st4" x1="267.6" y1="1152.94" x2="267.6" y2="1157.44"/>
			<g>
				<polygon class="st1" points="267.6,370.89 261.5,385.81 267.6,382.27 273.7,385.81 				"/>
			</g>
			<g>
				<polygon class="st1" points="267.6,1168.03 261.5,1153.11 267.6,1156.65 273.7,1153.11 				"/>
			</g>
		</g>
	</g>
	<line class="st6" x1="273.15" y1="1168.03" x2="203.96" y2="1168.03"/>
	<g>
		<g>
			<line class="st4" x1="406.67" y1="634.49" x2="406.67" y2="638.99"/>
			<line class="st7" x1="406.67" y1="648.01" x2="406.67" y2="1148.43"/>
			<line class="st4" x1="406.67" y1="1152.94" x2="406.67" y2="1157.44"/>
			<g>
				<polygon class="st1" points="406.67,623.9 400.58,638.83 406.67,635.29 412.77,638.83 				"/>
			</g>
			<g>
				<polygon class="st1" points="406.67,1168.03 400.58,1153.11 406.67,1156.65 412.77,1153.11 				"/>
			</g>
		</g>
	</g>
	<line class="st6" x1="468.17" y1="1168.03" x2="398.99" y2="1168.03"/>
	<line class="st6" x1="468.17" y1="945.46" x2="398.99" y2="945.46"/>
	<g>
		<g>
			<g>
				<path class="st1" d="M142.11,1153.91h5.37v9.57h0.13l6.91-9.57h5.9l-12.94,17.05v6.41h-5.37V1153.91z M149.74,1166.47l3.11-4.14
					l8.23,15.03h-5.89L149.74,1166.47z"/>
				<path class="st1" d="M164.13,1173.09h6.16v-13.21h-5.07v-3.29c3.09-0.46,4.71-1.03,6.47-2.08h3.89v18.59h5.2v4.28h-16.65
					V1173.09z"/>
				<path class="st1" d="M185.29,1168.44c0-5.95,4.83-9.37,10.33-9.37c2.82,0,5.19,1,6.68,2.43l-2.44,3.28
					c-1.36-0.99-2.61-1.43-3.96-1.43c-3.07,0-5.19,2-5.19,5.09c0,3.09,2.09,5.08,5.02,5.08c1.87,0,3.41-0.82,4.7-1.7l2.14,3.35
					c-2.15,1.81-4.9,2.63-7.34,2.63C189.61,1177.79,185.29,1174.37,185.29,1168.44z"/>
			</g>
		</g>
	</g>
	<line class="st6" x1="273.15" y1="945.46" x2="203.96" y2="945.46"/>
	<g>
		<g>
			<g>
				<path class="st1" d="M142.11,931.33h5.37v9.57h0.13l6.91-9.57h5.9l-12.94,17.05v6.41h-5.37V931.33z M149.74,943.9l3.11-4.14
					l8.23,15.03h-5.89L149.74,943.9z"/>
				<path class="st1" d="M164.13,950.51h6.16V937.3h-5.07v-3.29c3.09-0.46,4.71-1.03,6.47-2.08h3.89v18.59h5.2v4.28h-16.65V950.51z"
					/>
				<path class="st1" d="M190.2,952.85h-0.13l-0.44,1.94h-4.14v-25.21h5.3v6.15l-0.2,2.81h0.13c1.32-1.28,3.14-2.04,4.88-2.04
					c4.46,0,7.19,3.57,7.19,9.05c0,6.16-3.74,9.67-7.73,9.67C193.41,955.22,191.66,954.4,190.2,952.85z M197.37,945.64
					c0-3.2-1.05-4.8-3.29-4.8c-1.13,0-2.18,0.48-3.29,1.66v7.2c1,0.88,2.13,1.19,3.08,1.19
					C195.79,950.88,197.37,949.33,197.37,945.64z"/>
			</g>
		</g>
	</g>
	<line class="st6" x1="273.15" y1="689.89" x2="183.23" y2="689.89"/>
	<g>
		<g>
			<g>
				<path class="st1" d="M120.37,674.48h5.37v9.57h0.13l6.91-9.57h5.9l-12.94,17.05v6.41h-5.37V674.48z M128,687.04l3.11-4.14
					l8.23,15.03h-5.89L128,687.04z"/>
				<path class="st1" d="M142.38,693.66h6.16v-13.21h-5.07v-3.29c3.09-0.46,4.71-1.03,6.47-2.08h3.89v18.59h5.2v4.28h-16.65V693.66z
					"/>
				<path class="st1" d="M163.35,692.98c0-4,3.31-6.04,11.75-6.55c-0.19-1.6-1.39-2.57-3.79-2.57c-1.72,0-3.43,0.66-5.44,1.67
					l-1.89-3.47c2.48-1.41,5.32-2.42,8.36-2.42c5.02,0,8.06,2.61,8.06,8.08v10.21h-4.33l-0.38-2.01h-0.13
					c-1.8,1.36-4.04,2.44-6.33,2.44C165.6,698.36,163.35,695.98,163.35,692.98z M175.09,692.56v-2.92c-5.25,0.26-6.66,1.4-6.66,2.93
					c0,1.15,0.97,1.71,2.46,1.71C172.48,694.27,173.83,693.54,175.09,692.56z"/>
			</g>
		</g>
	</g>
	<g>
		<g>
			<g>
				<path class="st1" d="M473.6,1174.87h5.48v-14.55h-5.48v-4.45h16.26v4.45h-5.48v14.55h5.48v4.45H473.6V1174.87z"/>
				<path class="st1" d="M494.62,1176.28c6.55-5.5,10.96-9.38,10.96-12.67c0-2.21-1.38-3.42-3.77-3.42c-1.82,0-3.3,1.12-4.6,2.32
					l-2.84-2.86c2.37-2.4,4.67-3.62,8.17-3.62c4.82,0,8.08,2.88,8.08,7.29c0,3.85-3.96,7.95-8.39,11.81
					c1.31-0.13,2.97-0.26,4.15-0.26h5.42v4.45h-17.18V1176.28z"/>
			</g>
		</g>
	</g>
	<g>
		<g>
			<g>
				<path class="st1" d="M476.12,956.42h5.48v-14.55h-5.48v-4.45h16.26v4.45h-5.48v14.55h5.48v4.45h-16.26V956.42z"/>
				<path class="st1" d="M497.9,956.6h6.16v-13.21h-5.07v-3.29c3.09-0.46,4.71-1.03,6.47-2.08h3.89v18.59h5.2v4.28H497.9V956.6z"/>
			</g>
		</g>
	</g>
	<path class="st3" d="M772.6,263.75c0,0-3.25-0.39-4.75,2.89s0.12,5.12,0.29,12.41c0.16,7.29,0.38,7.39,2.04,10.07
		s3.84,12.96,9.52,10.71"/>
	<path class="st3" d="M853.42,301.39c0,0,3.29,2.14,5.75,1.07c2.46-1.07,5.46-4.86,6.82-9.04c1.36-4.18,1.04-4.68,2.71-9.11
		c1.68-4.43,3.04-11.75-1.52-14.32"/>
	<path class="st3" d="M798.13,197.5c0.05-0.12,0.11-0.23,0.17-0.34c2.04-3.8,6.18-5.52,10.36-5.36c0.12,0,0.24,0.01,0.36,0.02
		c8.36,0.5,9.79,1.64,21,5.21c11.21,3.57,13.07,1.43,20.86,4.29c7.79,2.86,12.07,5.93,14.79,11.5s2.5,9,5.64,12.29
		c3.14,3.29,3,1.29,3.21,9.43c0.21,8.14,1.71,12.29-0.57,18.36c-2.29,6.07-4,4.29-5.14,10.36c-1.14,6.07-2.86,11-4.36,14.43
		c-1.5,3.43-2.79,5.29-3.29,9.71c-0.5,4.43-1.57,7.43-5,10.93c-3.43,3.5-3.21,3.86-4.29,8c-1.07,4.14-1.43,6.86-12.57,9
		c-11.14,2.14-16.79,0.57-19.21-1.07c-2.43-1.64-2.29-3-6.71-0.79c-4.43,2.21-5,1.93-10.43,1c-5.43-0.93-10.93,4.5-15.36-0.14
		c-4.43-4.64-7.71-11.36-8.21-17.36s0.14-3.93-1.5-7.36c-1.64-3.43-2.14-7.07-3.21-13.71c-1.07-6.64-2.07-10.07-2.14-14.57
		s-1-5.93-2.5-8.79c-1.5-2.86-1.43-4.07,1.14-6.93c2.57-2.86,1.93-4.57,0.29-8.71c-1.64-4.14-3.48-7.14-2.42-11.43
		c1.06-4.29,3.74-2.75,4.81-5.54c1.07-2.79-0.3-7.46,3.55-8.91c3.86-1.45,6.91-0.48,9-2.52c2.09-2.04,1.29-4.12,5.3-5.3
		c1.46-0.43,3.34-0.61,4.48-1.72C797.29,200.39,797.5,198.85,798.13,197.5z"/>
	<path class="st3" d="M840.52,335.46c0,0,1,13.18,16.96,20.36c15.96,7.18,29.04,10.79,39.89,17.07c10.86,6.29,9.29,8,24.71,15.71
		c15.43,7.71,28.14,21.29,34.86,37.29s0.57,17.57,4.71,41.71c4.14,24.14,5.29,28.86,5.86,52.29c0.57,23.43,1.86,21.14,4.29,33.29
		c2.43,12.14,11.29,30,11.57,55.14c0.29,25.14,1.14,42.86,0,62.86c-1.14,20,0.11,30.61-0.11,39.18s0.64,8.04-0.86,14.57
		c0,0-0.21,10.39,0.64,22.29c0.86,11.89,1.71,14.25-1.93,24c-3.64,9.75-7.61,21.75-14.36,23.46s-14.68-1.29-16.18-5.36
		s3.27-2.89,7.71-2.41c4.45,0.48,7.66-1.71,8.57-2.89c0.91-1.18,1.88-6.05,3.38-10.61c1.5-4.55,2.41-5.68,0.48-12.43
		s-5.36-9.96-6.32-16.71s-0.64-11.2-0.64-11.2"/>
	<path class="st3" d="M865.74,462.42c0,0,18.43,25.18,52.29,16.18"/>
	<path class="st3" d="M927.24,448.17c0,0-5,16.43-10.14,35.29c-5.14,18.86-2.86,34.14-9.14,46.86s-12.14,21.57-12.86,42
		c-0.71,20.43,2.57,38.29,0.71,48.43c0,0,2.43,12.86,1.14,21.29"/>
	<path class="st3" d="M964.3,743.43c0,0-4.42,7.17-11.92,11.17c0,0,5.93,6,7.86,10s-1.79,12.33-3.65,22.1"/>
	<path class="st3" d="M961.85,795.17c0,0-1.77,4.92-11.84,4.06c-3.48-0.3-10.04-1.34-9.55-6.16c0.06-0.57,0.24-1.14,0.61-1.59
		c1.15-1.37,3.24-0.98,4.75-0.64c1.84,0.41,3.66,0.82,5.32-0.35"/>
	<path class="st3" d="M950.6,789.32c0,0-1.77-0.32-4.55-1.39c-2.79-1.07-5.79,0-6.21,3.05s1.34,4.92,1.34,4.92"/>
	<path class="st3" d="M952.38,754.6c0,0-2,4.07-1.93,9.14c0.07,5.07,0.64,15-4.86,18.5s-6.71,1.36-5.5-9.79
		c1.21-11.14,1.93-14,2.5-21.57c0.57-7.57,2.29-15.64,5.07-20.07s9-9.36,9.43-15.14c0,0,2-16.21-5.43-35.21
		c-7.43-19-13.71-25.14-14.14-36.71c-0.43-11.57-2.43-30.57-4.86-44.71c-2.43-14.14-3.14-29.71-5.43-37.57
		c-2.29-7.86-6.43-14.29-8.29-27.86c-1.86-13.57-5.87-25.6-5.87-25.6"/>
	<path class="st3" d="M811.52,755.39c0,0,1.5-0.79,2.68,6.07c1.18,6.86-0.54,10.93,3.27,12.7c3.8,1.77,25.62,4.16,49.62,5.59
		c24,1.43,48.71,4.86,50.86,1.43c2.14-3.43,1.43-31-1.71-49.57s-8-39-10.29-57.86c-2.29-18.86-1.57-25-6.29-30
		s-23.29-5.14-45.57-4.86c-22.29,0.29-53.71,0.25-72-0.09c-18.29-0.34-51.43-3.06-55.14,4.37c-3.71,7.43-3.71,24.86-8,41.57
		c-4.29,16.71-9.71,31-13.57,54.29c-3.86,23.29-5.43,38.71-4.57,41.29c0.86,2.57,13.29,1.29,45.86-1.43c32.57-2.71,57-1.43,60-4
		s2.21-11.43,2.64-16.07C809.74,754.17,811.52,755.39,811.52,755.39z"/>
	<line class="st3" x1="847.73" y1="312.72" x2="847.73" y2="349.23"/>
	<line class="st3" x1="781.85" y1="305.79" x2="781.85" y2="342.03"/>
	<path class="st3" d="M786.52,333.6c0,0-2.29,10.86-18.57,21s-28.29,13.14-44.29,22.43c-16,9.29-15.57,9-28.14,14.29
		c-12.57,5.29-23,16.57-29,34.43s2.71,27.86,0,41.29c-2.71,13.43-4.71,17-6.29,42.71c-1.57,25.71-1.71,40.86-3,45.86
		s-5.86,9.43-8.29,27.14c-2.43,17.71-2.71,38.57-2.57,52.71c0.14,14.14,1.57,31.14,2.71,44.29c1.14,13.14,1.71,17.29,0.57,24.14
		c-1.14,6.86-2.29,6.68-0.25,11.71s1.39,7.61,0.96,14.04c-0.43,6.43-0.86,20.04,0.11,29.89c1.25,12.8,5.8,26.98,18.31,32.83
		c4.24,1.98,10.96,4.15,15.57,2.18c2.8-1.19,2.2-4.1,0.21-5.78c-1.19-1-2.85-1.93-4.41-2.13c-4.07-0.54-7.18-1.18-7.18-1.18
		s-2.79-2.89-5.89-7.5"/>
	<path class="st3" d="M674.38,739.6c0,0-1.29,18.86-15.32,25.61"/>
	<path class="st3" d="M703.65,781.55c0,0,0.09,38.84,3.52,62.41c3.43,23.57,9.43,53.36,10.07,75.86s-3.21,55.07-4.29,85.5
		s3.43,58.93,9.64,88.29c6.21,29.36,12.75,62.25,13.18,79.71c0.43,17.46-6.32,27.96-13.39,29.68c-7.07,1.71-8.04-0.75-10.82,2.68
		c-2.79,3.43-5.36,0.32-9.32,8.89s4.5,10.39,19.29,19.29c14.79,8.89,19.07,13.93,33.75,12.32c14.68-1.61,14.79-10.07,12.96-24.54
		s-2.79-22.07-1.5-28.61c1.29-6.54,3.75-6.54,0.96-17.25c-2.79-10.71-1.71-30.54-1.82-47.14c-0.11-16.61,1.29-44.79,3.16-57.43
		c1.87-12.64,5.84-25.18,5.94-42.54c0.11-17.36-1.5-39.75-2.36-49.29c-0.86-9.54-1.18-16.39,3.64-29.25
		c4.82-12.86,5.68-20.04,5.46-36.75s1.82-44.25,5.14-57.86c3.32-13.61,10.07-32.36,14.14-50.25c4.07-17.89,5.64-30.39,5.64-30.39"/>
	<path class="st3" d="M816.53,773.59c0,0,0.25,25.05,2.93,40.8s7.61,34.29,10.39,51.54c2.79,17.25,2.14,30.96,3,46.39
		c0.86,15.43,1.18,23.89,5.14,39.96c3.96,16.07,3.54,22.71,3.64,38.89c0.11,16.18-0.32,42.43,0.75,57.43
		c1.07,15,3.43,19.71,4.39,41.25c0.96,21.54,3.11,61.82,3,73.61c-0.11,11.79-2.14,11.14-1.18,24.11c0.96,12.96-0.75,16.29-3,29.89
		s-3.86,21.21,5.36,27.64c9.21,6.43,22.39,1.61,33.11-3c10.71-4.61,21.43-8.14,27.54-11.25c6.11-3.11,8.73-5.62,9.7-8.09
		s0.32-4.77-0.64-6.05c-0.96-1.29-1.55-1.88-1.77-3.32c-0.21-1.45-2.2-1.18-4.55-3.38c-2.36-2.2-2.46-1.82-4.61-2.25
		c-2.14-0.43-1.5-0.91-5.14-1.5c-3.64-0.59-7.93-1.39-9.32-1.5c-1.39-0.11-11.8-8.52-13.8-16.3c-2-7.79-0.07-37,3.21-55
		s10.29-53.71,13.14-74c2.86-20.29,2.86-49.43,1.57-67.57c-1.29-18.14-4.29-43.86-2.43-69c1.86-25.14,4.43-29.29,7.14-42.29
		c2.71-13,12.43-71.91,11.86-97.95"/>
	<path class="st3" d="M700.31,451.5c0,0,0.75,9,5.46,19.07c4.71,10.07,3.64,14.89,5.46,26.14s7.07,25.39,12.86,37.07
		c5.79,11.68,6.11,12.75,8.89,27.86c2.79,15.11,1.29,21,0.75,33.21s0.21,12.21-1.29,24.43s-2.07,21.23-2.07,21.23"/>
	<path class="st3" d="M673.74,775.96c0,0,2.9,7.77,6.09,10.63"/>
	<path class="st3" d="M683.64,794.82c0,0,10.86,7.49,20.37,5.85"/>
	<path class="st3" d="M672.71,747.74c0,0,3.45,8.86,9.1,12.72"/>
	<path class="st3" d="M703.66,783.71c0,0-6.3,2.61-10.1-6.61c-3.8-9.21-4.07-15.05-6.16-17.3l-6.16,1.18c0,0-2.08,27.91,22.42,32.84
		"/>
	<path class="st3" d="M712.32,502.1c0,0-0.11,18.4-2.26,34.58c-2.14,16.18-7.61,26.79-9.75,33.96c-2.14,7.18-2.89,14.79-3.64,30.32
		c-0.75,15.54-3.86,36.75-9.11,51.96s-6,13.29-9.54,28.07c-3.54,14.79-3.54,32.36,1.82,39.75c5.36,7.39,13.18,12.64,16.18,25.5
		c3,12.86,1.86,19.61,4.95,24.75"/>
	<path class="st3" d="M760.38,463.46c0,0-9.14,20.82-51.64,15.27"/>
	<path class="st3" d="M724.42,652.16c0,0,124.36-5.95,179.45,2.39"/>
	<line class="st2" x1="697.31" y1="395.78" x2="922.1" y2="395.78"/>
	<polygon class="st1" points="918.45,389.41 921.51,395.78 918.45,402.42 933.29,395.92 	"/>
	<polygon class="st1" points="701.02,402.21 686.17,395.78 700.67,389.92 697.67,395.57 	"/>
	<g>
		<g>
			<g>
				<path class="st1" d="M749.01,418.55c0-7.78,4.92-12.29,11.21-12.29c2.97,0,5.41,1.42,7,2.98l-2.92,3.28
					c-1.12-1.04-2.38-1.68-4.08-1.68c-3.33,0-5.76,2.83-5.76,7.53c0,4.82,2.43,7.62,5.97,7.62c1.69,0,3.09-0.83,4.23-2.07l2.92,3.21
					c-1.91,2.26-4.54,3.45-7.7,3.45C754.05,430.58,749.01,426.46,749.01,418.55z"/>
				<path class="st1" d="M770.74,427.11c6.55-5.5,10.96-9.37,10.96-12.67c0-2.21-1.38-3.42-3.77-3.42c-1.82,0-3.3,1.12-4.6,2.32
					l-2.84-2.86c2.37-2.4,4.67-3.62,8.17-3.62c4.81,0,8.08,2.88,8.08,7.29c0,3.85-3.96,7.95-8.39,11.81
					c1.31-0.13,2.97-0.26,4.15-0.26h5.42v4.45h-17.17V427.11z"/>
			</g>
		</g>
	</g>
	<g>
		<g>
			<line class="st4" x1="811.46" y1="350.48" x2="811.46" y2="354.98"/>
			<line class="st8" x1="811.46" y1="363.95" x2="811.46" y2="1166.46"/>
			<line class="st4" x1="811.46" y1="1170.94" x2="811.46" y2="1175.44"/>
			<g>
				<polygon class="st1" points="811.46,339.89 805.36,354.81 811.46,351.27 817.56,354.81 				"/>
			</g>
			<g>
				<polygon class="st1" points="811.46,1186.03 805.36,1171.11 811.46,1174.65 817.56,1171.11 				"/>
			</g>
		</g>
	</g>
	<line class="st2" x1="909.65" y1="1186.03" x2="742.75" y2="1186.03"/>
	<line class="st2" x1="909.65" y1="976.32" x2="741.15" y2="976.32"/>
	<line class="st2" x1="913.08" y1="638.25" x2="730.56" y2="638.25"/>
	<polygon class="st1" points="805.36,961.39 811.46,976.32 817.55,961.39 811.49,964.94 	"/>
	<polygon class="st1" points="805.36,624.03 811.46,638.96 817.55,624.03 811.49,627.58 	"/>
	<line class="st2" x1="786.6" y1="339.89" x2="836.32" y2="339.89"/>
	<g>
		<g>
			<g>
				<path class="st1" d="M921.04,626.57h5.37v9.57h0.13l6.91-9.57h5.9l-12.94,17.05v6.41h-5.37V626.57z M928.67,639.14l3.11-4.14
					l8.23,15.03h-5.89L928.67,639.14z"/>
				<path class="st1" d="M942.29,647c6.55-5.5,10.96-9.37,10.96-12.67c0-2.21-1.38-3.42-3.77-3.42c-1.82,0-3.3,1.12-4.6,2.32
					l-2.84-2.86c2.37-2.4,4.67-3.62,8.17-3.62c4.81,0,8.08,2.88,8.08,7.29c0,3.85-3.96,7.95-8.39,11.81
					c1.31-0.13,2.97-0.26,4.15-0.26h5.42v4.45h-17.17V647z"/>
				<path class="st1" d="M964.01,645.08c0-4,3.31-6.04,11.75-6.55c-0.19-1.6-1.39-2.57-3.79-2.57c-1.72,0-3.43,0.66-5.44,1.67
					l-1.89-3.47c2.48-1.41,5.32-2.42,8.36-2.42c5.02,0,8.06,2.61,8.06,8.08v10.21h-4.33l-0.38-2.01h-0.13
					c-1.8,1.36-4.04,2.44-6.33,2.44C966.27,650.46,964.01,648.08,964.01,645.08z M975.76,644.65v-2.93
					c-5.25,0.26-6.66,1.4-6.66,2.93c0,1.15,0.97,1.71,2.46,1.71C973.15,646.36,974.5,645.64,975.76,644.65z"/>
			</g>
		</g>
	</g>
	<g>
		<g>
			<g>
				<path class="st1" d="M918.75,963.15h5.37v9.57h0.13l6.91-9.57h5.9l-12.94,17.05v6.41h-5.37V963.15z M926.38,975.71l3.11-4.14
					l8.23,15.03h-5.89L926.38,975.71z"/>
				<path class="st1" d="M940,983.57c6.55-5.5,10.96-9.37,10.96-12.67c0-2.21-1.38-3.42-3.77-3.42c-1.82,0-3.3,1.12-4.6,2.32
					l-2.84-2.86c2.37-2.4,4.67-3.62,8.17-3.62c4.81,0,8.08,2.88,8.08,7.29c0,3.85-3.96,7.95-8.39,11.81
					c1.31-0.13,2.97-0.26,4.15-0.26h5.42v4.45H940V983.57z"/>
				<path class="st1" d="M966.83,984.66h-0.13l-0.44,1.94h-4.14v-25.21h5.3v6.15l-0.2,2.81h0.13c1.32-1.28,3.14-2.04,4.88-2.04
					c4.46,0,7.19,3.57,7.19,9.05c0,6.16-3.74,9.67-7.73,9.67C970.05,987.04,968.3,986.21,966.83,984.66z M974,977.45
					c0-3.2-1.05-4.8-3.3-4.8c-1.13,0-2.18,0.48-3.29,1.66v7.21c1,0.88,2.13,1.18,3.08,1.18C972.42,982.7,974,981.14,974,977.45z"/>
			</g>
		</g>
	</g>
	<g>
		<g>
			<g>
				<path class="st1" d="M918.75,1173.39h5.37v9.57h0.13l6.91-9.57h5.9l-12.94,17.05v6.41h-5.37V1173.39z M926.38,1185.96l3.11-4.14
					l8.23,15.03h-5.89L926.38,1185.96z"/>
				<path class="st1" d="M940,1193.81c6.55-5.5,10.96-9.37,10.96-12.67c0-2.21-1.38-3.42-3.77-3.42c-1.82,0-3.3,1.12-4.6,2.32
					l-2.84-2.86c2.37-2.4,4.67-3.62,8.17-3.62c4.81,0,8.08,2.88,8.08,7.29c0,3.85-3.96,7.95-8.39,11.81
					c1.31-0.13,2.97-0.26,4.15-0.26h5.42v4.45H940V1193.81z"/>
				<path class="st1" d="M961.93,1187.93c0-5.95,4.83-9.37,10.33-9.37c2.82,0,5.19,1,6.68,2.43l-2.44,3.28
					c-1.36-0.99-2.61-1.43-3.96-1.43c-3.07,0-5.19,2-5.19,5.1c0,3.09,2.09,5.07,5.02,5.07c1.87,0,3.41-0.82,4.7-1.7l2.14,3.35
					c-2.15,1.81-4.9,2.63-7.34,2.63C966.24,1197.28,961.93,1193.86,961.93,1187.93z"/>
			</g>
		</g>
	</g>
	<rect class="st9" width="1584.29" height="1440"/>
</g>
</svg>
