<?xml version="1.0" encoding="utf-8"?>
<!-- Generator: Adobe Illustrator 29.8.2, SVG Export Plug-In . SVG Version: 9.03 Build 0)  -->
<svg version="1.0" id="Layer_2" xmlns="http://www.w3.org/2000/svg" xmlns:xlink="http://www.w3.org/1999/xlink" x="0px" y="0px"
	 viewBox="0 0 1584.29 1440" style="enable-background:new 0 0 1584.29 1440;" xml:space="preserve">
<style type="text/css">
	.st0{fill:none;}
	.st1{fill:#C9C9C9;stroke:#000000;stroke-width:1.5;stroke-linecap:round;stroke-linejoin:round;stroke-miterlimit:10;}
	.st2{fill:none;stroke:#000000;stroke-width:1.5;stroke-linecap:round;stroke-linejoin:round;stroke-miterlimit:10;}
	.st3{fill:#C4B8A6;}
	.st4{fill:none;stroke:#C4B8A6;stroke-width:1.5;stroke-linejoin:round;}
	.st5{fill:none;stroke:#C4B8A6;stroke-width:1.5;stroke-linejoin:round;stroke-dasharray:8.9191,8.9191;}
	.st6{fill:none;stroke:#C4B8A6;stroke-width:1.5;stroke-linejoin:round;stroke-miterlimit:10;}
	.st7{fill:none;stroke:#C4B8A6;stroke-width:1.5;stroke-linejoin:round;stroke-dasharray:8.9542,8.9542;}
	.st8{fill:none;stroke:#C4B8A6;stroke-width:1.5;stroke-linecap:round;stroke-linejoin:round;stroke-miterlimit:10;}
	.st9{fill:none;stroke:#C4B8A6;stroke-width:1.5;stroke-linejoin:round;stroke-dasharray:9.0785,9.0785;}
	.st10{fill:none;stroke:#C4B8A6;stroke-miterlimit:10;}
	.st11{fill:none;stroke:#C4B8A6;stroke-width:0.75;stroke-linecap:round;stroke-linejoin:round;stroke-miterlimit:10;}
	.st12{fill:none;stroke:#C4B8A6;stroke-width:1.5;stroke-miterlimit:10;}
	.st13{fill:none;stroke:#C4B8A6;stroke-width:1.5;stroke-linejoin:round;stroke-dasharray:8.9163,8.9163;}
</style>
<rect class="st0" width="1584.29" height="1440"/>
<g>
	<path class="st1" d="M452.01,511.02c0,0.02-0.02,0.02-0.02,0.02c-2.09,2.71-4.91,5.23-8.68,7.6c-14.22,8.93-51.1,5.04-67.35-9.73
		c0,0,30.57-22.45,46.42-44.99c15.47-22.01,14.09-47.52,14.22-71.96v-1.78c0,0,4.57,0.61,7.62,2.94c0,0,0.02,0.76,0.06,2.09
		c0.23,6.92,1.12,29.48,3.62,44.46c2.83,16.86,6.47,29.14,8.36,42.3c0.11,0.8,0.23,1.59,0.32,2.41
		C457.87,494.71,457.77,503.53,452.01,511.02z"/>
	<path class="st1" d="M375.96,508.91c-16.08,14.77-52.28,18.66-66.34,9.73c-3.74-2.37-6.52-4.89-8.61-7.6c0,0-0.02,0-0.02-0.02
		c-5.69-7.51-5.8-16.31-4.51-26.64c0.09-0.82,0.21-1.61,0.32-2.41c1.86-13.16,5.48-25.45,8.25-42.3c2.48-14.98,3.38-37.56,3.6-44.46
		c0.04-1.33,0.06-2.09,0.06-2.09c3.01-2.33,7.53-2.94,7.53-2.94v1.78c0.13,24.44-1.21,49.94,14.07,71.96
		C345.98,486.46,375.96,508.91,375.96,508.91z"/>
	<path class="st1" d="M468.94,678.9c-0.02,0.38-0.49,0.72-1.46,1.14c-2.45,1.12-7.93,2.92-16.23,8.17
		c-11.53,7.3-28.27,17.86-43.4,31.38c-15.13,13.5-25.2,27.47-26.11,28.23c-0.78,0.66-4.57,0.49-5.65,0.44
		c-1.1,0.06-4.82,0.21-5.57-0.44c-0.91-0.76-10.86-14.73-25.84-28.23c-14.96-13.52-31.51-24.08-42.95-31.38
		c-8.21-5.27-13.63-7.05-16.06-8.17c-0.95-0.42-1.42-0.76-1.44-1.14c-0.04-1.37,6.3-21.67,6.84-22.85c0.55-1.18,2.65-0.4,8.08,1.73
		c4.76,1.86,40.27,10.45,70.97,12.44c2.28,0.15,4.55,0.21,6.83,0.19c1.71-0.02,3.43-0.08,5.14-0.19
		c31.02-1.99,66.99-10.56,71.79-12.44c5.48-2.12,7.62-2.9,8.17-1.73C462.59,657.23,469,677.53,468.94,678.9z"/>
</g>
<g>
	<path class="st2" d="M403.35,351.37c0,0,17.61,5.96,31.83-1.08c0,0-13.41,0.95-10.16-12.19c3.25-13.14,9.07-18.83,13.81-39.14
		c4.74-20.32,5.15-25.19,3.93-32.91s-1.49-9.89-0.14-16.93c1.35-7.04,0-20.18-5.82-26.82c-5.82-6.64-7.95-5.42-13.45-11.78
		c-5.51-6.37-15.39-9.89-27.45-11.24"/>
	<path class="st2" d="M348.97,351.56c0,0-13.24,9.56-34.27-2.83c0,0,11.17,1.63,10.77-11.17s-5.49-23.77-8.74-30.17
		c-3.25-6.4-5.99-17.37-5.49-31.39c0.51-14.02,2.84-32.71,11.38-46.66c8.53-13.95,12.7-17.44,15.34-18.86
		c2.64-1.42,3.35-2.34,1.93-3.76c-1.42-1.42,11.78-3.86,15.03-5.49c3.25-1.63,0.91-3.45,9.95-4.98c9.04-1.52,21.84-1.52,27.63,0
		c5.79,1.52,3.35,9.45,1.12,18.39c-2.23,8.94-4.77,21.33,1.83,28.95"/>
	<path class="st2" d="M444.27,395.2c1.02,0.38,2.03,0.72,2.96,1c12.99,4.06,29.26,4.74,38.59,17.6c9.35,12.87,4.74,35.76,5.56,67.73
		c0.82,31.95-1.02,53.62,0.44,83.14c1.46,29.52,12.31,53.91,13.12,82.08c0.8,28.18,0.13,44.9-0.28,62.97
		c-0.4,18.09,3.36,14.03,3.45,22.96c0.11,8.93-1.31,9.95,2.75,23.45c4.06,13.52,10.47,32.61,1.12,47.44"/>
	<path class="st2" d="M436.59,391.96c-12.38-5.86-26.68-15.61-29.86-25.83c-1.29-4.13-2.37-9.4-3.22-14.71
		c-1.95-11.87-2.86-23.93-2.86-23.93"/>
	<path class="st2" d="M513.79,792.08c0,0-0.61,9.82-3.32,15.44c-2.71,5.62-13.81,13.68-18.15,17.54"/>
	<path class="st2" d="M504.45,795.53c0,0-1.24,10.82-5.08,18.83c-3.84,8.01-7.62,12.8-12.49,14.63c-4.88,1.83-4.16-5.38,1.42-10.77
		s7.01-8.63,7.72-16.86s-2.84-23.16-2.84-23.16s-5.08,7.21-4.57,13.41c0.51,6.2,3.76,9.14,2.23,14.53
		c-1.52,5.38-4.27,4.16-7.21-3.15c-2.94-7.31-5.99-13.51-3.35-25.6c2.64-12.09,6.6-20.38,7.11-32.84
		c0.51-12.46-2.78-32.37-7.25-51.06c-4.47-18.69-12.46-46.05-15.03-57.29c-2.57-11.24-6.5-32.5-7.86-46.18
		c-1.35-13.68-4.74-65.14-3.52-81.26"/>
	<path class="st2" d="M460.36,464.93c0,0-3.35,9.51-4.11,17.04"/>
	<path class="st2" d="M451.99,511.04c-0.23,1.55-4.93,32.54-8.29,64.2c-3.45,32.52,1.37,38.81,8.3,58.31
		c6.94,19.51,7.94,22.05,7.94,22.05"/>
	<path class="st2" d="M467.47,680.01c0,0,7.25,27.97,6.3,54.92c-0.95,26.95-9.75,75.84-14.36,96.7s-10.56,36.57-13.68,50.79
		c-3.12,14.22-7.99,31.42-2.71,55.26c5.28,23.84,4.47,50.38,3.79,59.73c-0.68,9.35-5.55,38.19-10.29,52.68
		c-4.74,14.49-12.46,47-18.28,67.45s-10.7,46.05-11.92,56.61c-1.22,10.56,1.63,12.29,2.95,16.96c1.32,4.67-2.64,10.77,1.22,16.35
		c3.86,5.59,15.24,13.41,21.13,18.18s6.86,8.74,4.67,10.97c-2.18,2.23-4.76,0.21-4.76,0.21"/>
	<path class="st2" d="M422.02,1240.27c1.57,2.76,6.72,1.5,8.35-0.47c2.66-3.23-0.06-7.33-1.85-10.24"/>
	<path class="st2" d="M418.67,1232.3c0,0,2.54,3.05,3.35,5.74c0.81,2.69-2.08,6.5-6.25,5.03c-4.16-1.47-7.42-8.02-7.42-8.02"/>
	<path class="st2" d="M399.42,1228.29c0,0,1.22,10.92,4.11,14.37c2.89,3.45,9.62-1.2,9.62-1.2"/>
	<path class="st2" d="M380.63,748.23c0,0,0.51,77.84-0.3,113.06s1.42,57.49,3.25,70.9s4.27,21.13,1.83,41.24s-4.06,21.33-4.27,44.29
		c-0.2,22.96,2.03,66.03,1.02,99.14c-1.02,33.11-1.93,50.28-2.74,60.34s0,16.96,1.42,28.85c1.42,11.88-0.81,32.1,3.86,35.76
		c4.67,3.66,15.34,4.19,17.57-1.31"/>
	<g>
		<path d="M434.26,928.13c0.49,7.28-4.77,13.93-11.26,16.76c-4.14,1.94-8.83,2.66-13.36,2.82c-1.66-0.06-3.3-0.07-4.94-0.18
			c1.64-0.23,3.27-0.37,4.89-0.55C420.75,945.65,432.64,940.62,434.26,928.13L434.26,928.13z"/>
	</g>
	<g>
		<path d="M387.36,1235.7c2.9-2.24,7.43-2.57,10.46-0.41C394.21,1235.22,391.02,1235.47,387.36,1235.7L387.36,1235.7z"/>
	</g>
	<path class="st2" d="M241.67,803.59c-9.25-14.83-2.92-33.92,1.1-47.44c4.02-13.5,2.62-14.52,2.71-23.45
		c0.09-8.93,3.81-4.87,3.41-22.96c-0.4-18.07-1.06-34.79-0.27-62.97c0.82-28.18,11.53-52.56,12.97-82.08
		c1.46-29.52-0.38-51.2,0.44-83.14c0.8-31.97-3.75-54.85,5.5-67.73c9.23-12.86,25.31-13.54,38.19-17.6c0.93-0.28,1.9-0.63,2.92-1"/>
	<path class="st2" d="M316.23,391.96c12.23-5.86,26.39-15.61,29.56-25.83c1.27-4.1,2.33-9.31,3.19-14.58
		c1.93-11.91,2.84-24.06,2.84-24.06"/>
	<path class="st2" d="M239.86,792.08c0,0,0.6,9.82,3.28,15.44c2.68,5.62,13.67,13.68,17.96,17.54"/>
	<path class="st2" d="M249.1,795.53c0,0,1.23,10.82,5.02,18.83c3.8,8.01,7.54,12.8,12.36,14.63c4.82,1.83,4.12-5.38-1.41-10.77
		s-6.93-8.63-7.64-16.86s2.81-23.16,2.81-23.16s5.02,7.21,4.52,13.41s-3.72,9.14-2.21,14.53c1.51,5.38,4.23,4.16,7.14-3.15
		s5.93-13.51,3.31-25.6s-6.53-20.38-7.03-32.84c-0.5-12.46,2.75-32.37,7.17-51.06c4.42-18.69,12.33-46.05,14.87-57.29
		c2.55-11.24,6.43-32.5,7.77-46.18c1.34-13.68,4.69-65.14,3.48-81.26"/>
	<path class="st2" d="M292.72,464.93c0,0,3.32,9.51,4.07,17.04"/>
	<path class="st2" d="M301,511.04c0.23,1.55,4.87,32.54,8.19,64.2c3.43,32.52-1.35,38.81-8.21,58.31
		c-6.86,19.51-7.87,22.05-7.87,22.05"/>
	<path class="st2" d="M285.69,680.01c0,0-7.17,27.97-6.23,54.92c0.94,26.95,9.65,75.84,14.2,96.7
		c4.56,20.86,10.45,36.57,13.53,50.79s7.91,31.42,2.68,55.26c-5.23,23.84-6.58,50.44-5.91,59.79c0.67,9.35,7.65,38.13,12.34,52.62
		s12.33,47,18.09,67.45c5.76,20.45,10.59,46.05,11.79,56.61c1.21,10.56-1.61,12.29-2.91,16.96c-1.31,4.67,2.61,10.77-1.21,16.35
		c-3.82,5.59-15.07,13.41-20.9,18.18c-5.83,4.77-6.78,8.74-4.62,10.97s4.71,0.21,4.71,0.21"/>
	<path class="st2" d="M330.66,1240.27c-1.55,2.76-6.65,1.5-8.26-0.47c-2.63-3.23,0.06-7.33,1.83-10.24"/>
	<path class="st2" d="M333.98,1232.3c0,0-2.51,3.05-3.32,5.74c-0.8,2.69,2.06,6.5,6.18,5.03c4.12-1.47,7.34-8.02,7.34-8.02"/>
	<path class="st2" d="M353.02,1228.29c0,0-1.21,10.92-4.07,14.37s-9.52-1.2-9.52-1.2"/>
	<path class="st2" d="M371.61,748.23c0,0-0.5,77.84,0.3,113.06s-1.41,57.49-3.22,70.9c-1.81,13.41-4.22,21.13-1.81,41.24
		c2.41,20.11,4.02,21.33,4.22,44.29c0.2,22.96-2.01,66.03-1,99.14c1,33.11,1.91,50.28,2.71,60.34c0.8,10.06,0,16.96-1.41,28.85
		c-1.41,11.88,0.8,32.1-3.82,35.76c-4.62,3.66-15.18,4.19-17.39-1.31"/>
	<g>
		<path d="M320.14,929.64c3.4,5.54,8.44,9.89,14.25,12.67c3.26,1.56,6.79,2.49,10.34,3.14c0,0,1.2,0.13,1.2,0.13
			c2.36,0.37,4.94,0.41,7.32,0.55c-2.36,0.31-5.01,0.57-7.4,0.42C335.09,946.28,324.16,939.85,320.14,929.64L320.14,929.64z"/>
	</g>
	<g>
		<path d="M364.95,1235.7c-3.62-0.24-6.77-0.49-10.35-0.41C357.58,1233.14,362.09,1233.46,364.95,1235.7L364.95,1235.7z"/>
	</g>
	<path class="st2" d="M391.56,245.19c0,0,5.15-3.05,11.11-1.02c5.96,2.03,13.34,2.84,15.71,12.87s1.76,24.18-0.14,34.4
		c-3.22,17.34-13.79,35.72-28.25,46c-15.73,11.18-31.69-2.05-41.01-14.89c-11.08-15.26-15.03-33.6-16.69-52.07
		c-0.38-4.22-0.61-9.12,2.56-12.41c3.67-3.82,10.22-4.51,15.14-5.16C362.98,251.19,380.45,253.52,391.56,245.19z"/>
	<path class="st2" d="M335.87,293.16c0,0-2.3,21.29,7.61,20.55"/>
	<path class="st2" d="M419.09,285.9c0,0,6.82,24.53-7.09,24.38"/>
	<path class="st2" d="M366.05,320.08c0,0,1.63,5.49,5.38,6.4c3.76,0.91,4.37-0.91,8.63-0.25c4.27,0.66,6.96-2.84,8.43-6.6
		c0,0-4.22-4.01-5.64-4.32c-1.42-0.3-3.87,1.07-6.86,0S366.05,320.08,366.05,320.08z"/>
	<path class="st2" d="M385.43,304.1c0,0,0.27,2.98-2.47,3.18c-2.74,0.2-3.52,1.29-4.47,2.27c-0.95,0.98-2.07,0.03-3.69-1.08
		s-5.35-0.37-5.49-3.15c-0.14-2.78,2.27-2.76,2.88-8.45c0.61-5.69,0.1-10.72,0.1-10.72"/>
	<g>
		<path d="M388.69,271.14c5.8-5.58,14.59-6.14,21.9-3.67c-1.85-0.41-3.72-0.81-5.61-0.87c-5.47-0.34-11.41,1.46-15.15,5.53
			C389.17,272.95,387.96,271.92,388.69,271.14L388.69,271.14z"/>
	</g>
	<path class="st2" d="M366.05,320.08c0,0,6.5,0.34,9.95,0s4.19-1,6.63,0.08c2.44,1.08,5.87-0.53,5.87-0.53"/>
	<path class="st2" d="M408.76,279.12c0,0-11.99-5.96-20.79,3.66C387.97,282.77,399.52,289.85,408.76,279.12z"/>
	<g>
		<path d="M391.39,276.5c5.03-4.72,14.12-4.98,17.37,1.89C403.71,273.28,397.56,273.97,391.39,276.5L391.39,276.5z"/>
	</g>
	<path class="st2" d="M403.84,277.61c0,0,1.11,1.7,0.96,5.02"/>
	<path class="st2" d="M392.25,279.34c0,0-0.72,2.67,0.78,5.33"/>
	<path class="st2" d="M393.93,278.52c0,0-0.01,2.79,2.39,3.67c2.9,1.07,5.81-1.01,4.62-4.77"/>
	<g>
		<path d="M363.97,272.19c-4.96-4.28-12.31-4.92-18.46-3.13c-0.91,0.27-1.8,0.6-2.71,0.9c0.88-0.36,1.75-0.75,2.65-1.08
			c4.54-1.61,9.58-2.01,14.23-0.51c0.96,0.31,6.54,2.37,5.43,3.76C364.83,272.5,364.29,272.52,363.97,272.19L363.97,272.19z"/>
	</g>
	<path class="st2" d="M343.38,279.79c0,0,11.99-5.96,20.79,3.66C364.17,283.45,352.63,290.53,343.38,279.79z"/>
	<g>
		<path d="M360.75,277.18c-6.17-2.54-12.32-3.22-17.37,1.89C346.64,272.19,355.72,272.46,360.75,277.18L360.75,277.18z"/>
	</g>
	<path class="st2" d="M348.31,278.29c0,0-1.11,1.7-0.96,5.02"/>
	<path class="st2" d="M359.9,280.02c0,0,0.72,2.67-0.78,5.33"/>
	<path class="st2" d="M358.22,279.2c0,0,0.01,2.79-2.39,3.67c-2.9,1.07-5.81-1.01-4.62-4.77"/>
	<g>
		<path d="M370.72,626.14c3.26,1.95,6.71,3.1,9.95,0.9c0.46-0.27,0.87-0.62,1.38-0.9c-0.25,0.5-0.54,1-0.89,1.45
			C378.33,631.23,372.77,629.88,370.72,626.14L370.72,626.14z"/>
	</g>
</g>
<polygon class="st3" points="462.52,411.6 466.19,405.21 462.89,398.97 478.29,405.13 "/>
<g>
	<g>
		<g>
			<path class="st3" d="M455.29,247.67h6.36l7.31,23.46h-5.63l-3.03-11.88c-0.59-2.34-1.31-5.09-1.87-7.57h-0.14
				c-0.57,2.48-1.23,5.22-1.82,7.57l-3.05,11.88h-5.43L455.29,247.67z M452.82,261.41h11.22v4.14h-11.22V261.41z"/>
		</g>
	</g>
</g>
<g>
	<g>
		<g>
			<path class="st3" d="M437.54,352.86h7.89c4.88,0,8.59,1.33,8.59,5.81c0,2.11-1.25,4.35-4.01,5.07v0.14
				c3.35,0.62,5.11,2.39,5.11,5.52c0,4.77-3.91,6.91-9.02,6.91h-8.56V352.86z M445.18,362.28c2.58,0,3.65-1.09,3.65-2.86
				c0-1.75-1.15-2.43-3.61-2.43h-2.39v5.29H445.18z M445.67,372.19c2.89,0,4.27-1.05,4.27-3.19c0-2.06-1.35-2.91-4.27-2.91h-2.83
				v6.09H445.67z"/>
		</g>
	</g>
</g>
<g>
	<g>
		<g>
			<path class="st3" d="M495.5,403.02c0-7.78,4.92-12.29,11.21-12.29c2.97,0,5.41,1.42,7,2.98l-2.92,3.28
				c-1.12-1.04-2.38-1.68-4.08-1.68c-3.33,0-5.76,2.83-5.76,7.53c0,4.82,2.43,7.62,5.97,7.62c1.69,0,3.09-0.83,4.23-2.07l2.92,3.21
				c-1.91,2.26-4.54,3.45-7.7,3.45C500.53,415.05,495.5,410.93,495.5,403.02z"/>
			<path class="st3" d="M517.99,410.34h6.16v-13.21h-5.07v-3.29c3.09-0.46,4.71-1.03,6.47-2.08h3.89v18.59h5.2v4.28h-16.65V410.34z"
				/>
		</g>
	</g>
</g>
<g>
	<g>
		<g>
			<path class="st3" d="M367,518.49h6.48c6.81,0,11.28,3.56,11.28,11.62c0,8.07-4.47,11.84-10.98,11.84H367V518.49z M373.19,537.67
				c3.65,0,6.13-1.95,6.13-7.56c0-5.6-2.48-7.35-6.13-7.35h-0.88v14.91H373.19z"/>
		</g>
	</g>
</g>
<g>
	<g>
		<g>
			<path class="st3" d="M372.48,577.42h15.55v4.45h-10.24v4.7h8.7v4.45h-8.7v5.4h10.6v4.45h-15.91V577.42z"/>
		</g>
	</g>
</g>
<g>
	<g>
		<g>
			<path class="st3" d="M365.25,638.16h15.6v4.45h-10.29v5.44h8.78v4.45h-8.78v9.12h-5.31V638.16z"/>
			<path class="st3" d="M385.92,657.34h6.16v-13.21H387v-3.29c3.09-0.46,4.71-1.03,6.47-2.08h3.89v18.59h5.2v4.28h-16.65V657.34z"/>
		</g>
	</g>
</g>
<g>
	<g>
		<g>
			<path class="st3" d="M389.32,746.52h15.6v4.45h-10.29v5.44h8.78v4.45h-8.78v9.12h-5.31V746.52z"/>
			<path class="st3" d="M409.23,766.94c6.55-5.5,10.96-9.38,10.96-12.67c0-2.21-1.38-3.42-3.77-3.42c-1.82,0-3.3,1.12-4.6,2.32
				l-2.84-2.86c2.37-2.4,4.67-3.62,8.17-3.62c4.81,0,8.08,2.88,8.08,7.29c0,3.85-3.96,7.95-8.39,11.81
				c1.31-0.13,2.97-0.26,4.15-0.26h5.42v4.45h-17.17V766.94z"/>
		</g>
	</g>
</g>
<g>
	<g>
		<g>
			<path class="st3" d="M326.17,828.73c0-7.84,4.77-12.29,10.86-12.29c3.16,0,5.37,1.45,6.85,2.98l-2.92,3.28
				c-1.01-1.01-2.08-1.68-3.93-1.68c-3.08,0-5.39,2.83-5.39,7.53c0,4.82,1.9,7.62,5.6,7.62c0.88,0,1.77-0.24,2.28-0.69v-4.05h-3.41
				v-4.33h8.16v10.82c-1.55,1.46-4.33,2.84-7.34,2.84C330.94,840.76,326.17,836.64,326.17,828.73z"/>
		</g>
	</g>
</g>
<g>
	<g>
		<g>
			<path class="st3" d="M329.01,1016.5h5.32v9.03h6.36v-9.03h5.32v23.46h-5.32v-9.79h-6.36v9.79h-5.32V1016.5z"/>
		</g>
	</g>
</g>
<g>
	<g>
		<line class="st4" x1="437.46" y1="654.73" x2="437.46" y2="659.23"/>
		<line class="st5" x1="437.46" y1="668.15" x2="437.46" y2="1163.16"/>
		<line class="st4" x1="437.46" y1="1167.62" x2="437.46" y2="1172.12"/>
		<g>
			<polygon class="st3" points="437.46,644.14 431.36,659.07 437.46,655.53 443.55,659.07 			"/>
		</g>
		<g>
			<polygon class="st3" points="437.46,1182.71 431.36,1167.79 437.46,1171.33 443.55,1167.79 			"/>
		</g>
	</g>
</g>
<line class="st6" x1="498.96" y1="1182.71" x2="429.77" y2="1182.71"/>
<line class="st6" x1="498.96" y1="960.14" x2="429.77" y2="960.14"/>
<g>
	<g>
		<line class="st4" x1="317.79" y1="402.02" x2="317.79" y2="406.52"/>
		<line class="st7" x1="317.79" y1="415.47" x2="317.79" y2="1163.15"/>
		<line class="st4" x1="317.79" y1="1167.62" x2="317.79" y2="1172.12"/>
		<g>
			<polygon class="st3" points="317.79,391.43 311.69,406.35 317.79,402.81 323.88,406.35 			"/>
		</g>
		<g>
			<polygon class="st3" points="317.79,1182.71 311.69,1167.79 317.79,1171.33 323.88,1167.79 			"/>
		</g>
	</g>
</g>
<line class="st6" x1="323.33" y1="1182.71" x2="254.14" y2="1182.71"/>
<g>
	<g>
		<g>
			<path class="st3" d="M192.29,1167.21h5.37v9.57h0.13l6.91-9.57h5.9l-12.94,17.05v6.41h-5.37V1167.21z M199.92,1179.78l3.11-4.14
				l8.23,15.03h-5.89L199.92,1179.78z"/>
			<path class="st3" d="M214.31,1186.39h6.16v-13.21h-5.07v-3.29c3.09-0.46,4.71-1.03,6.47-2.08h3.89v18.59h5.2v4.28h-16.65V1186.39
				z"/>
			<path class="st3" d="M235.48,1181.75c0-5.95,4.83-9.37,10.33-9.37c2.82,0,5.19,1,6.68,2.43l-2.44,3.28
				c-1.36-0.99-2.61-1.43-3.96-1.43c-3.07,0-5.19,2-5.19,5.09c0,3.09,2.09,5.08,5.02,5.08c1.87,0,3.41-0.82,4.7-1.7l2.14,3.35
				c-2.15,1.81-4.9,2.63-7.34,2.63C239.79,1191.1,235.48,1187.67,235.48,1181.75z"/>
		</g>
	</g>
</g>
<line class="st6" x1="323.33" y1="957.19" x2="254.14" y2="957.19"/>
<g>
	<g>
		<g>
			<path class="st3" d="M192.29,943.07h5.37v9.57h0.13l6.91-9.57h5.9l-12.94,17.05v6.41h-5.37V943.07z M199.92,955.63l3.11-4.14
				l8.23,15.03h-5.89L199.92,955.63z"/>
			<path class="st3" d="M214.31,962.25h6.16v-13.21h-5.07v-3.29c3.09-0.46,4.71-1.03,6.47-2.08h3.89v18.59h5.2v4.28h-16.65V962.25z"
				/>
			<path class="st3" d="M240.38,964.58h-0.13l-0.44,1.94h-4.14v-25.21h5.3v6.15l-0.2,2.81h0.13c1.32-1.28,3.14-2.04,4.88-2.04
				c4.46,0,7.19,3.57,7.19,9.05c0,6.16-3.74,9.67-7.73,9.67C243.59,966.96,241.84,966.13,240.38,964.58z M247.55,957.37
				c0-3.2-1.05-4.8-3.29-4.8c-1.13,0-2.18,0.48-3.29,1.66v7.2c1,0.88,2.13,1.19,3.08,1.19
				C245.97,962.62,247.55,961.06,247.55,957.37z"/>
		</g>
	</g>
</g>
<line class="st6" x1="323.33" y1="701.62" x2="242.57" y2="701.62"/>
<g>
	<g>
		<g>
			<path class="st3" d="M168.49,686.59h5.37v9.57h0.13l6.91-9.57h5.9l-12.94,17.05v6.41h-5.37V686.59z M176.12,699.16l3.11-4.14
				l8.23,15.03h-5.89L176.12,699.16z"/>
			<path class="st3" d="M190.5,705.77h6.16v-13.21h-5.07v-3.29c3.09-0.46,4.71-1.03,6.47-2.08h3.89v18.59h5.2v4.28H190.5V705.77z"/>
			<path class="st3" d="M211.46,705.1c0-4,3.31-6.04,11.75-6.55c-0.19-1.6-1.39-2.57-3.79-2.57c-1.72,0-3.43,0.66-5.44,1.67
				l-1.89-3.47c2.48-1.41,5.32-2.42,8.36-2.42c5.02,0,8.06,2.61,8.06,8.08v10.21h-4.33l-0.38-2.01h-0.13
				c-1.8,1.36-4.04,2.44-6.33,2.44C213.72,710.48,211.46,708.1,211.46,705.1z M223.21,704.67v-2.92c-5.25,0.26-6.66,1.4-6.66,2.93
				c0,1.15,0.97,1.71,2.46,1.71C220.6,706.38,221.95,705.65,223.21,704.67z"/>
		</g>
	</g>
</g>
<g>
	<g>
		<g>
			<path class="st3" d="M504.39,1189.55h5.48v-14.55h-5.48v-4.45h16.26v4.45h-5.48v14.55h5.48v4.45h-16.26V1189.55z"/>
			<path class="st3" d="M525.4,1190.96c6.55-5.5,10.96-9.38,10.96-12.67c0-2.21-1.38-3.42-3.77-3.42c-1.82,0-3.3,1.12-4.6,2.32
				l-2.84-2.86c2.37-2.4,4.67-3.62,8.17-3.62c4.82,0,8.08,2.88,8.08,7.29c0,3.85-3.96,7.95-8.39,11.81
				c1.31-0.13,2.97-0.26,4.15-0.26h5.42v4.45H525.4V1190.96z"/>
		</g>
	</g>
</g>
<g>
	<g>
		<g>
			<path class="st3" d="M506.9,971.1h5.48v-14.55h-5.48v-4.45h16.26v4.45h-5.48v14.55h5.48v4.45H506.9V971.1z"/>
			<path class="st3" d="M528.68,971.28h6.16v-13.21h-5.07v-3.29c3.09-0.46,4.71-1.03,6.47-2.08h3.89v18.59h5.2v4.28h-16.65V971.28z"
				/>
		</g>
	</g>
</g>
<g>
	<path class="st8" d="M473.37,717.28c-96.79,30.95-193.58,0.91-193.58,0.91"/>
	<path class="st8" d="M463.14,659.43c-92.43,35.43-173.3,0.25-173.3,0.25"/>
	<path class="st8" d="M442.65,598.15c-81.26,22.17-132.32,0.28-132.32,0.28"/>
	<g>
		<path class="st8" d="M312.71,262.75c0,0,65.43,21.25,129.55,0"/>
		<polygon class="st3" points="383.8,277.97 380.13,271.58 383.43,265.34 368.03,271.5 		"/>
		<polygon class="st3" points="381.96,375.52 378.29,369.13 381.59,362.89 366.18,369.05 		"/>
		<polygon class="st3" points="290.21,411.6 286.54,405.21 289.83,398.97 274.43,405.13 		"/>
		<polygon class="st3" points="352.27,514.78 349.2,508.08 353.06,502.17 337.15,506.89 		"/>
		<polygon class="st3" points="364.84,613.51 361.17,607.12 364.46,600.88 349.06,607.04 		"/>
		<polygon class="st3" points="353.39,679.16 349.72,672.77 353.02,666.53 337.61,672.69 		"/>
		<path class="st8" d="M346.59,363.29c0,0,26.69,14.46,59.22-0.4"/>
		<line class="st8" x1="286.71" y1="405.29" x2="465.71" y2="405.29"/>
		<path class="st8" d="M371.46,797.57c0,0-48.17,17-84.61-1.9"/>
		<path class="st8" d="M369.9,995.11c0,0-27.26,13.92-66.04,0.54"/>
		<polygon class="st3" points="355.08,735.95 351.42,729.56 354.71,723.32 339.31,729.48 		"/>
		<polygon class="st3" points="333.14,810.64 329.47,804.25 332.76,798.01 317.36,804.17 		"/>
		<polygon class="st3" points="342.49,1007.48 338.82,1001.09 342.11,994.84 326.71,1001.01 		"/>
	</g>
	<path class="st8" d="M456.25,496.86c-91.68,28.64-160.04-0.04-160.04-0.04"/>
</g>
<g>
	<path class="st1" d="M1336.57,523.44c0,0-7.51,0.21-17.98-2.24c-8.61-1.99-23.63-4.36-28.65-5.14c0.08-0.93,0.17-1.82,0.25-2.71
		c0.3-3.28,0.61-6.85,0.95-10.52c4.99-0.95,20.95-5.29,25.09-23.06c4.91-21.14-6.07-40.84-14.79-51.2
		c-8.74-10.37-11.73-15.07-22.13-23.57c-7.09-5.79-30.02-9.72-41.26,6.9c-11.29,16.7-8.8,58.78-3.66,94.54l9.78-0.95
		c0.08,2.46,0.17,4.97,0.25,7.45v0.3c-2.65,0.36-9.16,1.23-15.24,1.74c-0.49,0.04-1.01,0.08-1.5,0.11l-1.61-6.9l1.14-0.19l3.02-0.53
		c0,0-4.97-33.62-4.15-62.06c0.82-28.44,10.43-50.17,33.75-51.2c23.32-1.02,28.82,12.19,48.12,33.52
		c19.28,21.33,37.39,33.3,43.52,40.73c0.53,0.8,1.01,1.57,1.44,2.33C1362.77,487.75,1358.1,513.9,1336.57,523.44z"/>
	<path class="st1" d="M1266.9,675.13c-6.6,1.31-41.52,10.16-44.54,52.47c-2.41-6.54-4.21-13.82-4.74-22.22
		c-1.12-17.79,1.02-32.2,3.75-42.57c2.75-10.35,3.96-13.5,9.56-12.5c4.78,0.87,22.79,2.81,27.85,3.34
		c1.84,5.78,3.64,11.02,5.25,14.79C1264.74,670.06,1265.73,672.38,1266.9,675.13z"/>
	<path class="st1" d="M1337.99,686.03c-3.38,13.27-3.55,12.53-4.87,22.39c-1.31,9.84-2.94,13.5-2.94,13.5
		c-12.1-37.58-31.53-40.18-31.53-40.18c-1.48-6.56-3.05-14.58-4.61-22.75c0,0,16.06,4.42,32.58,8.89
		c8.29,2.24,11.98,3.45,13.16,5.78C1340.96,675.98,1339.67,679.41,1337.99,686.03z"/>
</g>
<g>
	<path class="st2" d="M1207.97,367.32c0,0,35.08,2.74,40.5-16.62c0,0,17.81,32.98,60.88,10.83c0,0-14.63-6.3-15.03-33.11
		c-0.41-26.82,3.15-33.72,7.21-42.15c4.06-8.43,4.16-14.22,5.49-19.1c1.32-4.88,4.37-4.06,8.02-9.14
		c3.66-5.08,11.07-13.21,11.58-16.76c0.51-3.56-0.47-18.49-3.18-25.26c-2.71-6.77-7.38-5.96-13.75-10.36
		c-6.37-4.4-5.28-5.35-13.14-7.31c-7.86-1.96-16.66-3.18-23.36-2.78c-6.7,0.41-13,0.61-21.13,1.22s-26.21,4.88-33.93,23.77
		c0,0-8.33,18.69-7.11,45.1c1.22,26.41,11.38,46.12,11.99,63.38S1216.51,364.78,1207.97,367.32z"/>
	<path class="st2" d="M1324.27,245.96c0,0,5.09,8.41,6.31,18.16c1.22,9.75-2.23,14.02,1.22,19.6c3.45,5.59,7.52,10.46,6.91,15.24
		s-9.95,4.27-9.85-0.61"/>
	<path class="st2" d="M1294.41,331.2c0,0,8.71,11.57,19.27,11.44c10.56-0.14,14.25-8.23,14.36-19.81"/>
	<path class="st2" d="M1316.97,316.22c0,0,4.3,6.5,9.38,6.97s5.01-3.52,4-6.16c-1.02-2.64,1.15-4.27-1.69-5.08
		C1325.8,311.15,1323.03,315.07,1316.97,316.22z"/>
	<path class="st2" d="M1332.09,302.03c0,0-3.1,2.12-2.76,10.19"/>
	<path class="st2" d="M1316.97,316.22c0,0,3.83,1.22,7.69,0.48c3.86-0.74,4.03-0.99,5.45-0.48"/>
	<path class="st2" d="M1305.26,363.5c0,0-15.76,3.04-24.83-14.16c0,0-4.12,18.38-20.62,13.25"/>
	<path class="st2" d="M1229.17,515c1.48,5.2,2.88,9.95,4,13.94c5.01,17.86,10.96,43.33,11.24,55.39"/>
	<path class="st2" d="M1227.2,508.02c-4.72-16.88-9.54-36.35-9.06-48.16c0.68-17.35,2.29-28.57,7.85-49.17
		c5.56-20.59,7.17-46.19,7.17-46.19"/>
	<path class="st2" d="M1283.57,369.13c0,0,3.77,22.05,18.26,40.88c13.84,17.98,38.81,41.64,49.62,58.48"/>
	<path class="st2" d="M1321.6,807.25c0,0,0.17-0.23,0.46-0.66c1.84-2.79,8.63-13.99,6.86-25.62c-2.03-13.41-10.71-22.34-15.98-36.42
		c-5.29-14.09-8.13-38.6-12.87-56.88c-0.46-1.78-0.95-3.77-1.42-5.92"/>
	<path class="st2" d="M1291.13,502.83c0-0.11,0-0.21,0.02-0.32c1.63-18.52,3.51-39.53,3.51-39.53"/>
	<path class="st2" d="M1289.94,516.06c-1.86,19.61-5.39,45.05-7.07,58.51c-1.76,14.09-1.63,30.47,2.45,43.19
		c2.45,7.66,5.57,24.8,8.72,41.22"/>
	<path class="st2" d="M1323.5,788.7c0,0,0.07,17.03-2.57,20.79c-2.64,3.76-11.99,11.78-11.99,11.78"/>
	<path class="st2" d="M1244.41,513.26c0.8,24.44-0.08,69.59,0,76.62c0.06,7.05,1.9,18.83,5.4,32.5c2.26,8.78,5.65,20.91,8.97,31.27"
		/>
	<path class="st2" d="M1242.37,462.97c0,0,0.99,20.65,1.8,42.53"/>
	<path class="st2" d="M1266.9,675.13c6.45,15,18.56,43.29,18.68,48.56c0.13,6.24,1.21,8.53,4.47,10.16
		c3.24,1.61,0.66,11.24,1.9,26.55c1.21,15.3,11.64,19.62,14.94,26.81c3.3,7.19,0.72,19.74-1.38,23.7
		c-2.12,3.96-7.64,8.63-7.94,14.01c-0.3,5.38,5.18,3.36,10.77-2.64c5.59-5.99,7.89-30.47,7.89-30.47"/>
	<path class="st2" d="M1336.57,523.44c0,0-1.83,26.75,0.07,54.38c1.9,27.63,3.79,34.4,5.28,57.29c1.49,22.89-2.17,38.73-2.17,38.73"
		/>
	<path class="st2" d="M1330.18,721.92c0,0,1,51.4-0.97,81.06c-1.99,29.66-9.29,49.17-16.21,78.42c-6.9,29.26-7.51,37.79-13.8,52.62
		c-6.3,14.83-9.35,18.89-9.35,45.51c0,26.6-4.66,62.57-7.72,84.11c-3.05,21.52-9.95,54.44-12.19,82.27
		c-2.24,27.83-6.43,50.3,3.19,57.76c9.61,7.45,38.45,14.05,52.58,21.58c0,0,6.09,0,9.75,4.06c0,0,6.96-1.21,8.8,1.67
		c1.82,2.9,1.27,8.12-5.97,10.9"/>
	<path class="st2" d="M1328.78,1231.84c0,0,7.25,2.44,8.94,6.84c1.69,4.4-1.49,6.16-4.47,5.49"/>
	<path class="st2" d="M1325.33,1233.2c0,0,6.63,2.17,8.16,6.37c1.52,4.2-0.71,7.8-6.67,4.75"/>
	<path class="st2" d="M1323.43,1236.99c0,0,2.83,2.73,3.59,6.18s-5.94,5.18-8.79,1.68"/>
	<path class="st2" d="M1315.99,1238.08c0,0,4.53,5.38,1.78,7.36c-2.73,1.99-10.56-2.16-10.56-2.16s-5.29,3.09-20.12,0.15
		c-14.83-2.96-31.38,0.4-40.73,1.21c-9.35,0.82-24.38-0.4-27.63-10.86s7.62-24.08,11.07-34.24c3.45-10.14,4.27-26.39,3.75-38.4
		c-0.51-11.98-8.93-95.47-10.26-106.45c-1.33-10.96-4.57-50.28-1.82-67.84c2.73-17.58,2.94-19.3,11.26-38.09
		c8.34-18.79,11.07-28.25,11.28-45.51c0.21-17.27-1.5-84.11-1.67-92.34s0.68-40.22,0-41.24c-0.66-1.02-4.63-10.86-10.73-22.36
		c-3.2-6.05-6.62-12.42-9.27-19.72"/>
	<path class="st2" d="M1245.01,598.81c0,0-1.28,9.95-7.17,25.6c-5.89,15.64-9.35,25.72-9.35,25.72"/>
	<g>
		<path d="M1322.54,270.33c-4.48-2.67-9.97-3.64-15.1-4.41c4.04,0.18,8.09,0.6,12,1.68c1.33,0.38,2.59,0.77,3.93,1.49
			c0.37,0.2,0.5,0.65,0.31,1.02C1323.46,270.51,1322.91,270.62,1322.54,270.33L1322.54,270.33z"/>
	</g>
	<g>
		<path d="M1325.9,277.73c-1.79,2.38-5.23,0.68-7.61,0.74c-2.54-0.12-4.92,0.71-7.01,2.11c0,0,0.24-0.97,0.24-0.97
			c1.69,2.84,4.64,5.09,7.94,5.68c1.13,0.26,2.3,0.26,3.49,0.26c-1.14,0.31-2.35,0.52-3.57,0.44c-2.47-0.07-4.9-1.15-6.75-2.78
			c-0.95-0.83-1.73-1.76-2.42-2.9c-0.19-0.32-0.1-0.73,0.2-0.94c2.27-1.59,5.19-2.49,7.97-2.11
			C1320.8,277.37,1323.73,279.51,1325.9,277.73L1325.9,277.73z"/>
	</g>
	<g>
		<path d="M1319.88,285.7c0.47-2.71,1.23-4.69,1.19-7.38C1323.25,280.33,1322.21,284.24,1319.88,285.7L1319.88,285.7z"/>
	</g>
</g>
<g>
	<g>
		<line class="st4" x1="1144.71" y1="216.38" x2="1144.71" y2="220.88"/>
		<line class="st9" x1="1144.71" y1="229.96" x2="1144.71" y2="1224.05"/>
		<line class="st4" x1="1144.71" y1="1228.59" x2="1144.71" y2="1233.09"/>
		<g>
			<polygon class="st3" points="1144.71,205.79 1138.62,220.71 1144.71,217.17 1150.81,220.71 			"/>
		</g>
		<g>
			<polygon class="st3" points="1144.71,1243.69 1138.62,1228.76 1144.71,1232.3 1150.81,1228.76 			"/>
		</g>
	</g>
</g>
<g>
	<g>
		<g>
			<path class="st3" d="M1259.55,410.55h5.44l4.94,11.66l2.01,5.15h0.12c-0.24-2.47-0.73-5.76-0.73-8.53v-8.29h5.06v23.46h-5.44
				l-4.94-11.69l-2.01-5.13h-0.12c0.24,2.59,0.73,5.74,0.73,8.5v8.32h-5.06V410.55z"/>
		</g>
	</g>
</g>
<polygon class="st3" points="1290.8,410.96 1284.53,396.6 1300.03,402.34 1292.6,403.84 "/>
<polygon class="st3" points="1274.35,506.49 1259.78,499.82 1275.5,493.63 1270.87,499.84 "/>
<path class="st10" d="M1294.12,469.07c9.42-9.82,13.48-27.11,10.19-42.99c-3.89-18.79-17.36-34.94-40.77-33.8
	c-15.04,0.73-28.1,13.18-32.86,28.04c-5.94,18.57-2.2,41.42,12.15,52.69"/>
<path class="st10" d="M1291.92,493.84c0,0-24.92,14.18-48.21-0.27"/>
<polyline class="st10" points="1256.39,723.93 1204.93,611.32 1201.39,414.75 "/>
<polygon class="st3" points="1260.44,718.14 1260.65,733.28 1249,722.37 1256.18,723.8 "/>
<polygon class="st3" points="1195.56,418.98 1201.59,404.69 1207.34,418.85 1201.49,415.24 "/>
<g>
	<g>
		<g>
			<path class="st3" d="M1118.67,688.94c0-7.84,3.85-12.05,9.43-12.05s9.43,4.21,9.43,12.05c0,8.02-3.85,12.27-9.43,12.27
				S1118.67,696.97,1118.67,688.94z M1132.09,688.94c0-4.87-1.54-7.47-3.99-7.47c-2.45,0-3.99,2.59-3.99,7.47
				c0,5.06,1.54,7.68,3.99,7.68C1130.55,696.62,1132.09,694,1132.09,688.94z"/>
		</g>
	</g>
</g>
<g>
	<g>
		<g>
			<path class="st3" d="M1174.43,580.71h5.3v19.01h10.44v4.45h-15.74V580.71z"/>
		</g>
	</g>
</g>
<g>
	<g>
		<g>
			<path class="st3" d="M1257.17,507.39h5.57l2.3,8.31l0.79,3.24h0.14l0.78-3.24l2.31-8.31h5.57v23.46h-4.49v-7.26
				c0-2.64,0.46-8.36,0.71-10.9h-0.11l-1.8,6.3l-1.83,5.65h-2.58l-1.86-5.65l-1.68-6.3h-0.12c0.27,2.54,0.71,8.25,0.71,10.9v7.26
				h-4.42V507.39z"/>
		</g>
	</g>
</g>
<g>
	<path class="st1" d="M902.43,678.31c0,0-0.59,0.46-1.65,1.33c-4.97,4.06-20.54,17.03-36.18,32.94
		c-18.96,19.3-38.45,33.22-40.46,34.34c-2.03,1.12-11,0.91-11,0.91s-0.28,0-0.57,0h-0.49c-0.04,0-0.06,0-0.06,0
		s-9.04,0.21-11.07-0.91c-2.03-1.12-21.63-15.04-40.73-34.34c-15.74-15.91-31.38-28.86-36.39-32.92c-1.08-0.89-1.67-1.35-1.67-1.35
		l7.93-24.23c15.23,1.61,81.93,2.43,81.93,2.43s0.28,0,0.55,0.02c0.28-0.02,0.57-0.02,0.57-0.02s66.27-0.82,81.42-2.43
		L902.43,678.31z"/>
	<path class="st1" d="M800.52,505.77v8c-16.97-0.02-65.02-1.92-65.02-1.92c-0.68-3-1.38-6.07-2.09-9.12l28.84,2.09l-23.55-111.4
		l-0.32-1.52l7.21-2.14l0.34,1.61l23.78,114.39H800.52z"/>
	<path class="st1" d="M891.24,502.73c-0.7,3.05-1.4,6.12-2.07,9.12c0,0-47.74,1.9-64.6,1.92v-8h30.62l23.61-114.39l0.34-1.61
		l7.17,2.14l-0.32,1.54l-23.4,111.38L891.24,502.73z"/>
	<path class="st1" d="M824.58,505.17v10.07c0,0.98-0.79,1.77-1.77,1.77h-20.51c-0.98,0-1.77-0.79-1.77-1.77v-10.07
		c0-0.98,0.79-1.77,1.77-1.77h9.6c0.3,0,0.49,0,0.49,0h10.42C823.78,503.4,824.58,504.19,824.58,505.17z"/>
</g>
<path class="st11" d="M818.19,747.39"/>
<path class="st11" d="M807.01,747.39"/>
<g>
	<path class="st2" d="M690.49,786.16c0,0,5.89,19.74,6.17,30.78"/>
	<path class="st2" d="M933.9,786.16c0,0-5.85,19.74-6.13,30.78"/>
	<g>
		<path class="st2" d="M755.65,351.68c0,0,13.61,7.21,30.88,1.02c0,0,11.48,6.3,2.03,15.14c0,0,11.48-0.2,14.42-14.63
			c0,0,3.56,10.06,9.95,12.29c0,0-2.64-9.95,0.61-13.81c0,0,22.45-0.1,15.24,12.6c0,0,13.31,2.84,10.67-13.21
			c0,0,12.7,13.71,38.29-0.71c0,0-15.34-0.3-10.77-19.3s8.02-19.4,11.17-30.17c3.15-10.77,5.05-37.82-3.76-59.08
			c-8.8-21.26-16.86-28.07-19.2-29.29c-2.34-1.22-4.77-2.13-2.84-5.18c0,0-12.9-3.96-15.03-4.67s-1.12-2.84-7.21-4.88
			c-6.09-2.03-27.32-0.91-30.57,0c-3.25,0.91-2.74,4.67-5.18,3.56s-18.59,1.73-24.28,7.72c-5.69,5.99-7.01,7.01-10.26,9.14
			s-11.88,8.33-12.6,21.23s2.44,15.03,1.12,24.48c-1.32,9.45-1.83,5.18,0.61,19.81c2.44,14.63,3.15,25.29,9.24,36.47
			c6.09,11.17,7.92,18.28,7.82,24.18C765.91,350.25,759.71,351.88,755.65,351.68z"/>
		<path class="st2" d="M699.47,747.94c3.36,10.86,1.33,18.07-3.85,29.05c-0.08,0.13-0.13,0.28-0.21,0.42
			c-1.71,3.55-3.41,6.47-4.93,8.76c-3.05,4.61-5.33,6.77-5.33,6.77s2.12,13.01,2.75,15.64c0.47,2.03,4.47,5.2,8.76,8.36
			c1.29,0.95,2.58,1.9,3.83,2.81c5.38,3.96,6.6,9.14,2.24,9.14c-4.38,0-13.71-8.02-19.91-16.25c-6.2-8.23-9.56-21.9-9.14-29.35
			c0.4-7.45,5.95-26.28,8.25-36.58c2.31-10.3-0.27-10.56,0-15.7c0.28-5.16,3.92-7.45,3.79-16.53c-0.13-9.06-0.87-40.48-0.87-63.65
			c0-23.15,4.47-31.68,7.32-41.64s6.48-23.36,6.69-44.5c0.21-21.12-2.43-42.66-1.42-58.49c1.02-15.85-1.42-67.26,2.24-84.93
			s14.83-22.15,37.37-27.42c0.55-0.13,1.1-0.27,1.65-0.42"/>
		<path class="st2" d="M745.93,391.37c15.79-5.14,22.15-12,30.15-19.42c9.33-8.67,10.45-19.26,10.45-19.26"/>
		<path class="st2" d="M695.42,777.39c0,0,2.23,16.78-0.54,26.41c0,0,2.42,5.55,5.47,5.96s4-14.49,5.96-23.3
			c1.96-8.8,3.01-19.94-0.44-32.23c-3.45-12.29-3.25-15.44-0.41-28.04s11.99-60.24,15.64-75.47c3.66-15.24,8.33-29.05,10.36-43.68
			s2.23-27.63,2.13-41.14c-0.1-13.51,0.41-60.13,0.41-60.13"/>
		<path class="st2" d="M735.5,511.85c1.59,6.98,3.05,13.56,4.13,18.7c4.34,20.59,6.64,42.32,7.19,60.24
			c0.53,17.92-0.28,25.5-6.92,42.15c-6.64,16.67-7.98,21.14-7.98,21.14"/>
		<path class="st2" d="M724.88,466.36c0,0,4.3,18.03,8.53,36.37"/>
		<path class="st2" d="M723.92,679.33c0,0-6.23,20.92-8.4,52.89s7.86,76.52,14.56,102.8c6.7,26.27,19.71,74.49,16.46,96.7
			c-3.25,22.21-10.02,73.14-2.44,103.47c7.58,30.34,41.71,135.44,35.76,165.5c0,0-3.66-0.27-5.82,2.44s-1.96,3.12-5.01,3.66
			c-3.05,0.54-4.13,0.54-4.81,3.18c-0.68,2.64-5.08,2.23-4.54,6.09s15.17,17.4,26.04,25.12c10.87,7.72,22.75-0.51,22.55-9.14
			c-0.2-8.63-2.03-16.15-1.32-27.02c0.71-10.87,0.1-10.87-0.91-13.21c-1.02-2.34-0.1-6.4-0.1-9.75c0-3.35,0.1-29.66,0.3-35.96
			c0.2-6.3,0.41-63.79,0.71-68.36c0.3-4.57,0.71-52.01-0.51-69.68c-1.22-17.67-2.44-45.41-1.83-60.24
			c0.61-14.83,2.44-28.95,3.05-42.97c0.61-14.02,0.51-43.17,0.61-50.89c0.1-7.72-2.54-106.18-2.54-106.18"/>
		<path class="st2" d="M780.74,1208.07c0,0,1.32,15.64,3.96,23.97"/>
		<path class="st2" d="M924.98,747.94c-3.34,10.86-1.33,18.07,3.83,29.05c0.06,0.13,0.13,0.27,0.19,0.4
			c1.71,3.56,3.39,6.48,4.91,8.78c3.01,4.61,5.29,6.77,5.29,6.77s-2.12,12.99-2.71,15.64c-0.47,2.03-4.46,5.2-8.72,8.36
			c-1.27,0.95-2.58,1.9-3.81,2.81c-5.35,3.96-6.56,9.14-2.22,9.14c4.34,0,13.63-8.02,19.8-16.25c6.14-8.23,9.48-21.9,9.08-29.35
			c-0.42-7.45-5.93-26.28-8.21-36.58c-2.29-10.3,0.27-10.56,0-15.7c-0.27-5.16-3.91-7.45-3.77-16.53
			c0.13-9.06,0.87-40.48,0.87-63.65c0-23.15-4.44-31.68-7.26-41.64c-2.83-9.95-6.47-23.36-6.66-44.5
			c-0.21-21.12,2.41-42.66,1.4-58.49c-1-15.85,1.42-67.26-2.22-84.93c-3.64-17.67-14.73-22.15-37.14-27.42
			c-0.55-0.13-1.1-0.27-1.63-0.4"/>
		<path class="st2" d="M878.81,391.37c-15.68-5.14-22.88-11.16-29.94-19.42c-7.29-8.53-9.24-19.65-9.24-19.65"/>
		<path class="st2" d="M929,777.39c0,0-2.21,16.78,0.53,26.41c0,0-2.41,5.55-5.44,5.96s-3.97-14.49-5.92-23.3
			c-1.95-8.8-2.99-19.94,0.44-32.23s3.23-15.44,0.4-28.04c-2.83-12.6-11.91-60.24-15.54-75.47c-3.63-15.24-8.28-29.05-10.3-43.68
			c-2.02-14.63-2.22-27.63-2.12-41.14c0.1-13.51-0.4-60.13-0.4-60.13"/>
		<path class="st2" d="M889.18,511.85c-1.59,6.98-3.03,13.56-4.11,18.7c-4.3,20.59-6.6,42.32-7.13,60.24
			c-0.53,17.92,0.27,25.5,6.86,42.15c6.6,16.67,7.94,21.14,7.94,21.14"/>
		<path class="st2" d="M891.24,502.73c4.21-18.34,8.49-36.37,8.49-36.37"/>
		<path class="st2" d="M900.68,679.33c0,0,6.19,20.92,8.34,52.89s-7.81,76.52-14.47,102.8c-6.66,26.27-19.58,74.49-16.35,96.7
			c3.23,22.21,9.96,73.14,2.42,103.47c-7.54,30.34-40.77,130.02-35.69,168.11c0,0,3.8-2.88,5.95-0.17s1.95,3.11,4.98,3.66
			s4.1,0.54,4.78,3.18c0.67,2.64,5.05,2.23,4.51,6.09s-15.07,17.4-25.87,25.12c-10.8,7.72-22.61-0.51-22.41-9.14
			c0.2-8.63,2.02-16.15,1.31-27.02s-0.1-10.87,0.91-13.21s0.1-6.4,0.1-9.75s-0.1-29.66-0.3-35.96c-0.2-6.3-0.4-63.79-0.71-68.36
			c-0.3-4.57-0.71-52.01,0.5-69.68c1.21-17.67,2.42-45.41,1.82-60.24c-0.61-14.83-2.42-28.95-3.03-42.97
			c-0.61-14.02-0.51-43.17-0.61-50.89c-0.1-7.72,2.53-106.18,2.53-106.18"/>
		<path class="st2" d="M842.3,1209.01c0,0-0.34,15.69-2.44,24.17"/>
	</g>
</g>
<g>
	<g>
		<line class="st12" x1="902.84" y1="405.29" x2="721.59" y2="405.29"/>
		<g>
			<polygon class="st3" points="913.43,405.29 898.5,399.19 902.05,405.29 898.5,411.38 			"/>
		</g>
		<g>
			<polygon class="st3" points="711,405.29 725.92,399.19 722.38,405.29 725.92,411.38 			"/>
		</g>
	</g>
</g>
<g>
	<g>
		<line class="st4" x1="812.55" y1="380.14" x2="812.55" y2="384.64"/>
		<line class="st13" x1="812.55" y1="393.56" x2="812.55" y2="1173.74"/>
		<line class="st4" x1="812.55" y1="1178.19" x2="812.55" y2="1182.69"/>
		<g>
			<polygon class="st3" points="812.55,369.55 806.45,384.48 812.55,380.94 818.64,384.48 			"/>
		</g>
		<g>
			<polygon class="st3" points="812.55,1193.29 806.45,1178.36 812.55,1181.9 818.64,1178.36 			"/>
		</g>
	</g>
</g>
<line class="st8" x1="897.62" y1="1192.36" x2="780.74" y2="1192.36"/>
<line class="st8" x1="897.62" y1="913.43" x2="746.53" y2="913.43"/>
<line class="st8" x1="901.04" y1="650.14" x2="734.14" y2="650.14"/>
<line class="st8" x1="822.17" y1="370.36" x2="802.82" y2="370.36"/>
<g>
	<g>
		<g>
			<path class="st3" d="M909,638.81h5.37v9.57h0.13l6.91-9.57h5.9l-12.94,17.05v6.41H909V638.81z M916.63,651.37l3.11-4.14
				l8.23,15.03h-5.89L916.63,651.37z"/>
			<path class="st3" d="M930.25,659.23c6.55-5.5,10.96-9.37,10.96-12.67c0-2.21-1.38-3.42-3.77-3.42c-1.82,0-3.3,1.12-4.6,2.32
				l-2.84-2.86c2.37-2.4,4.67-3.62,8.17-3.62c4.81,0,8.08,2.88,8.08,7.29c0,3.85-3.96,7.95-8.39,11.81
				c1.31-0.13,2.97-0.26,4.15-0.26h5.42v4.45h-17.17V659.23z"/>
			<path class="st3" d="M951.98,657.31c0-4,3.31-6.04,11.75-6.55c-0.19-1.6-1.39-2.57-3.79-2.57c-1.72,0-3.43,0.66-5.44,1.67
				l-1.89-3.47c2.48-1.41,5.32-2.42,8.36-2.42c5.02,0,8.06,2.61,8.06,8.08v10.21h-4.33l-0.38-2.01h-0.13
				c-1.8,1.36-4.04,2.44-6.33,2.44C954.23,662.69,951.98,660.31,951.98,657.31z M963.72,656.89v-2.93c-5.25,0.26-6.66,1.4-6.66,2.93
				c0,1.15,0.97,1.71,2.46,1.71C961.11,658.59,962.46,657.87,963.72,656.89z"/>
		</g>
	</g>
</g>
<g>
	<g>
		<g>
			<path class="st3" d="M906.71,900.93h5.37v9.57h0.13l6.91-9.57h5.9l-12.94,17.05v6.41h-5.37V900.93z M914.34,913.5l3.11-4.14
				l8.23,15.03h-5.89L914.34,913.5z"/>
			<path class="st3" d="M927.96,921.35c6.55-5.5,10.96-9.38,10.96-12.67c0-2.21-1.38-3.42-3.77-3.42c-1.82,0-3.3,1.12-4.6,2.32
				l-2.84-2.86c2.37-2.4,4.67-3.62,8.17-3.62c4.81,0,8.08,2.88,8.08,7.29c0,3.85-3.96,7.95-8.39,11.81
				c1.31-0.13,2.97-0.26,4.15-0.26h5.42v4.45h-17.17V921.35z"/>
			<path class="st3" d="M954.79,922.45h-0.13l-0.44,1.94h-4.14v-25.21h5.3v6.15l-0.2,2.81h0.13c1.32-1.28,3.14-2.04,4.88-2.04
				c4.46,0,7.19,3.57,7.19,9.05c0,6.16-3.74,9.67-7.73,9.67C958.01,924.82,956.26,924,954.79,922.45z M961.96,915.23
				c0-3.2-1.05-4.8-3.3-4.8c-1.13,0-2.18,0.48-3.29,1.66v7.2c1,0.88,2.13,1.18,3.08,1.18C960.39,920.48,961.96,918.93,961.96,915.23
				z"/>
		</g>
	</g>
</g>
<g>
	<g>
		<g>
			<path class="st3" d="M906.71,1179.72h5.37v9.57h0.13l6.91-9.57h5.9l-12.94,17.05v6.41h-5.37V1179.72z M914.34,1192.29l3.11-4.14
				l8.23,15.03h-5.89L914.34,1192.29z"/>
			<path class="st3" d="M927.96,1200.14c6.55-5.5,10.96-9.38,10.96-12.67c0-2.21-1.38-3.42-3.77-3.42c-1.82,0-3.3,1.12-4.6,2.32
				l-2.84-2.86c2.37-2.4,4.67-3.62,8.17-3.62c4.81,0,8.08,2.88,8.08,7.29c0,3.85-3.96,7.95-8.39,11.81
				c1.31-0.13,2.97-0.26,4.15-0.26h5.42v4.45h-17.17V1200.14z"/>
			<path class="st3" d="M949.89,1194.26c0-5.95,4.83-9.37,10.33-9.37c2.82,0,5.19,1,6.68,2.43l-2.44,3.28
				c-1.36-0.99-2.61-1.43-3.96-1.43c-3.07,0-5.19,2-5.19,5.09c0,3.09,2.09,5.08,5.02,5.08c1.87,0,3.41-0.82,4.7-1.7l2.14,3.35
				c-2.15,1.81-4.9,2.63-7.34,2.63C954.2,1203.61,949.89,1200.18,949.89,1194.26z"/>
		</g>
	</g>
</g>
<polygon class="st3" points="806.45,898.5 812.55,913.43 818.64,898.5 812.58,902.05 "/>
<g>
	<g>
		<g>
			<path class="st3" d="M768.17,420.3c0-7.78,4.92-12.29,11.21-12.29c2.97,0,5.41,1.42,7,2.98l-2.92,3.28
				c-1.12-1.04-2.38-1.68-4.08-1.68c-3.33,0-5.76,2.83-5.76,7.53c0,4.82,2.43,7.62,5.97,7.62c1.69,0,3.09-0.83,4.23-2.07l2.92,3.21
				c-1.91,2.26-4.54,3.45-7.7,3.45C773.21,432.33,768.17,428.21,768.17,420.3z"/>
			<path class="st3" d="M789.91,428.87c6.56-5.5,10.96-9.37,10.96-12.67c0-2.21-1.38-3.42-3.77-3.42c-1.82,0-3.3,1.12-4.6,2.32
				l-2.84-2.86c2.37-2.4,4.67-3.62,8.17-3.62c4.81,0,8.08,2.88,8.08,7.29c0,3.85-3.96,7.95-8.39,11.81
				c1.31-0.13,2.97-0.26,4.15-0.26h5.42v4.45h-17.17V428.87z"/>
		</g>
	</g>
</g>
</svg>
