<svg id="Outline" xmlns="http://www.w3.org/2000/svg" viewBox="0 0 512 512"><path d="M488,207.965H201.067l6.908-87.3h-.007c.017-.2.032-.41.032-.617l.013-8.168c2.217,1.815,4.395,3.67,6.6,5.551,16.045,13.692,32.636,27.851,72.074,34.424a100.85,100.85,0,0,0,16.6,1.411c41.206,0,62.143-27.2,63.119-28.5a8,8,0,1,0-12.8-9.6c-.21.281-21.581,28.028-64.285,20.908C254.256,130.23,240.044,118.1,225,105.261a202.935,202.935,0,0,0-16.952-13.419l.033-19.8A24.03,24.03,0,0,0,184.132,48h-.054a24,24,0,0,0-24,23.961L160.07,77.5a81.807,81.807,0,0,0-48.559,23.855C92.88,119.985,82.157,147.724,80.5,181.574a217.673,217.673,0,0,0,.394,26.391H24a8,8,0,0,0-8,8v160a8,8,0,0,0,2.343,5.657l80,80A8,8,0,0,0,104,463.965H488a8,8,0,0,0,8-8v-240A8,8,0,0,0,488,207.965ZM176.079,71.987a8,8,0,0,1,8-7.987h.018a8.01,8.01,0,0,1,7.982,8.013l-.018,10.722c-1.637-.753-3.322-1.491-5.09-2.2a47.786,47.786,0,0,0-10.9-2.836Zm-.036,21.973a28.132,28.132,0,0,1,4.986,1.433,89.936,89.936,0,0,1,11,5.287l-.019,11.338-16-.036Zm15.3,34.056-6.326,79.949H182.6l-5.976-79.981Zm-68.52-15.342a65.993,65.993,0,0,1,37.22-18.91L160,119.951c0,.206.015.407.03.609h-.008l6.531,87.4H96.894C92.754,154.288,109.113,126.382,122.823,112.674ZM89.607,430.259l-50.84-50.84a93.427,93.427,0,0,1,54.365,1.143C87.723,394.732,86.551,411,89.607,430.259ZM480,447.965H109.967c-8.358-29.426-7.989-51.214,1.091-68.235a8,8,0,0,0-4.087-11.193C82.109,358.593,56.941,357.323,32,364.72V223.965H82.548c4.21,31.7,14.244,67.5,30.024,106.97A8,8,0,1,0,127.428,325C111.3,284.662,102.5,251.382,98.651,223.965h69.1L175.566,328.6a8,8,0,0,0,7.96,7.4h.018a7.835,7.835,0,0,0,.924-.059A7.993,7.993,0,0,0,192,327.965a8.83,8.83,0,0,1,1.657-2.343c2.113-2.113,7.824-5.657,22.343-5.657,21.771,0,23.873,7.744,24.01,8.4a8,8,0,0,0,15.99-.4c0-.08,2.167-8,24-8,21.771,0,23.873,7.744,24.01,8.4a8,8,0,0,0,15.99-.4,8.8,8.8,0,0,1,1.657-2.343c2.113-2.113,7.824-5.657,22.343-5.657,21.771,0,23.873,7.744,24.01,8.4a8,8,0,0,0,15.99-.4,8.8,8.8,0,0,1,1.657-2.343c2.113-2.113,7.824-5.657,22.343-5.657,22.622,0,24.007,8.36,24.018,8.445a1.929,1.929,0,0,1-.018-.445h0c0,.012,0,.023,0,.035a8,8,0,0,0,16,0c0-.012,0-.023,0-.035h0c0-.98-.455-24-40-24-16.605,0-26.319,4.059-32,8.842-5.681-4.783-15.395-8.842-32-8.842s-26.319,4.059-32,8.842c-5.681-4.783-15.395-8.842-32-8.842s-26.319,4.059-32,8.842c-5.681-4.783-15.394-8.842-32-8.842-9.816,0-17.222,1.419-22.812,3.567l6.613-83.567H480Zm-240-120c0,.121,0,.241.008.36A1.767,1.767,0,0,1,240,327.965Zm64,0c0,.121,0,.241.008.36A1.767,1.767,0,0,1,304,327.965Zm64,0c0,.121,0,.241.008.36A1.767,1.767,0,0,1,368,327.965Z"/></svg>