<svg id="Outline" xmlns="http://www.w3.org/2000/svg" viewBox="0 0 512 512"><path d="M449.231,247.425l13.924-27.847a8,8,0,1,0-14.31-7.156L435.056,240H416V174.563a91.068,91.068,0,0,0,28.532-12.914C460.713,150.525,480,128.728,480,88.057c0-42.823-31.583-69.074-86.651-72.022a24.211,24.211,0,0,0-17.87,6.566A23.752,23.752,0,0,0,368,40V197.177c-18.528-11.049-31-29.527-31.942-50.6a56,56,0,1,0-48.026.041c.86,34.315,18.574,66.39,47.968,86.99V240H280V184c0-4.5-2.176-12.914-16.744-18.742C254.778,161.868,243.678,160,232,160s-22.778,1.868-31.256,5.258C186.176,171.086,184,179.5,184,184v56H138.056l16.652-72.157a24.022,24.022,0,1,0-15.588-3.608L121.636,240h-10.4l-5.029-50.286a24,24,0,1,0-15.92,1.594L95.16,240h-16.2c-.885-5.673-2.41-14.113-4.756-23.031-5.967-22.682-13.881-36.207-24.193-41.348-4.844-2.415-12.608-4.117-22.088,1.494-9.9,5.854-12.055,13.618-12.123,19.1-.145,11.513,8.629,24.613,26.821,40.049,6.769,5.744,13.489,10.642,18.279,13.959l-43.56,65.34A8,8,0,0,0,16,320V488a8,8,0,0,0,8,8H488a8,8,0,0,0,8-8V320a8,8,0,0,0-1.344-4.438ZM152,136a8,8,0,1,1-8,8A8.009,8.009,0,0,1,152,136ZM384,40a7.9,7.9,0,0,1,2.486-5.785,8.053,8.053,0,0,1,6.007-2.2c12.877.689,31.374,3.29,46.363,11.765C455.775,53.343,464,67.827,464,88.057c0,63.82-54.69,71.758-56.992,72.062A8,8,0,0,0,400,168.057v39.537a79.088,79.088,0,0,1-16-3.253ZM304,144q0-1.257.036-2.5a8,8,0,0,0-5.337-7.769,40,40,0,1,1,26.683-.027,8,8,0,0,0-5.318,7.207Q320,142.445,320,144c0,41.66,35.212,75.979,80,79.666V240H352V229.351a8,8,0,0,0-3.65-6.715C320.579,204.648,304,175.251,304,144Zm-72,32c18.777,0,29.739,5.382,31.8,8-2.061,2.618-13.023,8-31.8,8s-29.739-5.382-31.8-8C202.261,181.382,213.223,176,232,176Zm-32,26.432c.247.1.489.208.744.31C209.222,206.132,220.322,208,232,208s22.778-1.868,31.256-5.258c.255-.1.5-.207.744-.31V240H200ZM88,168a8,8,0,1,1,8,8A8.009,8.009,0,0,1,88,168ZM31.8,196.415c.011-.905.038-3.025,4.271-5.53a8.987,8.987,0,0,1,4.5-1.52,5,5,0,0,1,2.3.574c2.647,1.318,9.485,6.972,15.814,30.928.877,3.319,1.634,6.592,2.281,9.665C46.148,219.129,31.7,204.9,31.8,196.415ZM448,480H64V346.294L100.434,288H411.566L448,346.294Zm32,0H464V344a7.994,7.994,0,0,0-1.216-4.24l-40-64A8,8,0,0,0,416,272H96a8,8,0,0,0-6.784,3.76l-40,64A7.994,7.994,0,0,0,48,344V480H32V322.422L76.281,256H435.719L480,322.422ZM392,376a8,8,0,0,1-8,8h-8v24a8,8,0,0,1-16,0V384H128a8,8,0,0,1,0-16H384A8,8,0,0,1,392,376Zm11.077-233.637a8,8,0,0,0,6.863,1.455C423.1,140.527,448,126.31,448,96.057c0-47.451-39.6-48-40-48a8,8,0,0,0-8,8v80A8,8,0,0,0,403.077,142.363ZM416,65.928a24.407,24.407,0,0,1,4.268,2.239C428.053,73.317,432,82.7,432,96.057c0,14.865-8.671,23.318-16,27.808ZM336,96.057a24,24,0,1,0-24,24A24.027,24.027,0,0,0,336,96.057Zm-24,8a8,8,0,1,1,8-8A8.009,8.009,0,0,1,312,104.057Z"/></svg>