<svg id="Outline" xmlns="http://www.w3.org/2000/svg" viewBox="0 0 512 512"><path d="M16,360c0,33.017,25.533,63.582,71.9,86.117C87.194,467.194,82.277,480,64,480c-12.982,0-28.694-20.865-33.175-28.174a8,8,0,0,0-13.654,8.341C19.41,463.835,39.74,496,64,496c17.151,0,29.4-7.963,35.428-23.029a67.553,67.553,0,0,0,4.2-19.858C146.347,470.514,199.717,480,256,480c63.149,0,122.645-11.933,167.527-33.6C470.262,423.838,496,393.154,496,360c0-30.985-22.682-60.009-64-82.093V218.1c41.363-22.086,64-51.005,64-82.1,0-33.154-25.738-63.838-72.473-86.4C378.645,27.933,319.149,16,256,16S133.355,27.933,88.473,49.6C41.738,72.162,16,102.846,16,136c0,31.093,22.637,60.012,64,82.1v59.809C38.682,299.991,16,329.015,16,360Zm464,0c0,26.678-22.526,52.245-63.429,71.992C373.814,452.632,316.79,464,256,464c-56.767,0-110.247-9.916-151.894-28.036,1.084-20.935,10.828-33.038,29.685-36.9C175.486,410.429,215.518,416,255.245,416h.041c51.589,0,104.1-9.372,160.531-28.648A23.953,23.953,0,0,0,432,364.66v-68.4C463.063,314.662,480,337,480,360ZM256,288c59.913,0,116.126-10.642,160-30.116v14.385C373.811,292.47,315.862,304,256,304S138.189,292.47,96,272.269V257.884C139.874,277.358,196.087,288,256,288ZM96,240.269v-14.4C139.9,245.336,196.316,256,256,256s116.1-10.664,160-30.126v14.4C373.811,260.47,315.862,272,256,272S138.189,260.47,96,240.269ZM256,320c59.913,0,116.126-10.642,160-30.116v14.385C373.811,324.47,315.862,336,256,336S138.189,324.47,96,304.269V289.884C139.874,309.358,196.087,320,256,320Zm0,32c59.913,0,116.126-10.642,160-30.116v14.385C373.811,356.47,315.862,368,256,368S138.189,356.47,96,336.269V321.884C139.874,341.358,196.087,352,256,352Zm0,32c59.913,0,116.126-10.642,160-30.116V364.66a7.956,7.956,0,0,1-5.354,7.551C355.906,390.911,305.089,400,255.286,400h-.039c-49.742,0-100.093-9.08-153.931-27.744A7.958,7.958,0,0,1,96,364.719V353.884C139.874,373.358,196.087,384,256,384ZM32,136c0-26.678,22.526-52.245,63.429-71.992C138.186,43.368,195.21,32,256,32S373.814,43.368,416.571,64.008C457.474,83.755,480,109.322,480,136s-22.526,52.245-63.429,71.992C373.814,228.632,316.79,240,256,240S138.186,228.632,95.429,207.992C54.526,188.245,32,162.678,32,136ZM96.075,387.373q6.867,2.38,13.664,4.554c-11.6,7.965-18.775,20.418-21,36.692C52.084,409.376,32,385.185,32,360c0-23,16.937-45.338,48-63.736v68.455A23.968,23.968,0,0,0,96.075,387.373Zm101.058-226.74C212.968,165.384,233.874,168,256,168s43.032-2.616,58.867-7.367C334.2,154.834,344,146.546,344,136s-9.8-18.834-29.133-24.633C299.032,106.616,278.126,104,256,104s-43.032,2.616-58.867,7.367C177.8,117.166,168,125.454,168,136S177.8,154.834,197.133,160.633ZM256,120c46.382,0,70.36,11.473,71.974,16-1.614,4.527-25.592,16-71.974,16s-70.36-11.473-71.974-16C185.64,131.473,209.618,120,256,120ZM216,96a24,24,0,1,0-24-24A24.027,24.027,0,0,0,216,96Zm0-32a8,8,0,1,1-8,8A8.009,8.009,0,0,1,216,64Zm-80,56a24,24,0,1,0-24-24A24.027,24.027,0,0,0,136,120Zm0-32a8,8,0,1,1-8,8A8.009,8.009,0,0,1,136,88Zm80,88a24,24,0,1,0,24,24A24.027,24.027,0,0,0,216,176Zm0,32a8,8,0,1,1,8-8A8.009,8.009,0,0,1,216,208Zm-80-8a24,24,0,1,0-24-24A24.027,24.027,0,0,0,136,200Zm0-32a8,8,0,1,1-8,8A8.009,8.009,0,0,1,136,168ZM72,112a24,24,0,1,0,24,24A24.027,24.027,0,0,0,72,112Zm0,32a8,8,0,1,1,8-8A8.009,8.009,0,0,1,72,144ZM296,96a24,24,0,1,0-24-24A24.027,24.027,0,0,0,296,96Zm0-32a8,8,0,1,1-8,8A8.009,8.009,0,0,1,296,64Zm80,56a24,24,0,1,0-24-24A24.027,24.027,0,0,0,376,120Zm0-32a8,8,0,1,1-8,8A8.009,8.009,0,0,1,376,88Zm-80,88a24,24,0,1,0,24,24A24.027,24.027,0,0,0,296,176Zm0,32a8,8,0,1,1,8-8A8.009,8.009,0,0,1,296,208Zm80-8a24,24,0,1,0-24-24A24.027,24.027,0,0,0,376,200Zm0-32a8,8,0,1,1-8,8A8.009,8.009,0,0,1,376,168Zm64-8a24,24,0,1,0-24-24A24.027,24.027,0,0,0,440,160Zm0-32a8,8,0,1,1-8,8A8.009,8.009,0,0,1,440,128Z"/></svg>