<svg id="Outline" xmlns="http://www.w3.org/2000/svg" viewBox="0 0 512 512"><path d="M424,120H380.944L360,78.111A39.782,39.782,0,0,0,324.223,56H187.777A39.782,39.782,0,0,0,152,78.111L131.056,120H88a72.081,72.081,0,0,0-72,72v48a8,8,0,0,0,8,8V448a8,8,0,0,0,8,8H480a8,8,0,0,0,8-8V248a8,8,0,0,0,8-8V192A72.081,72.081,0,0,0,424,120ZM166.311,85.268A23.868,23.868,0,0,1,187.777,72H324.223a23.868,23.868,0,0,1,21.466,13.268L363.056,120H328v-8a24.027,24.027,0,0,0-24-24H208a24.027,24.027,0,0,0-24,24v8H148.944ZM312,112v8H200v-8a8.009,8.009,0,0,1,8-8h96A8.009,8.009,0,0,1,312,112ZM72,382.435,112.905,408H72Zm0-18.87v-21.13l48,30v21.13Zm64,18.87L176.905,408H136Zm0-18.87v-21.13l48,30v21.13Zm64,18.87L240.905,408H200Zm0-18.87v-21.13l48,30v21.13Zm64,18.87L304.9,408H264Zm0-18.87v-21.13l48,30v21.13Zm64,18.87L368.905,408H328Zm0-18.87v-21.13l48,30v21.13Zm64,18.87L432.905,408H392Zm0-18.87v-21.13l48,30v21.13ZM440,312H392V296h48Zm0,16v25.565L399.1,328Zm-64-16H328V296h48Zm0,16v25.565L335.1,328Zm-64-16H264V296h48Zm0,16v25.565L271.1,328Zm-64-16H200V296h48Zm0,16v25.565L207.1,328Zm-64-16H136V296h48Zm0,16v25.565L143.1,328Zm-64-16H72V296h48Zm0,16v25.565L79.1,328Zm0,112H72V424h48Zm64,0H136V424h48Zm64,0H200V424h48Zm64,0H264V424h48Zm64,0H328V424h48Zm64,0H392V424h48Zm32,0H456V288a8,8,0,0,0-8-8H64a8,8,0,0,0-8,8V440H40V248H201.376A24.039,24.039,0,0,0,224,264h64a24.039,24.039,0,0,0,22.624-16H472ZM216,240V216h80v24a8.009,8.009,0,0,1-8,8H224A8.009,8.009,0,0,1,216,240Zm264-8H312V208a8,8,0,0,0-8-8H208a8,8,0,0,0-8,8v24H32V192a56.063,56.063,0,0,1,56-56H424a56.063,56.063,0,0,1,56,56Z"/></svg>