<svg id="Outline" xmlns="http://www.w3.org/2000/svg" viewBox="0 0 512 512"><path d="M168,152a32,32,0,1,0,32,32A32.036,32.036,0,0,0,168,152Zm0,48a16,16,0,1,1,16-16A16.019,16.019,0,0,1,168,200Zm96-48a32,32,0,1,0,32,32A32.036,32.036,0,0,0,264,152Zm0,48a16,16,0,1,1,16-16A16.019,16.019,0,0,1,264,200Zm-96,32a32,32,0,1,0,32,32A32.036,32.036,0,0,0,168,232Zm0,48a16,16,0,1,1,16-16A16.019,16.019,0,0,1,168,280Zm96-48a32,32,0,1,0,32,32A32.036,32.036,0,0,0,264,232Zm0,48a16,16,0,1,1,16-16A16.019,16.019,0,0,1,264,280Zm147.261-12.638A200.986,200.986,0,0,0,416,224c0-110.28-89.72-200-200-200S16,113.72,16,224s89.72,200,200,200a199.467,199.467,0,0,0,62.637-10.012A112,112,0,1,0,411.261,267.362ZM216,408C114.542,408,32,325.458,32,224S114.542,40,216,40s184,82.542,184,184a184.977,184.977,0,0,1-4.5,40.586,112.553,112.553,0,0,0-33.425,1.576A151.706,151.706,0,0,0,368,224c0-83.813-68.187-152-152-152S64,140.187,64,224s68.187,152,152,152a152.724,152.724,0,0,0,56.531-10.894Q272.009,370.485,272,376a112.075,112.075,0,0,0,2.285,22.57A183.491,183.491,0,0,1,216,408Zm60.076-61.962A136.415,136.415,0,0,1,216,360c-74.991,0-136-61.009-136-136S141.009,88,216,88s136,61.009,136,136a135.332,135.332,0,0,1-8.565,47.605A112.5,112.5,0,0,0,276.076,346.038ZM384,472a96,96,0,1,1,96-96A96.108,96.108,0,0,1,384,472ZM344,352a24,24,0,1,0,24,24A24.027,24.027,0,0,0,344,352Zm0,32a8,8,0,1,1,8-8A8.009,8.009,0,0,1,344,384Zm80-32a24,24,0,1,0,24,24A24.027,24.027,0,0,0,424,352Zm0,32a8,8,0,1,1,8-8A8.009,8.009,0,0,1,424,384Z"/></svg>