<svg id="Outline" xmlns="http://www.w3.org/2000/svg" viewBox="0 0 512 512"><path d="M488,184H232.251c4.784-14.974,7.749-28.774,7.749-40,0-25.735-10.712-45.974-30.162-56.986-9.749-5.52-21.151-8.4-33.769-8.7l.01-6.269A24.03,24.03,0,0,0,152.132,48h-.055a24,24,0,0,0-24,23.961l-.026,15.506a220.707,220.707,0,0,0-35.807,17.457C69.493,115.493,53.008,117.672,45.8,111.06c-11.106-10.189-4.844-42.4,1.711-60.3a8,8,0,0,0-15.018-5.52c-2.118,5.765-20.044,56.911,2.478,77.6,12.871,11.822,33.943,10.646,64.417-3.59a7.958,7.958,0,0,0,.73-.388,216.675,216.675,0,0,1,27.909-14.24L128,119.951c0,.206.015.407.03.609h-.008L132.762,184H24a8,8,0,0,0-8,8V384a8,8,0,0,0,2.343,5.657l80,80A8,8,0,0,0,104,472H488a8,8,0,0,0,8-8V192A8,8,0,0,0,488,184ZM175.968,120.666c.017-.2.032-.41.032-.617l.043-25.839c9.781.317,18.518,2.54,25.911,6.727C216.171,108.986,224,124.279,224,144c0,10-2.9,23.478-8.541,40h-44.5l5.012-63.334ZM169.7,200h39.818c-6.249,15.693-14.468,33.521-24.581,53.248-7.993,15.591-16.032,30.128-22.767,41.905Zm1.046,114.668c4.91,0,12.848,1.492,25.321,7.113,4.5,2.027,8.744,4.224,12.356,6.219-3.612,2-7.858,4.192-12.356,6.219-20.867,9.405-29.038,7.252-31.583,5.889-2.623-1.406-4.1-4.745-4.417-9.934,1.736-2.817,5.013-8.192,9.29-15.459C169.791,314.688,170.247,314.668,170.743,314.668ZM144.079,71.987a8,8,0,0,1,8-7.987h.019a8.009,8.009,0,0,1,7.982,8.013l-.012,7.2a131.46,131.46,0,0,0-16,3.161Zm-.045,26.891a120.237,120.237,0,0,1,16.007-3.625l-.027,16.765-16-.036ZM148.807,184l-4.186-56.016,14.723.032L154.914,184Zm4.84,16-1.875,23.693L150,200ZM89.607,438.294l-50.84-50.841A93.4,93.4,0,0,1,93.133,388.6C87.723,402.767,86.551,419.038,89.607,438.294ZM480,456H109.966c-8.358-29.425-7.988-51.214,1.093-68.234a8,8,0,0,0-4.087-11.194C82.109,366.625,56.941,365.354,32,372.754V200H133.958l9.607,128.6a8,8,0,0,0,.515,2.283c.793,13.938,7.322,20.376,12.855,23.337a28.721,28.721,0,0,0,13.769,3.149c8.725,0,19.366-2.875,32.133-8.648,5.673-2.566,10.91-5.333,15.151-7.73a23.074,23.074,0,0,0,10.947,13.229,28.721,28.721,0,0,0,13.769,3.149c8.725,0,19.366-2.875,32.133-8.648,5.673-2.566,10.91-5.333,15.151-7.73a23.074,23.074,0,0,0,10.947,13.229,28.721,28.721,0,0,0,13.769,3.149c8.725,0,19.366-2.875,32.133-8.648,5.673-2.566,10.91-5.333,15.151-7.73a23.074,23.074,0,0,0,10.947,13.229,28.721,28.721,0,0,0,13.769,3.149c8.725,0,19.366-2.875,32.133-8.648a199.487,199.487,0,0,0,25.6-14.061,8,8,0,0,0,0-13.312,199.487,199.487,0,0,0-25.6-14.061c-20.488-9.266-35.5-11.067-45.9-5.5a23.074,23.074,0,0,0-10.947,13.229c-4.241-2.4-9.478-5.164-15.151-7.73-20.488-9.266-35.5-11.067-45.9-5.5a23.074,23.074,0,0,0-10.947,13.229c-4.241-2.4-9.478-5.164-15.151-7.73-20.488-9.266-35.5-11.067-45.9-5.5a23.074,23.074,0,0,0-10.947,13.229c-4.241-2.4-9.478-5.164-15.151-7.73-9.293-4.2-17.449-6.853-24.57-7.994,14.978-26.4,35.219-64.561,48.376-99.289H480ZM232,328c0-6.441,1.508-10.515,4.481-12.108a13.245,13.245,0,0,1,6.262-1.224c4.91,0,12.848,1.492,25.321,7.113,4.5,2.027,8.744,4.224,12.356,6.219-3.612,2-7.858,4.192-12.356,6.219-20.868,9.405-29.038,7.252-31.583,5.889C233.508,338.515,232,334.441,232,328Zm72,0c0-6.441,1.508-10.515,4.481-12.108a13.245,13.245,0,0,1,6.262-1.224c4.91,0,12.848,1.492,25.321,7.113,4.5,2.027,8.744,4.224,12.356,6.219-3.612,2-7.858,4.192-12.356,6.219-20.867,9.405-29.037,7.252-31.583,5.889C305.508,338.515,304,334.441,304,328Zm72,0c0-6.441,1.508-10.515,4.481-12.108a13.245,13.245,0,0,1,6.262-1.224c4.91,0,12.848,1.492,25.321,7.113,4.5,2.027,8.744,4.224,12.356,6.219-3.612,2-7.858,4.192-12.356,6.219-20.867,9.405-29.038,7.252-31.583,5.889C377.508,338.515,376,334.441,376,328Z"/></svg>