<svg id="Outline" xmlns="http://www.w3.org/2000/svg" viewBox="0 0 512 512"><path d="M294.06,71.761A8,8,0,0,0,304,64a68.714,68.714,0,0,0-4.572-22.971C292.972,24.889,280.39,16,264,16c-16.086,0-28.57,7.253-35.155,20.422A47.4,47.4,0,0,0,224,56V240a8,8,0,0,0-8,8V456a40,40,0,0,0,80,0V248a8,8,0,0,0-8-8V112a8.005,8.005,0,0,0-1.344-4.438L272,85.578V66.246ZM280,456a24,24,0,0,1-48,0V288h48Zm0-200v16H232V256ZM257.344,92.438,272,114.422V240H240V56.044a32.111,32.111,0,0,1,3.363-12.872C247.293,35.654,254.044,32,264,32c9.7,0,16.385,4.784,20.433,14.626a45.188,45.188,0,0,1,2.144,6.772L265.94,48.239A8,8,0,0,0,256,56V88A8.005,8.005,0,0,0,257.344,92.438Z"/></svg>