<svg id="Outline" xmlns="http://www.w3.org/2000/svg" viewBox="0 0 512 512"><path d="M488,80H271.149c-.688-5.781-.545-10.514.441-13.47a8,8,0,0,0-15.18-5.06C254.8,66.294,254.419,72.71,255.1,80H104a8,8,0,0,0-5.657,2.343l-80,80A8,8,0,0,0,16,168V440a8,8,0,0,0,8,8H488a8,8,0,0,0,8-8V88A8,8,0,0,0,488,80ZM100.547,102.767A93.39,93.39,0,0,1,99.4,157.133c-14.17-5.41-30.441-6.583-49.7-3.527ZM480,432H32V173.966c29.425-8.358,51.214-7.989,68.234,1.093a8,8,0,0,0,11.194-4.087c9.946-24.863,11.217-50.031,3.818-74.972h142.73c5.175,20.143,16.343,42.742,31.49,57.338,18.154,17.5,39.731,22.688,62.56,15.128L352,183.953c0,.207.015.409.03.612h-.008l7.77,104.031a8,8,0,0,0,7.978,7.4h16a8,8,0,0,0,7.974-7.368l8.231-103.96h-.007c.017-.206.032-.413.032-.622l.028-16.917a58.024,58.024,0,0,1,10.084,5.606C432.774,188.443,448,221.9,448,256c0,8.873-1.025,39.966-14.217,67.549C422.6,346.942,406.56,359.18,386.1,359.958l1.845-23.327A8,8,0,0,0,379.97,328h-8.61a8,8,0,0,0-7.977,8.6L365,358.232a86.854,86.854,0,0,1-42.235-20.724,43.194,43.194,0,0,0,6.424-8.979c7.653-14.3,6.707-31.11-2.531-44.967a8,8,0,1,0-13.312,8.876c5.908,8.863,6.557,19.532,1.735,28.541a27.656,27.656,0,0,1-3.089,4.591c-.651-.923-1.039-1.537-1.144-1.71a8,8,0,0,0-13.706,8.256c.131.218.634,1.039,1.521,2.306A35.327,35.327,0,0,1,288,336a63.084,63.084,0,0,1-18.035-2.348,43.481,43.481,0,0,0,3.222-5.123c7.653-14.3,6.707-31.11-2.531-44.967a8,8,0,1,0-13.312,8.876c5.908,8.863,6.557,19.532,1.735,28.541a27.683,27.683,0,0,1-3.058,4.552,9.463,9.463,0,0,1-.963-1.3,1.935,1.935,0,0,1,.1.188l-.006,0a7.993,7.993,0,1,0-14.3,7.15l-.006,0c.028.058.066.13.109.212l.024.043a21.453,21.453,0,0,0,1.671,2.594A35.384,35.384,0,0,1,232,336a63.084,63.084,0,0,1-18.035-2.348,43.481,43.481,0,0,0,3.222-5.123c7.653-14.3,6.707-31.11-2.531-44.967a8,8,0,1,0-13.312,8.876c5.908,8.863,6.557,19.532,1.735,28.541a27.683,27.683,0,0,1-3.058,4.552,9.463,9.463,0,0,1-.963-1.3,1.935,1.935,0,0,1,.1.188l-.006,0a7.993,7.993,0,1,0-14.3,7.15l-.006,0c.028.058.066.13.109.212l.024.043a21.453,21.453,0,0,0,1.671,2.594A35.384,35.384,0,0,1,176,336a63.084,63.084,0,0,1-18.035-2.348,43.481,43.481,0,0,0,3.222-5.123c7.653-14.3,6.707-31.11-2.531-44.967a8,8,0,1,0-13.312,8.876c5.908,8.863,6.557,19.532,1.735,28.541a27.683,27.683,0,0,1-3.058,4.552,9.463,9.463,0,0,1-.963-1.3,1.935,1.935,0,0,1,.1.188l-.006,0a7.993,7.993,0,1,0-14.3,7.15l-.006,0c.028.058.066.13.109.212l.024.043a21.453,21.453,0,0,0,1.671,2.594A35.384,35.384,0,0,1,120,336a65.044,65.044,0,0,1-16.617-1.948,43.459,43.459,0,0,0,3.526-5.523c7.653-14.3,6.707-31.11-2.53-44.967a8,8,0,0,0-13.313,8.876c5.909,8.863,6.558,19.532,1.736,28.541a27.6,27.6,0,0,1-3.892,5.512,11.9,11.9,0,0,1-1.852-2.257,1.935,1.935,0,0,1,.1.188l-.006,0a7.993,7.993,0,1,0-14.3,7.15l-.006,0c.029.059.067.132.111.216l.021.038a22.225,22.225,0,0,0,1.971,2.994A35.906,35.906,0,0,1,65.723,336a8,8,0,0,0,0,16,49.1,49.1,0,0,0,23.809-5.932C96.644,349.411,106.506,352,120,352a48.922,48.922,0,0,0,24.62-6.381C151.794,349.174,161.912,352,176,352a48.922,48.922,0,0,0,24.62-6.381C207.794,349.174,217.912,352,232,352a48.922,48.922,0,0,0,24.62-6.381C263.794,349.174,273.912,352,288,352a49.591,49.591,0,0,0,21.714-4.831,102.684,102.684,0,0,0,56.512,27.523l1.336,17.9a8,8,0,0,0,7.96,7.4h.018a8,8,0,0,0,7.975-7.369l1.316-16.646c27.371-.313,49.278-16.034,63.386-45.534C462.862,299.831,464,265.724,464,256c0-39.108-17.993-77.854-44.774-96.412a72.048,72.048,0,0,0-19.17-9.509l.023-14.039A24.027,24.027,0,0,0,376.132,112h-.055a24,24,0,0,0-24,23.96l-.025,15.53c-.953.324-1.907.66-2.863,1.019-17.928,6.719-34.285,3.123-48.623-10.694-12.765-12.3-21.444-30.2-26.022-45.816H480ZM384.035,163.024l-.021,12.994-16-.035.02-12.168A58.906,58.906,0,0,1,384.035,163.024ZM368.06,147.6l.019-11.61a7.952,7.952,0,0,1,2.354-5.654A8.142,8.142,0,0,1,376.1,128a8.007,8.007,0,0,1,7.981,8.012L384.061,147A74.748,74.748,0,0,0,368.06,147.6Zm15.284,44.419L376.378,280h-1.184l-6.573-88.015Z"/></svg>