<svg id="Outline" xmlns="http://www.w3.org/2000/svg" viewBox="0 0 512 512"><path d="M286.824,229.428a24.172,24.172,0,0,0-4.323-.532c-.063-.8-.156-1.595-.3-2.392a24,24,0,0,0-13.683-17.566l-18.586-8.448a23.9,23.9,0,0,0-22.925,1.67,24.143,24.143,0,0,0-3.433,2.681,23.828,23.828,0,0,0-24-4.225l-19.116,7.169a23.9,23.9,0,0,0-15.029,17.391,24.172,24.172,0,0,0-.532,4.323,23.821,23.821,0,0,0-19.958,13.983l-8.449,18.587a23.908,23.908,0,0,0,1.67,22.924,24.15,24.15,0,0,0,2.682,3.433,23.755,23.755,0,0,0-1.479,1.9,24.008,24.008,0,0,0-2.746,22.1l7.169,19.116a23.9,23.9,0,0,0,17.391,15.029,24.166,24.166,0,0,0,4.322.529,23.831,23.831,0,0,0,13.984,19.961l18.586,8.448a24,24,0,0,0,26.359-4.351,23.977,23.977,0,0,0,24,4.225l19.116-7.169a23.9,23.9,0,0,0,15.029-17.391,24.194,24.194,0,0,0,.532-4.322,23.838,23.838,0,0,0,19.958-13.984l8.449-18.587a23.908,23.908,0,0,0-1.67-22.924,24.15,24.15,0,0,0-2.682-3.433,23.755,23.755,0,0,0,1.479-1.9,24.008,24.008,0,0,0,2.746-22.1l-7.169-19.116A23.9,23.9,0,0,0,286.824,229.428Zm-10.737,17.8a8,8,0,0,1,13.147,2.848L296.4,269.19a8,8,0,0,1-7.49,10.81H254.987a31.826,31.826,0,0,0-3.431-8.242ZM232,223.088v-.75a8,8,0,0,1,11.311-7.283L261.9,223.5a8,8,0,0,1,2.346,12.939l-24,24A31.826,31.826,0,0,0,232,257.013Zm-50.935,5.475a7.869,7.869,0,0,1,5.009-5.8l19.117-7.168A8,8,0,0,1,216,223.088v33.925a31.826,31.826,0,0,0-8.242,3.431l-24-24-.529-.529A7.87,7.87,0,0,1,181.065,228.563ZM151.056,268.69,159.5,250.1a8,8,0,0,1,12.935-2.351l24,24A31.826,31.826,0,0,0,193.013,280H158.339a8,8,0,0,1-7.283-11.31Zm20.857,60.083a8,8,0,0,1-13.147-2.848L151.6,306.81a8,8,0,0,1,7.49-10.81h33.925a31.826,31.826,0,0,0,3.431,8.242ZM216,352.912v.75a8,8,0,0,1-11.311,7.283L186.1,352.5a8,8,0,0,1-2.346-12.939l24-24A31.826,31.826,0,0,0,216,318.987ZM224,304a16,16,0,1,1,16-16A16.019,16.019,0,0,1,224,304Zm42.935,43.437a7.869,7.869,0,0,1-5.009,5.8L242.81,360.4a8,8,0,0,1-10.81-7.49V318.987a31.826,31.826,0,0,0,8.242-3.431l24,24,.01.009.52.521A7.867,7.867,0,0,1,266.935,347.437Zm30.009-40.127L288.5,325.9a8,8,0,0,1-12.935,2.351l-24-24A31.826,31.826,0,0,0,254.987,296h34.674a8,8,0,0,1,7.283,11.31Zm193-99.071c-9.951-2.488-22.813-7.866-27.575-19.362-4.264-10.3-1.327-24.391,8.5-40.761,12.6-21,15.591-50.672,8.034-71.7l3.45-3.45a24.027,24.027,0,0,0,0-33.94l-1.373-1.373a24.028,24.028,0,0,0-33.942,0l-10.28,10.281c-12.656-.445-21.6-3.52-25.966-8.974-4.543-5.679-3.1-12.658-3-13.1a8,8,0,0,0-15.54-3.806c-1.347,5.388-1.636,17.058,5.826,26.616,5.34,6.839,13.483,11.4,24.285,13.66l-4.007,4.007c-.184.184-.355.376-.518.573h0l-.022.027-.014.017L363.039,133.44A207.393,207.393,0,0,0,256,82.462V64h17.376a24,24,0,1,0,0-16H256V40a8,8,0,0,0-16,0v8H208V40a8,8,0,0,0-16,0v8H176a8,8,0,0,0-16,0H144a8,8,0,0,0,0,16h16a8,8,0,0,0,16,0h16V82.462C92.447,97.9,16,184.189,16,288c0,114.691,93.309,208,208,208s208-93.309,208-208a206.994,206.994,0,0,0-46.135-130.466l67.178-55.323.014-.012.029-.024h0c.2-.162.388-.333.572-.517l12.285-12.285c3.08,15.83-.067,35.955-8.8,50.512-12.713,21.189-15.928,39.733-9.556,55.116,5.786,13.97,19.091,23.915,38.476,28.761a8,8,0,0,0,3.88-15.522ZM296,48a8,8,0,1,1-8,8A8.009,8.009,0,0,1,296,48ZM208,64h32V80.609Q232.079,80,224,80t-16,.609ZM416,288c0,105.869-86.131,192-192,192S32,393.869,32,288,118.131,96,224,96a191.247,191.247,0,0,1,128.866,49.793l-10.181,12.363A175.32,175.32,0,0,0,224,112c-97.047,0-176,78.953-176,176s78.953,176,176,176,176-78.953,176-176a175.149,175.149,0,0,0-38.826-110.133L373.52,167.7A191.078,191.078,0,0,1,416,288ZM306.343,213.657a8,8,0,0,0,10.743.518l31.743-26.141A159.227,159.227,0,0,1,384,288c0,88.224-71.775,160-160,160S64,376.224,64,288s71.775-160,160-160a159.4,159.4,0,0,1,108.5,42.523l-26.676,32.392A8,8,0,0,0,306.343,213.657Zm69-68.185c-.265-.281-.523-.568-.789-.847l50.019-60.737,11.538,11.538ZM448,84.687,435.313,72l7.84-7.839A21.932,21.932,0,0,1,459.389,73.3Zm8.193-33.566,2.151-2.151a8.007,8.007,0,0,1,11.312,0l1.373,1.373a8.01,8.01,0,0,1,0,11.314l-.266.266A37.965,37.965,0,0,0,456.193,51.121Z"/></svg>