<svg id="Outline" xmlns="http://www.w3.org/2000/svg" viewBox="0 0 512 512"><path d="M472,416a24.028,24.028,0,0,0,24-24v-8a24.028,24.028,0,0,0-24-24h-8V176h-.006a7.989,7.989,0,0,0-1.849-5.122l-40-48a8,8,0,0,0-5.783-2.87c-.121,0-.241,0-.362,0V120H352V48a24.032,24.032,0,0,0-24-24H56A40.04,40.04,0,0,0,16,64V456a40.045,40.045,0,0,0,40,40H472a24.028,24.028,0,0,0,24-24v-8a24.028,24.028,0,0,0-24-24h-8V416ZM280,360a8,8,0,0,0,0,16H472a8.009,8.009,0,0,1,8,8v8a8.009,8.009,0,0,1-8,8H264a24.027,24.027,0,0,1-24-24V360a24.027,24.027,0,0,1,24-24H448v24Zm-40,47.978.028.022-.028.022ZM417.361,142.13,438.92,168H420.008A31.159,31.159,0,0,1,416,152,34.707,34.707,0,0,1,417.361,142.13ZM376,144a8,8,0,0,0,8-8h18.532A49.776,49.776,0,0,0,400,152c0,18.772,9.284,28.6,10.343,29.657A8,8,0,0,0,416,184h32V320H304V134.623A23.865,23.865,0,0,0,312,136h56A8,8,0,0,0,376,144Zm-64-24a8.011,8.011,0,0,1-8-8v-6.85c2.47-3.79,14.03-13.21,21.06-18.95,4.191-3.422,7.82-6.416,10.94-9.088V120ZM32,64A24.032,24.032,0,0,1,56,40h8a8,8,0,0,0,16,0h80a8,8,0,0,0,16,0h80a8,8,0,0,0,16,0h56a8.011,8.011,0,0,1,8,8v6.85c-2.47,3.79-14.03,13.21-21.06,18.95C295.39,89.76,288,96.49,288,104V320H264a39.788,39.788,0,0,0-24,8.022V88a24.032,24.032,0,0,0-24-24H64a8,8,0,0,0,0,16H216a8.011,8.011,0,0,1,8,8v8a8.011,8.011,0,0,1-8,8H56A24.032,24.032,0,0,1,32,80V64Zm0,392V111.981A39.794,39.794,0,0,0,56,120H96a8,8,0,0,0,16,0h80a8,8,0,0,0,16,0h8a23.865,23.865,0,0,0,8-1.377V480H56A24.027,24.027,0,0,1,32,456Zm248-16a8,8,0,0,0,0,16H472a8.009,8.009,0,0,1,8,8v8a8.009,8.009,0,0,1-8,8H264a24.027,24.027,0,0,1-24-24V440a24.027,24.027,0,0,1,24-24H448v24ZM208,168a8,8,0,1,1-8-8A8,8,0,0,1,208,168Zm-48-24a8,8,0,1,1-8-8A8,8,0,0,1,160,144Zm48,120a8,8,0,1,1-8-8A8,8,0,0,1,208,264Zm0-48a8,8,0,1,1-8-8A8,8,0,0,1,208,216Zm-48,24a8,8,0,1,1-8-8A8,8,0,0,1,160,240Zm0-48a8,8,0,1,1-8-8A8,8,0,0,1,160,192Zm48,168a8,8,0,1,1-8-8A8,8,0,0,1,208,360Zm0-48a8,8,0,1,1-8-8A8,8,0,0,1,208,312Zm-48,24a8,8,0,1,1-8-8A8,8,0,0,1,160,336Zm0-48a8,8,0,1,1-8-8A8,8,0,0,1,160,288Zm48,168a8,8,0,1,1-8-8A8,8,0,0,1,208,456Zm0-48a8,8,0,1,1-8-8A8,8,0,0,1,208,408Zm-48,24a8,8,0,1,1-8-8A8,8,0,0,1,160,432Zm0-48a8,8,0,1,1-8-8A8,8,0,0,1,160,384ZM112,168a8,8,0,1,1-8-8A8,8,0,0,1,112,168ZM64,144a8,8,0,1,1-8-8A8,8,0,0,1,64,144Zm48,120a8,8,0,1,1-8-8A8,8,0,0,1,112,264Zm0-48a8,8,0,1,1-8-8A8,8,0,0,1,112,216ZM64,240a8,8,0,1,1-8-8A8,8,0,0,1,64,240Zm0-48a8,8,0,1,1-8-8A8,8,0,0,1,64,192Zm48,168a8,8,0,1,1-8-8A8,8,0,0,1,112,360Zm0-48a8,8,0,1,1-8-8A8,8,0,0,1,112,312ZM64,336a8,8,0,1,1-8-8A8,8,0,0,1,64,336Zm0-48a8,8,0,1,1-8-8A8,8,0,0,1,64,288Zm48,168a8,8,0,1,1-8-8A8,8,0,0,1,112,456Zm0-48a8,8,0,1,1-8-8A8,8,0,0,1,112,408ZM64,432a8,8,0,1,1-8-8A8,8,0,0,1,64,432Zm0-48a8,8,0,1,1-8-8A8,8,0,0,1,64,384ZM256,88a8,8,0,1,1,8,8A8,8,0,0,1,256,88Zm0,96a8,8,0,1,1,8,8A8,8,0,0,1,256,184Zm0-48a8,8,0,1,1,8,8A8,8,0,0,1,256,136Zm0,144a8,8,0,1,1,8,8A8,8,0,0,1,256,280Zm0-48a8,8,0,1,1,8,8A8,8,0,0,1,256,232Zm160,24a8,8,0,1,1,8,8A8,8,0,0,1,416,256Zm0-48a8,8,0,1,1,8,8A8,8,0,0,1,416,208Zm0,96a8,8,0,1,1,8,8A8,8,0,0,1,416,304ZM368,184a8,8,0,1,1,8,8A8,8,0,0,1,368,184Zm-48-24a8,8,0,1,1,8,8A8,8,0,0,1,320,160Zm48,120a8,8,0,1,1,8,8A8,8,0,0,1,368,280Zm0-48a8,8,0,1,1,8,8A8,8,0,0,1,368,232Zm-48,24a8,8,0,1,1,8,8A8,8,0,0,1,320,256Zm0-48a8,8,0,1,1,8,8A8,8,0,0,1,320,208Zm0,96a8,8,0,1,1,8,8A8,8,0,0,1,320,304Z"/></svg>