<svg id="Outline" xmlns="http://www.w3.org/2000/svg" viewBox="0 0 512 512"><path d="M480,408h0a8,8,0,0,0,7.155-4.422C487.517,402.855,496,385.594,496,360c0-31.823-16.046-40.167-54.431-47.845-21.678-4.335-44.495-12.756-62.6-23.1-21.99-12.566-37.047-27.79-43.541-44.025-7.466-18.665-23.733-32.381-47.042-39.665A123.355,123.355,0,0,0,264,200.474V189.747c13.534-5.531,32-19.691,32-45.747,0-16.085-7.253-28.571-20.422-35.155A47.4,47.4,0,0,0,256,104a47.4,47.4,0,0,0-19.578,4.845c-10.9,5.447-17.74,14.934-19.78,27.155H208a8,8,0,0,0,0,16h16a8,8,0,0,0,8-8c0-9.957,3.654-16.707,11.171-20.637A32.151,32.151,0,0,1,255.956,120a32.094,32.094,0,0,1,12.873,3.363C276.346,127.293,280,134.043,280,144c0,25.2-24.916,31.972-25.94,32.239A8,8,0,0,0,248,184v16.474a123.355,123.355,0,0,0-24.386,4.89c-23.309,7.284-39.576,21-47.042,39.665-6.494,16.235-21.551,31.459-43.541,44.025-18.105,10.345-40.922,18.766-62.6,23.1C32.046,319.833,16,328.177,16,360c0,25.594,8.483,42.855,8.845,43.578A7.932,7.932,0,0,0,32,407.99V408ZM59.239,392,256,265.511,452.761,392ZM260.326,249.271a8,8,0,0,0-8.652,0L36.028,387.9A98.04,98.04,0,0,1,32,360c0-17.715,2.013-24.244,41.569-32.155,43.678-8.736,100.754-34.111,117.859-76.874C205.194,216.557,255.506,216,255.988,216c.506,0,50.818.557,64.584,34.971,17.105,42.763,74.181,68.138,117.859,76.874C477.987,335.756,480,342.285,480,360a98.084,98.084,0,0,1-4.027,27.9Z"/></svg>