<svg id="Outline" xmlns="http://www.w3.org/2000/svg" viewBox="0 0 512 512"><path d="M488,120H439.823l-.176-.572a8,8,0,0,0-6.662-5.589c-1.074-.134-26.751-3.242-64.642-1.026-34.975,2.044-87.315,9.249-138.052,31.957-.842.377-1.672.771-2.51,1.155a31.988,31.988,0,1,0-54.8,32.983Q166.4,183.948,160,189.424v-5.646a8,8,0,0,0-8-8H120a8,8,0,0,0-8,8v55.574C72.721,290.98,36.2,364.784,26.95,384H24a8,8,0,0,0,0,16H408a8,8,0,0,0,0-16V364.392l63.725-40.553a40.1,40.1,0,0,0,16.759-45.5L454.574,168H488a8,8,0,0,0,8-8V128A8,8,0,0,0,488,120ZM184,161.778a15.987,15.987,0,0,1,29.364-8.768A283.837,283.837,0,0,0,186,169.483,15.926,15.926,0,0,1,184,161.778Zm-40,30v12.289c-4.944,4.784-10.457,10.277-16,16.268V191.778ZM78.912,319.841c44.984-2.1,70.257-24.748,107.925-58.509,8.238-7.383,16.756-15.018,26.369-23.258,38.763-33.221,87.272-48.328,121.141-55.152a352.382,352.382,0,0,1,59.9-6.885l29.943,89.831a24.1,24.1,0,0,1-10.674,28.32L341.837,336h-272C72.722,330.762,75.756,325.35,78.912,319.841Zm384.223-9.5-67.43,42.909A8,8,0,0,0,392,360v24H44.772c3.822-7.737,9.462-18.917,16.412-32H344a8,8,0,0,0,4.031-1.09l73.546-42.9a40.172,40.172,0,0,0,17.792-47.2L407.59,165.47a8,8,0,0,0-7.4-5.468c-1.2-.029-29.888-.6-68.586,7.153-64.965,13.011-105.9,39.141-128.807,58.771-9.748,8.355-18.333,16.05-26.636,23.491-32.875,29.466-54.316,48.675-87.282,53.427,11.733-19.539,24.64-39.321,37.672-56.172,9.88-12.774,21.75-24.575,30.991-33.432,24.156-23.18,50.092-40.8,79.287-53.866,80.866-36.192,167.484-31.923,189.1-30.144L473.19,283.043A24.061,24.061,0,0,1,463.135,310.341ZM480,152H449.657l-4.917-16H480ZM224,304H344a8,8,0,0,0,4.116-1.14l40-24a8,8,0,0,0,3.576-9.058l-16-56a8.01,8.01,0,0,0-8.162-5.788A328.3,328.3,0,0,0,296.6,221.368c-49.05,15.416-76.9,40.918-80.553,73.749A8,8,0,0,0,224,304Zm112-16H288v-8a8.009,8.009,0,0,1,8-8h32a8.009,8.009,0,0,1,8,8Zm-34.864-51.286c24.935-7.868,49.683-11.052,60.981-12.183l12.5,43.766L352,281.871V280a24.028,24.028,0,0,0-24-24H296a24.028,24.028,0,0,0-24,24v8H233.809C242.317,260.733,274.369,245.162,301.136,236.714Z"/></svg>