<svg id="Outline" xmlns="http://www.w3.org/2000/svg" viewBox="0 0 512 512"><path d="M461.657,282.343a8,8,0,0,0-11.314,0l-6.876,6.876-43.5-40.941c.021-.414.033-.83.033-1.248a24,24,0,0,0-24-24,24.34,24.34,0,0,0-2.695.155L351.7,202.845A24.251,24.251,0,0,0,352,199.03a24,24,0,0,0-24-24,24.166,24.166,0,0,0-5.243.579l-30.335-28.549,16.347-15.386C319.337,144.854,334.372,152,352,152c22.9,0,36.829-11.61,49.121-21.854C412.806,120.409,422.9,112,440,112c32.952,0,39.971,24.936,40.239,25.94a8,8,0,0,0,15.522-3.88,50.268,50.268,0,0,0-10.74-19.328C477.543,106.187,463.663,96,440,96c-22.9,0-36.829,11.61-49.121,21.854C379.194,127.591,369.1,136,352,136c-13.348,0-23.925-5.161-31.535-15.335l37.017-34.839a8,8,0,0,0,1.946-2.855l16-40a8,8,0,0,0-10.4-10.4l-40,16a8.018,8.018,0,0,0-2.512,1.6l-48.666,45.8a23.96,23.96,0,0,0-35.7,0l-48.666-45.8a8.018,8.018,0,0,0-2.512-1.6l-40-16a8,8,0,0,0-10.4,10.4l16,40a8,8,0,0,0,1.945,2.855l65.06,61.233-30.333,28.549a24.182,24.182,0,0,0-5.244-.579,23.956,23.956,0,0,0-23.665,27.787L138.7,223.184a24.34,24.34,0,0,0-2.695-.155,23.942,23.942,0,0,0-23.931,25.214L68.532,289.219l-6.875-6.876a8,8,0,0,0-11.314,0L21.657,311.03a24.025,24.025,0,0,0,0,33.94L47.03,370.343a24.026,24.026,0,0,0,33.94,0l28.687-28.686a8,8,0,0,0,0-11.314l-5.806-5.805L120,309.339V472a8,8,0,0,0,8,8H384a8,8,0,0,0,8-8V309.339l16.148,15.2-5.805,5.805a8,8,0,0,0,0,11.314l28.686,28.686a24.029,24.029,0,0,0,33.942,0l25.373-25.373a24.027,24.027,0,0,0,0-33.94ZM376,239.029a8,8,0,0,1,5.656,13.658l-16.97,16.97a8,8,0,0,1-11.313-11.314l16.971-16.97A7.94,7.94,0,0,1,376,239.029ZM342.059,280.97a24.023,24.023,0,0,0,25.578,5.439l7.015,6.6L352,310l-24-18V249.1l8.16,7.68A24.01,24.01,0,0,0,342.059,280.97Zm16.115-50.056L345.493,243.6l-14.485-13.633,12.681-12.681ZM280,112.163l52.379-49.3L353.64,54.36l-8.411,21.027L280,136.779ZM280,176V157.339l28.72,27.03L296.038,197.05l-16.653-15.673A23.949,23.949,0,0,0,280,176Zm-32-64a8,8,0,0,1,16,0v64a8,8,0,0,1-16,0ZM166.771,75.387,158.36,54.36l21.261,8.505L232,112.163v24.615ZM232,157.339V176a23.949,23.949,0,0,0,.615,5.377L215.961,197.05l-12.68-12.681Zm-63.689,59.942,12.681,12.681L166.507,243.6l-12.681-12.682Zm-37.967,24.092a8,8,0,0,1,11.313,0l16.97,16.971a8,8,0,0,1,0,11.312h0a8,8,0,0,1-11.314,0l-16.97-16.97a8,8,0,0,1,0-11.314ZM69.657,359.03a8.01,8.01,0,0,1-11.314,0L32.97,333.657a8.01,8.01,0,0,1,0-11.314L56,299.313,92.687,336Zm22.875-45.811L79.851,300.538l39.015-36.719c.057.058.105.123.164.181l12.508,12.508ZM184,464H136V432l19.2,14.4a8,8,0,0,0,9.6,0L184,432Zm0-52-24,18-24-18V392l19.2,14.4a8,8,0,0,0,9.6,0L184,392Zm0-40-24,18-24-18V352l19.2,14.4a8,8,0,0,0,9.6,0L184,352Zm0-40-24,18-24-18V312l19.2,14.4a8,8,0,0,0,9.6,0L184,312Zm0-40-24,18-22.652-16.989,7.035-6.621a24,24,0,0,0,31.478-29.626L184,249.1Zm-5.657-87.313a8,8,0,1,1,11.314-11.314l16.97,16.971a8,8,0,0,1,0,11.312h0a8,8,0,0,1-11.314,0ZM248,464H200V432l19.2,14.4a8,8,0,0,0,9.6,0L248,432Zm0-52-24,18-24-18V392l19.2,14.4a8,8,0,0,0,9.6,0L248,392Zm0-40-24,18-24-18V352l19.2,14.4a8,8,0,0,0,9.6,0L248,352Zm0-40-24,18-24-18V312l19.2,14.4a8,8,0,0,0,9.6,0L248,312Zm0-40-24,18-24-18V272l19.2,14.4a8,8,0,0,0,9.6,0L248,272Zm0-40-24,18-24-18V239.943c.324.013.646.046.97.046a24.017,24.017,0,0,0,21.793-13.913L248,251.313Zm8-15.314-28.512-28.512,13.941-13.121a23.932,23.932,0,0,0,29.142,0l13.941,13.121ZM312,464H264V432l19.2,14.4a8,8,0,0,0,9.6,0L312,432Zm0-52-24,18-24-18V392l19.2,14.4a8,8,0,0,0,9.6,0L312,392Zm0-40-24,18-24-18V352l19.2,14.4a8,8,0,0,0,9.6,0L312,352Zm0-40-24,18-24-18V312l19.2,14.4a8,8,0,0,0,9.6,0L312,312Zm0-40-24,18-24-18V272l19.2,14.4a8,8,0,0,0,9.6,0L312,272Zm0-40-24,18-24-18v-.687l25.265-25.264A23.869,23.869,0,0,0,311.029,240c.325,0,.648-.011.971-.024Zm-.971-28a8,8,0,0,1-5.656-13.657l16.971-16.97a8,8,0,1,1,11.312,11.314l-16.97,16.97A7.948,7.948,0,0,1,311.029,224ZM376,464H328V432l19.2,14.4a8,8,0,0,0,9.6,0L376,432Zm0-52-24,18-24-18V392l19.2,14.4a8,8,0,0,0,9.6,0L376,392Zm0-40-24,18-24-18V352l19.2,14.4a8,8,0,0,0,9.6,0L376,352Zm0-40-24,18-24-18V312l19.2,14.4a8,8,0,0,0,9.6,0L376,312Zm4.463-55.492L392.97,264c.058-.058.112-.119.169-.177l39.01,36.714-12.681,12.681Zm98.566,57.149L453.656,359.03a8,8,0,0,1-11.312,0L419.313,336,456,299.313l23.029,23.03a8,8,0,0,1,0,11.314Z"/></svg>