<svg id="Outline" xmlns="http://www.w3.org/2000/svg" viewBox="0 0 512 512"><path d="M48,88V384h8a8,8,0,0,1,0,16H24a8,8,0,0,1,0-16h8V88H24a8,8,0,0,1,0-16H56a8,8,0,0,1,0,16ZM488,456h-8V32h8a8,8,0,0,0,0-16H456a8,8,0,0,0,0,16h8V456h-8a8,8,0,0,0,0,16h32a8,8,0,0,0,0-16Zm-104-8a8,8,0,0,0-8,8v8H136v-8a8,8,0,0,0-16,0v32a8,8,0,0,0,16,0v-8H376v8a8,8,0,0,0,16,0V456A8,8,0,0,0,384,448ZM264,248a8,8,0,1,0,8,8A8,8,0,0,0,264,248Zm0,64a8,8,0,1,0,8,8A8,8,0,0,0,264,312ZM419.428,86.029C427.771,106.885,432,139.847,432,184V376a8,8,0,0,1-8,8H378.364l5.556,38.868a8,8,0,0,1-3.12,7.532c-1.213.91-26.182,19.243-65.15,19.244a127.426,127.426,0,0,1-20.965-1.752A94.234,94.234,0,0,1,256,432.369a94.22,94.22,0,0,1-38.684,15.522,127.422,127.422,0,0,1-20.965,1.753c-38.974,0-63.938-18.334-65.151-19.244a8,8,0,0,1-3.12-7.532L133.636,384H88a8,8,0,0,1-8-8V184c0-44.153,4.229-77.115,12.572-97.971,6.15-15.375,12.911-19.976,16.164-21.341l95.686-47.843A7.994,7.994,0,0,1,208,16h96a7.994,7.994,0,0,1,3.578.845l95.686,47.843C406.517,66.053,413.278,70.654,419.428,86.029ZM312.433,85.4a8,8,0,0,1,5.037-4.993l13.724-4.574-24.7-34.582L253.136,195.4l72.827-84.031L313.344,92.438A8,8,0,0,1,312.433,85.4ZM298.053,168H336V152H312v-.092Zm-99.4-75.562-12.729,19.093,55.614,68.452,5.993-17.316L205.507,41.254l-24.7,34.582L194.53,80.41a8,8,0,0,1,4.126,12.028ZM281.688,64H230.312L256,138.211Zm11.077-32h-73.53l5.538,16h62.454ZM135.922,368l15.931-111.538L108.37,89.777C102.832,102.292,96,128.894,96,184V368ZM157.8,328H192V312H160.083Zm85.385,93.629c-13.076-13.1-18.355-26.019-18.611-26.657A8.007,8.007,0,0,1,224,392V232a7.984,7.984,0,0,1,.44-2.617l10.941-31.607-65.59-80.731a8,8,0,0,1-.447-9.483l10.189-15.285L165.47,87.59a8,8,0,0,1-3.98-12.239L182.77,45.56,121.378,76.255,167.741,253.98a8.029,8.029,0,0,1,.179,3.151L162.368,296H200a8,8,0,0,1,8,8v32a8,8,0,0,1-8,8H155.512l-10.865,76.04a106.121,106.121,0,0,0,70.038,12.068A79.1,79.1,0,0,0,243.183,421.629Zm124.173-1.564L356.49,344H312a8,8,0,0,1-8-8V304a8,8,0,0,1,8-8h37.633l-5.553-38.868a8.034,8.034,0,0,1,.179-3.152L390.622,76.255,329.232,45.56,350.51,75.35a8,8,0,0,1-3.98,12.24l-14.063,4.687,10.189,15.285a8,8,0,0,1-.61,9.677L325.787,136H344a8,8,0,0,1,8,8v32a8,8,0,0,1-8,8H284.187L240,234.984V390.279a78.1,78.1,0,0,0,21,25.864h0l0,0a77.865,77.865,0,0,0,36.318,15.964C332.243,437.925,358,425.571,367.356,420.065ZM351.918,312H320v16h34.2ZM416,184c0-55.106-6.832-81.708-12.37-94.223L360.147,256.462,376.081,368H416Z"/></svg>