<svg id="Outline" xmlns="http://www.w3.org/2000/svg" viewBox="0 0 512 512"><path d="M400,480V96h-8a8,8,0,0,1,0-16h32a8,8,0,0,1,0,16h-8V480h8a8,8,0,0,1,0,16H392a8,8,0,0,1,0-16ZM88,480a8,8,0,0,0,0,16h32a8,8,0,0,0,0-16h-8V224h8a8,8,0,0,0,0-16H88a8,8,0,0,0,0,16h8V480ZM152,16a8,8,0,0,0-8,8V56a8,8,0,0,0,16,0V48H352v8a8,8,0,0,0,16,0V24a8,8,0,0,0-16,0v8H160V24A8,8,0,0,0,152,16Zm-8,128a8.005,8.005,0,0,1,1.344-4.438L160,117.578V88a8,8,0,0,1,8-8H344a8,8,0,0,1,8,8v29.578l14.656,21.984A8.005,8.005,0,0,1,368,144V488a8,8,0,0,1-8,8H296a8,8,0,0,1-7.915-6.836L256,270.985,223.915,489.164A8,8,0,0,1,216,496H152a8,8,0,0,1-8-8Zm195.719-16H296v72a24.028,24.028,0,0,1-24,24h-6.737l37.646,256H352V146.422ZM320,112h16V96H320Zm-56,0h40V96H264Zm0,96h8a8.009,8.009,0,0,0,8-8V128H264Zm-56-96h40V96H208Zm-32,0h16V96H176ZM160,480h49.091L248,215.414V128H172.281L160,146.422Z"/></svg>