<svg id="Outline" xmlns="http://www.w3.org/2000/svg" viewBox="0 0 512 512"><path d="M332.993,455.885A90.162,90.162,0,0,0,344,416V200c0-121.171-39.8-178.278-41.49-180.65a8,8,0,0,0-14.054,1.987L256,113.3,223.544,21.338A7.993,7.993,0,0,0,209.5,19.353l0,0-.054.076,0,0C207.127,22.689,168,79.841,168,200V416a90.162,90.162,0,0,0,11.007,39.885C189.174,474.186,210.784,496,256,496S322.826,474.186,332.993,455.885ZM297.667,43.313C308.6,65.837,326.752,114.639,327.936,192H296V176a24.028,24.028,0,0,0-24-24h-2.34l-5.176-14.669ZM263.975,168l.025,0,.047,0H272a8.009,8.009,0,0,1,8,8v96H232V176a8.009,8.009,0,0,1,8-8ZM280,288v24H264V288ZM214.357,43.381,252.693,152H240c-.776,0-1.543.04-2.3.113l-31.556-89.4C209.065,54.918,211.894,48.48,214.357,43.381ZM198.033,87.8l25.108,71.136A23.928,23.928,0,0,0,216,176v16H184.068C184.743,148.367,190.862,113.738,198.033,87.8Zm55.834,392.169C185.184,478.743,184.015,418.564,184,416V208h32v72a8,8,0,0,0,8,8h24v24H224a8,8,0,0,0-8,8v88a47.4,47.4,0,0,0,4.845,19.578c6.27,12.54,17.9,19.7,32.884,20.357C256.756,449.885,264,455.447,264,464,264,472.393,256.971,477.933,253.867,479.971ZM256,432c-9.956,0-16.707-3.654-20.637-11.172A32.138,32.138,0,0,1,232,408V328h48v79.965a32.131,32.131,0,0,1-3.363,12.863C272.707,428.346,265.956,432,256,432Zm20.679,46.031A31.026,31.026,0,0,0,280,464a31.781,31.781,0,0,0-6.649-19.386,35.339,35.339,0,0,0,17.8-17.036A47.4,47.4,0,0,0,296,408V208h32V416a73.929,73.929,0,0,1-8.993,32.115C310.162,464.036,295.968,474.048,276.679,478.031Z"/></svg>