<svg id="Outline" xmlns="http://www.w3.org/2000/svg" viewBox="0 0 512 512"><path d="M368,128a112,112,0,1,0-167.707,97.138l-22.949,34.424a8,8,0,0,0,.256,9.238c6.231,8.307,22.4,33.7,22.4,51.2,0,12.481,0,33.37,6.456,51.662,6.566,18.6,18.486,30.342,34.872,34.568L225.6,427.2a8,8,0,0,0-.953,7.951l24,56a8,8,0,0,0,14.706,0l24-56a8,8,0,0,0-.953-7.951l-15.728-20.97c16.386-4.226,28.306-15.964,34.872-34.568C312,353.37,312,332.481,312,320c0-17.444,16.171-42.876,22.4-51.2a8,8,0,0,0,.256-9.238l-22.949-34.424A112.071,112.071,0,0,0,368,128ZM270.825,433.1,256,467.691,241.175,433.1,256,413.333ZM318.3,263.878c-2.417,3.57-5.865,8.943-9.327,15.291C300.366,294.956,296,308.693,296,320c0,11.456,0,30.63-5.544,46.338C284.277,383.846,273.328,392,256,392s-28.277-8.154-34.456-25.662C216,350.63,216,331.456,216,320c0-20.853-15.361-45.883-22.3-56.126l21.14-31.71a110.976,110.976,0,0,0,15.949,4.974L217.14,259.884a8,8,0,0,0-.73,6.644C216.566,267,232,313.805,232,352a8,8,0,0,0,16,0c0-34.96-11.541-74.95-15.279-86.986l15.186-25.309c2.673.192,5.371.295,8.093.295s5.42-.1,8.093-.295l15.186,25.309C275.541,277.05,264,317.04,264,352a8,8,0,0,0,16,0c0-38.195,15.434-85,15.59-85.472a8,8,0,0,0-.73-6.644l-13.648-22.746a110.976,110.976,0,0,0,15.949-4.974ZM256,224a96,96,0,1,1,96-96A96.108,96.108,0,0,1,256,224Zm0-176a80,80,0,1,0,80,80A80.091,80.091,0,0,0,256,48Zm0,144a64,64,0,1,1,64-64A64.072,64.072,0,0,1,256,192Z"/></svg>