<svg id="Outline" xmlns="http://www.w3.org/2000/svg" viewBox="0 0 512 512"><path d="M312,40a24.028,24.028,0,0,0-24-24H224a24.027,24.027,0,0,0-24,24V408a7.982,7.982,0,0,0,1.152,4.109l-.012.007,48,80a8,8,0,0,0,13.72,0l48-80-.012-.007A7.985,7.985,0,0,0,312,408ZM216,144h32V385.6l-32,11.141Zm40,328.451L246.129,456h19.742ZM275.47,440H236.529l-16.607-27.679L256,399.76l36.078,12.56ZM296,396.744,264,385.6V144h32ZM296,128H216V112h80Zm0-32H216V80h80Zm0-32H216V40a8.009,8.009,0,0,1,8-8h64a8.009,8.009,0,0,1,8,8Z"/></svg>