<svg id="Outline" xmlns="http://www.w3.org/2000/svg" viewBox="0 0 512 512"><path d="M48,151.652a32.133,32.133,0,0,0,4.65-.341l29.778,70.723A100.458,100.458,0,0,0,55.8,245.857C34.7,272.631,24,310.917,24,359.652c0,40.289,10.483,72.389,31.158,95.406a99.17,99.17,0,0,0,74.07,33.046c19.934,0,40.586-5.418,56.172-10.792C213.611,494.1,243.852,496,256,496s42.389-1.9,70.6-18.688c15.587,5.374,36.237,10.792,56.172,10.792a99.17,99.17,0,0,0,74.07-33.046C477.517,432.041,488,399.941,488,359.652c0-48.735-10.7-87.021-31.8-113.795A100.952,100.952,0,0,0,431.6,223.3l26.453-56.212a32.045,32.045,0,1,0-14.472-6.823L417.447,215.79A104.755,104.755,0,0,0,376,207.652c-23.758,0-45.664,6.915-60.874,13.323a119.247,119.247,0,0,0-11.354-5.026l24.836-104.312a32.006,32.006,0,1,0-15.564-3.707L288.459,211.187a137.572,137.572,0,0,0-65.18.066L205.92,124.461a32,32,0,1,0-15.689,3.14l17.693,88.464a119.155,119.155,0,0,0-11.05,4.91c-15.21-6.408-37.116-13.323-60.874-13.323a105.446,105.446,0,0,0-39.227,7.22L67.389,145.086A31.977,31.977,0,1,0,48,151.652Zm416-32a16,16,0,1,1-16,16A16.019,16.019,0,0,1,464,119.652Zm-152-40a16,16,0,1,1,16,16A16.019,16.019,0,0,1,312,79.652Zm-120,32a16,16,0,1,1,16-16A16.018,16.018,0,0,1,192,111.652Zm184,112a89,89,0,0,1,34.634,6.616l-17.872,37.978a8,8,0,1,0,14.476,6.813l17.478-37.14C454.966,258.609,472,300.986,472,359.652c0,76.527-41.745,108.054-80.812,112.042-15.876,1.619-33.5-1.715-48.424-6.032a109.378,109.378,0,0,0,25.715-33C378.778,412.547,384,387.984,384,359.652c0-54.463-14.937-95.493-44.394-121.951-2.445-2.2-4.934-4.223-7.451-6.12C344.62,227.285,359.9,223.652,376,223.652Zm-164.885,8.365,13.04,65.2a8,8,0,0,0,15.69-3.138l-13.426-67.126a121.637,121.637,0,0,1,58.334-.207L280.218,245.8a8,8,0,1,0,15.564,3.706l4.247-17.837A98.154,98.154,0,0,1,328.915,249.6C354.85,272.9,368,309.924,368,359.652c0,47.227-15.3,81.321-45.466,101.334C296.664,478.147,267.387,480,256,480s-40.664-1.853-66.534-19.014C159.3,440.973,144,406.879,144,359.652c0-49.728,13.15-86.754,39.085-110.048A98.016,98.016,0,0,1,211.115,232.017Zm-106.488,42.74a8,8,0,0,0,14.746-6.209l-16.4-38.938A89.627,89.627,0,0,1,136,223.652c16.1,0,31.38,3.633,43.845,7.929-2.517,1.9-5.006,3.924-7.451,6.12C142.937,264.159,128,305.189,128,359.652c0,28.332,5.222,52.9,15.521,73.006a109.378,109.378,0,0,0,25.715,33c-14.921,4.318-32.544,7.653-48.424,6.032C81.745,467.706,40,436.179,40,359.652c0-59.584,17.573-102.361,48.715-122.685ZM48,103.652a16,16,0,1,1-16,16A16.019,16.019,0,0,1,48,103.652Z"/></svg>