<svg id="Outline" xmlns="http://www.w3.org/2000/svg" viewBox="0 0 512 512"><path d="M121.6,106.432l14.41,381.87a8,8,0,0,0,15.988,0l14.41-381.87a48,48,0,1,0-44.808,0ZM144,275.851l-6.2-164.265a46.617,46.617,0,0,0,12.4,0ZM144,32a32,32,0,1,1-32,32A32.036,32.036,0,0,1,144,32Zm61.03,463.428a7.992,7.992,0,0,0,10.281-4.18l155.116-349.2a47.927,47.927,0,1,0-41.606-16.632l-128.356,359.9A8,8,0,0,0,205.03,495.428ZM335.677,82.416a32,32,0,1,1,.3,24.49A32.051,32.051,0,0,1,335.677,82.416Zm6.291,53.769a47.5,47.5,0,0,0,11.51,4.6L286.751,291.007Z"/></svg>