<svg id="Outline" xmlns="http://www.w3.org/2000/svg" viewBox="0 0 512 512"><path d="M461.329,177.95c-18.721-29.79-44.933-54.018-77.907-72.012q-.122-.068-.246-.129C321.747,72.386,258.659,72,256,72s-65.745.385-127.175,33.808c-.083.042-.165.085-.247.13C95.6,123.932,69.392,148.16,50.671,177.95,27.665,214.559,16,259.66,16,312q0,.191.009.381c.14,2.944,3.991,72.57,52.31,113.437,22.286,18.849,50.229,28.343,83.287,28.343a189.367,189.367,0,0,0,19.435-1.054C194.216,470.952,222.777,480,256,480s61.769-9.043,84.943-26.88c41.651,4.313,76.206-4.862,102.738-27.3,48.319-40.867,52.17-110.493,52.31-113.437q.009-.19.009-.381C496,259.66,484.335,214.559,461.329,177.95Zm-88.084-59.311,21.169,52.933L330.3,152.337a8.007,8.007,0,0,0-7.956,2.006L256,220.686l-66.343-66.343a8,8,0,0,0-7.956-2.006l-64.115,19.235,21.169-52.933C195.805,88.442,255.4,88,256,88S316.042,88.357,373.245,118.639ZM78.731,413.669C36.768,378.251,32.224,315.372,32,311.776c.033-49.184,10.872-91.345,32.219-125.313a187.111,187.111,0,0,1,51.738-53.9l-19.385,48.47a8,8,0,0,0,9.727,10.634l56.009-16.8C142.752,202.394,112,254.785,112,312c0,51.23,15.414,96.072,42.8,126.121C124.225,438.712,98.7,430.519,78.731,413.669ZM256,464c-30.725,0-56.8-8.544-77.51-25.395C146.4,412.488,128,366.343,128,312c0-62.451,41.5-120.92,56.584-140.1l65.759,65.759a8,8,0,0,0,11.314,0l65.764-65.764C342.507,191.049,384,249.434,384,312c0,54.342-18.4,100.488-50.489,126.605C312.8,455.456,286.725,464,256,464Zm177.269-50.331c-19.965,16.85-45.493,25.042-76.071,24.451C384.587,408.072,400,363.23,400,312c0-57.215-30.752-109.606-50.308-137.14l56.009,16.8a8,8,0,0,0,9.727-10.634L396.044,132.56a187.1,187.1,0,0,1,51.737,53.9C469.128,220.431,479.967,262.59,480,311.774,479.771,315.442,475.209,378.271,433.269,413.669Z"/></svg>