<svg id="Outline" xmlns="http://www.w3.org/2000/svg" viewBox="0 0 512 512"><path d="M192,368c-17.944,0-32,21.084-32,48s14.056,48,32,48,32-21.084,32-48S209.944,368,192,368Zm0,80c-7.553,0-16-13.686-16-32s8.447-32,16-32,16,13.686,16,32S199.553,448,192,448ZM100.638,63.688h-.017a8,8,0,0,0-5.652,2.355L61.1,100.055a8,8,0,0,0-.32,10.951L208,277.156V338.5a52.2,52.2,0,0,0-16-2.5c-35.29,0-64,35.888-64,80s28.71,80,64,80,64-35.888,64-80V308l7.467-5.6-.334-.445,14.472-2.1c19.58-2.835,34.439-1.26,44.287,4.673a64,64,0,1,0,107.268-29.88h0a64.055,64.055,0,0,0-73.485-12.06,164.458,164.458,0,0,0-69.881-18.151L271.984,23.5A8,8,0,0,0,264,16H216a8,8,0,0,0-8,8V167.312L106.283,66.019A8,8,0,0,0,100.638,63.688ZM240,416c0,35.29-21.533,64-48,64s-48-28.71-48-64,21.533-64,48-64a37.7,37.7,0,0,1,19.835,5.76A8,8,0,0,0,224,350.93V336h16Zm0-96H224V295.213l6.886,7.771a8,8,0,0,0,7.136,2.612l1.978-.287Zm88.039-51.774A153.487,153.487,0,0,1,351.9,278.683a8,8,0,0,0,7.854-.129,48.037,48.037,0,0,1,58.115,7.433h0a48,48,0,1,1-79.155,18.068,8,8,0,0,0-2.315-8.707,48.245,48.245,0,0,0-16.108-9.046ZM224,160h8a8,8,0,0,0,0-16h-8V128h8a8,8,0,0,0,0-16h-8V96h8a8,8,0,0,0,0-16h-8V64h8a8,8,0,0,0,0-16h-8V32h32.484l12.237,195.781-35.968-35.819A8,8,0,0,0,232,176h-8ZM106.377,111.274a8,8,0,0,0,11.313-.023l5.646-5.669,11.337,11.29-5.645,5.668a8,8,0,1,0,11.337,11.291l5.646-5.669,11.337,11.29L151.7,145.12a8,8,0,1,0,11.337,11.291l5.645-5.669,11.337,11.29-5.645,5.668a8,8,0,1,0,11.337,11.291l5.646-5.668L202.7,184.612l-5.644,5.668a8,8,0,1,0,11.337,11.291l5.645-5.668,11.337,11.289-5.644,5.668a8,8,0,1,0,11.336,11.291l5.646-5.668,11.336,11.289L242.4,235.44a8,8,0,1,0,11.337,11.291l5.645-5.668L276.389,258a8,8,0,0,0,5.493,2.329,155.491,155.491,0,0,1,30.609,3.561l-8.174,19.07q-4.539-.443-9.471-.444a136.967,136.967,0,0,0-19.534,1.507L240,289.142,77.739,106.02,100.661,83,112,94.291l-5.645,5.669A8,8,0,0,0,106.377,111.274ZM242.343,269.657a8,8,0,1,1,11.314,0A8,8,0,0,1,242.343,269.657ZM384,351.984a31.984,31.984,0,0,0,22.628-54.611h0A32,32,0,1,0,384,351.984Zm-11.314-43.3a16,16,0,1,1,0,22.627A15.948,15.948,0,0,1,372.686,308.687Z"/></svg>