<svg id="Outline" xmlns="http://www.w3.org/2000/svg" viewBox="0 0 512 512"><path d="M351.063,167.121,343.994,103.5a88,88,0,0,0-175.988,0l-7.069,63.622a23.942,23.942,0,0,0,6.82,19.557C177.452,196.479,200,223.634,200,264c0,28.488-4.258,57.188-8.375,84.941C187.7,375.371,184,400.334,184,424c0,48.449,23.551,72,72,72s72-23.551,72-72c0-23.666-3.7-48.629-7.625-75.059C316.258,321.188,312,292.488,312,264c0-40.366,22.548-67.521,32.243-77.322A23.942,23.942,0,0,0,351.063,167.121ZM256,32a72,72,0,1,1-72,72A72.081,72.081,0,0,1,256,32Zm-8.058,235.333A184.955,184.955,0,0,0,243.358,240h25.284a184.955,184.955,0,0,0-4.584,27.333c-2.051,21-2.292,54.47,8.2,94.687,12.621,48.371,7.657,68.9,1.269,77.607-3.829,5.221-9.405,7.883-17.528,8.361-8.123-.478-13.7-3.14-17.528-8.361-6.388-8.7-11.352-29.236,1.269-77.607C250.234,321.8,249.993,288.331,247.942,267.333ZM240,224V190.538a88.282,88.282,0,0,0,32,0V224Zm92.867-48.573C321.782,186.634,296,217.7,296,264c0,29.669,4.346,58.961,8.549,87.29C308.38,377.118,312,401.515,312,424c0,39.776-16.224,56-56,56s-56-16.224-56-56c0-22.485,3.62-46.882,7.451-72.71C211.654,322.961,216,293.669,216,264c0-46.3-25.782-77.366-36.867-88.573a8.012,8.012,0,0,1-2.294-6.539l2.428-21.85A88.521,88.521,0,0,0,224,185.976V232a7.965,7.965,0,0,0,1.807,5.063c3.661,9,15.176,56.818-1.548,120.917-11.568,44.337-11.139,74.141,1.312,91.112,6.773,9.232,16.877,14.244,30.032,14.9.132.007.265.01.4.01s.265,0,.4-.01c13.155-.654,23.259-5.666,30.032-14.9,12.451-16.971,12.88-46.774,1.312-91.112-16.725-64.1-5.209-111.919-1.548-120.917A7.965,7.965,0,0,0,288,232V185.976a88.521,88.521,0,0,0,44.733-38.938l2.428,21.85A8.012,8.012,0,0,1,332.867,175.427ZM256,144a40,40,0,1,0-40-40A40.045,40.045,0,0,0,256,144Zm0-64a24,24,0,1,1-24,24A24.028,24.028,0,0,1,256,80Z"/></svg>