<svg id="Outline" xmlns="http://www.w3.org/2000/svg" viewBox="0 0 512 512"><path d="M208,496h96a8,8,0,0,0,8-8V40a8,8,0,0,0-3.563-6.657c-11.45-7.629-23.125-12.8-34.7-15.373-23.446-5.21-47.057-.037-70.173,15.374A8,8,0,0,0,200,40V488A8,8,0,0,0,208,496ZM280,36.493a92.66,92.66,0,0,1,16,7.885V480H280ZM216,464h8a8,8,0,0,0,0-16h-8V432h24a8,8,0,0,0,0-16H216V400h8a8,8,0,0,0,0-16h-8V368h24a8,8,0,0,0,0-16H216V336h8a8,8,0,0,0,0-16h-8V304h24a8,8,0,0,0,0-16H216V272h8a8,8,0,0,0,0-16h-8V240h24a8,8,0,0,0,0-16H216V208h8a8,8,0,0,0,0-16h-8V176h24a8,8,0,0,0,0-16H216V144h8a8,8,0,0,0,0-16h-8V44.374c16.234-9.981,32.029-13.881,48-11.865V49.376a24,24,0,1,0,0,45.248V480H216ZM264,72a8,8,0,1,1-8-8A8.009,8.009,0,0,1,264,72Z"/></svg>