<svg id="Outline" xmlns="http://www.w3.org/2000/svg" viewBox="0 0 512 512"><path d="M24,208H188.456l19.558,52.155c-41.03,11.22-58.469,39.945-65.774,60.114-2.069-.179-4.153-.269-6.24-.269a71.99,71.99,0,1,0,49.543,19.75c10.521-20.88,28.209-34.526,52.65-40.673l1.807,1.2V408c0,22.994,6.338,44.713,17.847,61.155C269.964,486.466,286.355,496,304,496s34.036-9.534,46.153-26.845C361.662,452.713,368,430.994,368,408s-6.338-44.713-17.847-61.155C338.036,329.534,321.645,320,304,320a47.994,47.994,0,0,0-9.063.859l8.755-30.663a8,8,0,0,0-.583-5.865L296,270.558V208H488a8,8,0,0,0,8-8V88h0a7.99,7.99,0,0,0-2.34-5.657l-64-64A7.994,7.994,0,0,0,424,16.012V16H24a8,8,0,0,0-8,8V200A8,8,0,0,0,24,208ZM168.4,338.725a8,8,0,0,0,2.394,9.393A55.915,55.915,0,1,1,146.3,336.951a8,8,0,0,0,9.168-5.643c5.912-20.486,20.828-46.482,58.189-56.111l2.854,7.612a8.006,8.006,0,0,0,3.053,3.847l1.579,1.052C190.905,299.4,175.839,321.185,168.4,338.725ZM304,336c12.272,0,24.008,7.11,33.045,20.021C346.689,369.8,352,388.258,352,408s-5.311,38.2-14.955,51.979C328.008,472.89,316.272,480,304,480s-24.008-7.11-33.045-20.021C261.311,446.2,256,427.742,256,408V296a8,8,0,0,0-3.562-6.656l-21.854-14.569-70.1-186.932,9.106-27.318L287.437,288.853l-12.229,42.831a8,8,0,0,0,11.717,9.11A33.641,33.641,0,0,1,304,336ZM263.712,208H280v31.558ZM426.831,38.145l34.175,34.174a64.642,64.642,0,0,0-33.094,4.672A57.783,57.783,0,0,1,426.831,38.145ZM32,32H248V48a8,8,0,0,0,16,0V32H412.016c-6.655,19.834-5.05,39.824,4.829,59.578a8,8,0,0,0,11.3,3.262c14.263-8.651,31.269-9.114,51.851-1.412V192H255.454L175.109,36.331a8,8,0,0,0-14.7,1.139l-16,48a8,8,0,0,0,.1,5.339L182.456,192H32ZM136,352a40,40,0,1,0,40,40A40.045,40.045,0,0,0,136,352Zm0,64a24,24,0,1,1,24-24A24.028,24.028,0,0,1,136,416Zm168,48c18.243,0,32-24.075,32-56s-13.757-56-32-56-32,24.075-32,56S285.757,464,304,464Zm0-96c6.524,0,16,15.582,16,40s-9.476,40-16,40-16-15.582-16-40S297.476,368,304,368ZM256,256a8,8,0,1,1-8-8A8,8,0,0,1,256,256Zm-8-152V80a8,8,0,0,1,16,0v24a8,8,0,0,1-16,0Zm0,56V136a8,8,0,0,1,16,0v24a8,8,0,0,1-16,0Z"/></svg>