<svg id="Outline" xmlns="http://www.w3.org/2000/svg" viewBox="0 0 512 512"><path d="M256,272a8,8,0,1,1,8-8A8,8,0,0,1,256,272ZM136,416c0-44.112,28.71-80,64-80a52.226,52.226,0,0,1,16,2.5v-7.183l-13.657-13.656a8,8,0,0,1-1.5-9.235L216,278.111V72a8,8,0,0,1,1.344-4.438l32-48a7.995,7.995,0,0,1,13.309,0l0,0,32,48A8,8,0,0,1,296,72V276.847a164.491,164.491,0,0,1,36.693,62.572,64,64,0,1,1-71.4,99.566C253.374,471.927,228.9,496,200,496,164.71,496,136,460.112,136,416ZM287,290.752l-17.965,13.474c16.753,14.5,25.777,29.488,26.848,44.65a8,8,0,0,1-4.536,7.784,47.994,47.994,0,1,0,32.916-3.085,8,8,0,0,1-5.634-5.473A148.8,148.8,0,0,0,287,290.752Zm-7.86,54.323c-1.9-7.717-6.965-15.661-15.137-23.753v36.419A63.888,63.888,0,0,1,279.137,345.075Zm-11-288.441L280,151.5V74.422ZM232,276l24,18,23.486-17.614L250.729,46.329,232,74.422ZM152,416c0,35.29,21.533,64,48,64s48-28.71,48-64V308l-21.132-15.848-9.134,18.268,11.923,11.923A8,8,0,0,1,232,328v22.93a8,8,0,0,1-12.165,6.83A37.7,37.7,0,0,0,200,352C173.533,352,152,380.71,152,416Zm16,0c0-26.916,14.056-48,32-48s32,21.084,32,48-14.056,48-32,48S168,442.916,168,416Zm16,0c0,18.314,8.447,32,16,32s16-13.686,16-32-8.447-32-16-32S184,397.686,184,416Zm128-48a32,32,0,1,1-32,32A32.036,32.036,0,0,1,312,368Zm-16,32a16,16,0,1,0,16-16A16.019,16.019,0,0,0,296,400Z"/></svg>