<svg id="Outline" xmlns="http://www.w3.org/2000/svg" viewBox="0 0 512 512"><path d="M120,496A104.039,104.039,0,0,0,221.131,367.7L237.9,349.406a8.02,8.02,0,0,0,1.693-2.876c.226-.681,3.3-10.381.51-23.718l19.919-19.919a24,24,0,0,0,33.153-.751L479.716,115.6a56,56,0,0,0,0-79.2L475,31.681a56,56,0,0,0-79.2,0L209.256,218.225A23.993,23.993,0,0,0,209.092,252l-19.9,19.9c-13.337-2.794-23.036.283-23.718.511a7.989,7.989,0,0,0-2.876,1.692L144.3,290.87A104,104,0,1,0,120,496ZM407.113,43a40.045,40.045,0,0,1,56.568,0l4.72,4.721a40.043,40.043,0,0,1,0,56.568L304,268.686,242.711,207.4ZM220.569,229.539,231.4,218.711,292.686,280l-10.829,10.829a8,8,0,0,1-11.312,0l-49.977-49.976a8,8,0,0,1,0-11.314Zm-.167,33.775L248.686,291.6l-14.779,14.779a76.083,76.083,0,0,0-28.284-28.284Zm-48.479,23.943c4.939-.994,21.4-2.625,38.42,14.4,17.073,17.072,15.386,33.57,14.408,38.412L143.686,428.5a8.018,8.018,0,0,1-6.891,2.534l-49.629-6.2-6.2-49.628a8.013,8.013,0,0,1,2.533-6.89ZM120,304a88.9,88.9,0,0,1,9.43.5L72.684,356.521a24.042,24.042,0,0,0-7.6,20.668l6.976,55.8a8,8,0,0,0,6.946,6.946l55.8,6.976a24.021,24.021,0,0,0,20.668-7.6L207.5,382.57A88,88,0,1,1,120,304Zm0,112a24,24,0,1,0-24-24A24.027,24.027,0,0,0,120,416Zm0-32a8,8,0,1,1-8,8A8.009,8.009,0,0,1,120,384Z"/></svg>