<svg id="Outline" xmlns="http://www.w3.org/2000/svg" viewBox="0 0 512 512"><path d="M296,152a40.191,40.191,0,0,0,16-32V24a8,8,0,0,0-14.247-5l-32,40A8,8,0,0,0,264,64V96c0,14.437-6.59,15.864-8.143,16C248.44,111.8,248,96.133,248,95.974h0A24,24,0,0,0,200,96c0,35.47,22.262,54.082,32,60.525V224a8,8,0,0,0-8,8v24a8,8,0,0,0-8,8V456a40,40,0,0,0,80,0V264a8,8,0,0,0-8-8V232a8,8,0,0,0-8-8V164ZM216,96a8,8,0,1,1,8,8A8.009,8.009,0,0,1,216,96Zm64,360a24,24,0,0,1-48,0V272h48ZM240,256V240h32v16Zm27.2-102.4A8,8,0,0,0,264,160v64H248V152a8,8,0,0,0-4.422-7.155A55.3,55.3,0,0,1,220.962,119.8,24.17,24.17,0,0,0,224,120a23.858,23.858,0,0,0,12.917-3.788C240.547,122.8,246.538,128,256,128c.24,0,24-.366,24-32V66.806l16-20V120a24.116,24.116,0,0,1-9.6,19.2Z"/></svg>