<svg id="Outline" xmlns="http://www.w3.org/2000/svg" viewBox="0 0 512 512"><path d="M488,88H24a8,8,0,0,0-8,8V352a8,8,0,0,0,2.343,5.657l64,64A8,8,0,0,0,88,424H488a8,8,0,0,0,8-8V96A8,8,0,0,0,488,88ZM72.178,388.864,38.159,354.845a57.856,57.856,0,0,1,39.276,1.234A75.223,75.223,0,0,0,72.178,388.864ZM480,408H93.131c-7.461-17.578-6.8-34.774,2.024-52.422a8,8,0,0,0-3.577-10.733C71.822,334.966,51.832,333.36,32,340.016V288H480Zm0-184H432a8,8,0,0,0,0,16h48v32H32V240H80a8,8,0,0,0,0-16H32V104H480Zm-376,8a8,8,0,0,1,8-8h48a8,8,0,0,1,0,16H112A8,8,0,0,1,104,232Zm80,0a8,8,0,0,1,8-8h48a8,8,0,0,1,0,16H192A8,8,0,0,1,184,232Zm80,0a8,8,0,0,1,8-8h48a8,8,0,0,1,0,16H272A8,8,0,0,1,264,232Zm80,0a8,8,0,0,1,8-8h48a8,8,0,0,1,0,16H352A8,8,0,0,1,344,232Z"/></svg>