<svg id="Outline" xmlns="http://www.w3.org/2000/svg" viewBox="0 0 512 512"><path d="M32.018,183.468a8,8,0,0,0,15.964,1.064c3.112-46.666,20.108-79.739,50.518-98.3a98.434,98.434,0,0,1,19.761-9.183l3.55,29.258c.013.108.037.213.054.32h-.01L184.1,489.285A8,8,0,0,0,191.991,496a8.322,8.322,0,0,0,.967-.059,8,8,0,0,0,7.018-8.571L169.494,100.862h-.01c-.009-.112-.01-.223-.024-.336l-3.238-26.691c17.979,4.585,44.444,18.332,66.8,58.086,23.2,41.237,54.245,65.846,92.285,73.144a127.266,127.266,0,0,0,24.023,2.223c52.1,0,103.227-29.311,127.691-49.065a8,8,0,1,0-10.052-12.448c-2.868,2.315-71,56.56-138.648,43.577-33.2-6.37-60.573-28.332-81.353-65.275-22.351-39.734-49.088-56.131-67.582-62.89a92.538,92.538,0,0,0-15.207-4.147l-2.432-20.048A24,24,0,1,0,114.1,42.774L116.3,60.85A115.43,115.43,0,0,0,90.884,72.14C46.593,98.715,34.426,147.349,32.018,183.468ZM168.8,295.542,138.986,112.283l15.213-1.845ZM152.613,94.513,136.73,96.439,133.9,73.092A71.457,71.457,0,0,1,144,72a8.1,8.1,0,0,0,1.263-.1,34.308,34.308,0,0,1,4.577-.246ZM131.63,34.949a7.945,7.945,0,0,1,5.334-3.007,8.064,8.064,0,0,1,.979-.06,8,8,0,0,1,7.926,7.038L147.905,55.7c-2.131.058-3.666.207-4.49.306a87.672,87.672,0,0,0-11.449,1.165l-1.981-16.326A7.954,7.954,0,0,1,131.63,34.949Z"/></svg>