<svg id="Outline" xmlns="http://www.w3.org/2000/svg" viewBox="0 0 512 512"><path d="M279.8,104a24,24,0,0,0-48,0v48c0,.128.013.253.019.38h-.01l16,336a8,8,0,0,0,15.982,0l16-336h-.01c.006-.127.019-.252.019-.38Zm-24,215.81L248.191,160h15.22Zm8-175.81h-16V104a8,8,0,0,1,16,0ZM376.25,64.566l-6.941,47.5c-.019.126-.024.252-.036.378h-.01L336.5,447.221a8,8,0,0,0,6.805,8.695,8.086,8.086,0,0,0,1.166.085,8,8,0,0,0,7.842-6.469l64.423-330.154h-.008c.025-.125.054-.247.073-.374l6.942-47.5a24,24,0,0,0-47.5-6.941Zm-7.462,217.009,15.581-159.227,15.06,2.2ZM407.914,69.193l-5.785,39.58L386.3,106.459l5.784-39.579a8,8,0,0,1,15.832,2.313ZM95.2,119c.018.126.049.249.073.373l-.009,0,64.423,330.154A8,8,0,0,0,167.527,456a8.083,8.083,0,0,0,1.165-.085,8,8,0,0,0,6.805-8.695l-32.76-334.782h-.01c-.012-.126-.017-.252-.036-.378l-6.941-47.5a24,24,0,0,0-47.5,6.941Zm48.016,162.575L112.571,124.549l15.06-2.2ZM105.587,63.257a7.948,7.948,0,0,1,5.258-3.136,7.994,7.994,0,0,1,9.073,6.758l5.785,39.58-15.832,2.314-5.785-39.579A7.948,7.948,0,0,1,105.587,63.257Z"/></svg>