<svg id="Outline" xmlns="http://www.w3.org/2000/svg" viewBox="0 0 512 512"><path d="M192,136a8,8,0,0,1,8-8H312a8,8,0,0,1,0,16H200A8,8,0,0,1,192,136Zm88,296H232a8,8,0,0,0,0,16h48a8,8,0,0,0,0-16ZM112,280V200a24.028,24.028,0,0,1,24-24H344a24.028,24.028,0,0,1,24,24h8a24.028,24.028,0,0,1,24,24v32a24.028,24.028,0,0,1-24,24h-8v96a24.028,24.028,0,0,1-24,24H128a8,8,0,0,1-8-8V344a24.028,24.028,0,0,1,24-24v-8h-8a8,8,0,0,1,0-16h8v-8H120A8,8,0,0,1,112,280Zm256-16h8a8.009,8.009,0,0,0,8-8V224a8.009,8.009,0,0,0-8-8h-8ZM160,224h16V192H160Zm0,48h35.056l13.789-27.578A8,8,0,0,1,216,240h48a8,8,0,0,1,8,8v80a8,8,0,0,1-8,8H144a8.009,8.009,0,0,0-8,8v40H344a8.009,8.009,0,0,0,8-8V200a8.009,8.009,0,0,0-8-8H192v40a8,8,0,0,1-8,8H160Zm0,48h96V256H220.944l-13.789,27.578A8,8,0,0,1,200,288H160Zm-32-48h16V192h-8a8.009,8.009,0,0,0-8,8Zm160-8a24,24,0,1,1,24,24A24.028,24.028,0,0,1,288,264Zm16,0a8,8,0,1,0,8-8A8.009,8.009,0,0,0,304,264Zm-16,80V312a8,8,0,0,1,8-8h32a8,8,0,0,1,8,8v32a8,8,0,0,1-8,8H296A8,8,0,0,1,288,344Zm16-8h16V320H304ZM440,16a8,8,0,0,1,8,8V488a8,8,0,0,1-8,8H104a40.045,40.045,0,0,1-40-40V56a40.045,40.045,0,0,1,40-40Zm-8,427.314L395.314,480H432ZM420.687,432H384v36.687ZM432,96H104a39.788,39.788,0,0,1-24-8.022V456a24.028,24.028,0,0,0,24,24H368V424a8,8,0,0,1,8-8h56Zm0-64H104a24,24,0,0,0,0,48H432V64H120a8,8,0,0,1,0-16H432Z"/></svg>