<svg id="Outline" xmlns="http://www.w3.org/2000/svg" viewBox="0 0 512 512"><path d="M494.86,99.884l-48-80A8,8,0,0,0,440,16H72a8,8,0,0,0-6.86,3.884l-48,80,.007,0A7.954,7.954,0,0,0,16,104V488a8,8,0,0,0,8,8H488a8,8,0,0,0,8-8V104a7.954,7.954,0,0,0-1.147-4.112ZM76.529,32H435.471l38.4,64H352V72a8,8,0,0,0-8-8H184a8,8,0,0,0-8,8V96H38.13ZM336,80V96H192V80ZM32,384H160v16H32Zm88-32a8,8,0,0,0,8-8V296a8,8,0,0,0-8-8H88a8,8,0,0,0-8,8v8H64V280a8.009,8.009,0,0,1,8-8h64a8.009,8.009,0,0,1,8,8v88H64V352ZM80,336V320h8a8,8,0,0,0,8-8v-8h16v32ZM32,416H144v32H32Zm304,64H32V464H336ZM233.207,448c1.94-6.575,5.976-12.765,14.793-15.06V448Zm9.323-111.59a8,8,0,0,0-10.12,5.06L226.233,360H208.691c4.485-27.324,29.283-58.66,29.556-59a8,8,0,0,0,1.181-7.969l-10.515-26.288,25.518,5.1a8.019,8.019,0,0,0,3.138,0l25.518-5.1-10.515,26.288A8,8,0,0,0,273.753,301a199.369,199.369,0,0,1,15.3,22.971c7.679,13.439,12.515,25.716,14.238,36.031H285.767l-6.177-18.53a8,8,0,1,0-15.18,5.06L268.9,360H243.1l4.49-13.47A8,8,0,0,0,242.53,336.41Zm25.032-89.754,7.931,5.287L256,255.842l-19.493-3.9,7.931-5.287A8,8,0,0,0,248,240V224h16v16A8,8,0,0,0,267.562,246.656ZM264,432.94c8.817,2.3,12.853,8.485,14.793,15.06H264ZM336,448H295.2c-3.776-17.706-14.767-28.743-31.2-31.38V376h15.974l.025,0,.024,0H312a8,8,0,0,0,8-8c0-28.808-22.689-62.138-30.888-73.239l14.316-35.79a8,8,0,0,0-2.99-9.627L280,235.719V216a8,8,0,0,0-8-8H240a8,8,0,0,0-8,8v19.719l-20.438,13.625a8,8,0,0,0-2.99,9.627l14.316,35.79C214.689,305.862,192,339.192,192,368a8,8,0,0,0,8,8h31.977l.024,0,.025,0H248v40.62c-16.435,2.637-27.426,13.674-31.2,31.38H160V416h8a8,8,0,0,0,8-8V376a8,8,0,0,0-8-8h-8V280a24.028,24.028,0,0,0-24-24V240a8,8,0,0,0-16,0v16H72a24.028,24.028,0,0,0-24,24v32a8,8,0,0,0,8,8h8v16H56a8,8,0,0,0-8,8v24H32V137.889l8.845,17.689A8,8,0,0,0,48,160H80a8,8,0,0,0,5.657-2.343L96,147.313l10.343,10.344A8,8,0,0,0,112,160h32a8,8,0,0,0,5.657-2.343L160,147.313l10.343,10.344A8,8,0,0,0,176,160h32a8,8,0,0,0,5.657-2.343L224,147.313l10.343,10.344A8,8,0,0,0,240,160h32a8,8,0,0,0,5.657-2.343L288,147.313l10.343,10.344A8,8,0,0,0,304,160h32Zm-3.313-304H307.313l-13.656-13.657a8,8,0,0,0-11.314,0L268.687,144H243.313l-13.656-13.657a8,8,0,0,0-11.314,0L204.687,144H179.313l-13.656-13.657a8,8,0,0,0-11.314,0L140.687,144H115.313l-13.656-13.657a8,8,0,0,0-11.314,0L76.687,144H52.944l-16-32H475.056l-16,32H435.313l-13.656-13.657a8,8,0,0,0-11.314,0L396.687,144H371.313l-13.656-13.657a8,8,0,0,0-11.314,0ZM480,480H352V464H480Zm0-32H352V147.313l10.343,10.344A8,8,0,0,0,368,160h32a8,8,0,0,0,5.657-2.343L416,147.313l10.343,10.344A8,8,0,0,0,432,160h32a8,8,0,0,0,7.155-4.422L480,137.889ZM376,304a8,8,0,1,1-8,8A8,8,0,0,1,376,304Zm-8,24v96a8,8,0,0,0,8,8h80a8,8,0,0,0,8-8V328a8,8,0,0,0-8-8H376A8,8,0,0,0,368,328Zm56,8h24v80H424Zm-40,0h24v80H384Zm32-160a48.053,48.053,0,0,0-48,48v72a8,8,0,0,0,8,8h80a8,8,0,0,0,8-8V224A48.053,48.053,0,0,0,416,176Zm-32,48a32.057,32.057,0,0,1,24-30.987V288H384Zm64,64H424V193.013A32.057,32.057,0,0,1,448,224Z"/></svg>