<svg id="Outline" xmlns="http://www.w3.org/2000/svg" viewBox="0 0 512 512"><path d="M256,488V104a8,8,0,0,0-4.849-7.354c-.53-.226-53.318-23.345-75.8-75.8a8,8,0,0,0-9.883-4.439l-96,32a8,8,0,0,0-5.106,9.977A236.823,236.823,0,0,1,73,126.8c-1.254,48.932-19.186,84.749-53.3,106.456a8,8,0,0,0-3.558,8.277c2.77,14.235,6.042,28.376,9.207,42.053C32.886,316.134,40,346.881,40,376c0,44.4-5.08,80.151-15.531,109.3A8,8,0,0,0,32,496H248A8,8,0,0,0,256,488ZM240,375.987H224a8,8,0,0,0,0,16h16V480H160V464a8,8,0,0,0-16,0v16H43.059C51.757,451.227,56,417.058,56,376c0-30.946-7.314-62.558-15.058-96.025-2.743-11.856-5.568-24.066-8.052-36.288C68.3,218.97,87.674,178.828,89,127.205A256.257,256.257,0,0,0,81.7,61.2l82.026-27.342C185.69,78.572,226.019,102,240,109.053ZM492.438,89.344a348.673,348.673,0,0,1-46.781-39C419.314,24,392.734,24,384,24s-35.314,0-61.657,26.343a350.092,350.092,0,0,1-46.781,39,8,8,0,0,0-3.487,7.749l32,232A8,8,0,0,0,312,336H456a8,8,0,0,0,7.925-6.907l32-232A8,8,0,0,0,492.438,89.344ZM449.028,320H318.972L288.6,99.769a369.2,369.2,0,0,0,45.061-38.112C355.314,40,376.905,40,384,40s28.686,0,50.343,21.657A369.2,369.2,0,0,0,479.4,99.769ZM144,80V64a8,8,0,0,1,16,0V80a8,8,0,0,1-16,0Zm232,0V64a8,8,0,0,1,16,0V80a8,8,0,0,1-16,0Zm16,56v16a8,8,0,0,1-16,0V136a8,8,0,0,1,16,0Zm0,48v16a8,8,0,0,1-16,0V184a8,8,0,0,1,16,0Zm0,48v16a8,8,0,0,1-16,0V232a8,8,0,0,1,16,0Zm0,48v16a8,8,0,0,1-16,0V280a8,8,0,0,1,16,0ZM72,264H56a8,8,0,0,1,0-16H72a8,8,0,0,1,0,16ZM384,432a8,8,0,0,1-8,8H360a8,8,0,0,1,0-16h16A8,8,0,0,1,384,432Zm16,0a8,8,0,0,1,8-8h16a8,8,0,0,1,0,16H408A8,8,0,0,1,400,432Zm96-48a8,8,0,0,0-8-8H296a8,8,0,0,0-8,8v96a8,8,0,0,0,8,8H488a8,8,0,0,0,8-8V384Zm-16,40H456a8,8,0,0,0,0,16h24v32H400V456a8,8,0,0,0-16,0v16H304V440h24a8,8,0,0,0,0-16H304V392h80v8a8,8,0,0,0,16,0v-8h80ZM328,104a8,8,0,0,1-8,8h-8a8,8,0,0,1,0-16h8A8,8,0,0,1,328,104Zm48,0a8,8,0,0,1-8,8H352a8,8,0,0,1,0-16h16A8,8,0,0,1,376,104Zm48,0a8,8,0,0,1-8,8H400a8,8,0,0,1,0-16h16A8,8,0,0,1,424,104Zm16,0a8,8,0,0,1,8-8h8a8,8,0,0,1,0,16h-8A8,8,0,0,1,440,104ZM104,384.007a8,8,0,0,1-8,8H80a8,8,0,0,1,0-16H96A8,8,0,0,1,104,384.007ZM144,392H128a8,8,0,0,1,0-16h16a8,8,0,0,1,0,16Zm56-8.007a8,8,0,0,1-8,8H176a8,8,0,1,1,0-16h16A8,8,0,0,1,200,383.993ZM96,256a8,8,0,0,1,8-8h16a8,8,0,0,1,0,16H104A8,8,0,0,1,96,256Zm48,0a8,8,0,0,1,8-8h16a8,8,0,0,1,0,16H152A8,8,0,0,1,144,256Zm48,0a8,8,0,0,1,8-8h16a8,8,0,0,1,0,16H200A8,8,0,0,1,192,256ZM144,128V112a8,8,0,0,1,16,0v16a8,8,0,0,1-16,0Zm0,48V160a8,8,0,0,1,16,0v16a8,8,0,0,1-16,0Zm0,48V208a8,8,0,0,1,16,0v16a8,8,0,0,1-16,0Zm16,64v16a8,8,0,0,1-16,0V288a8,8,0,0,1,16,0Zm0,48v16a8,8,0,0,1-16,0V336a8,8,0,0,1,16,0Zm0,80v16a8,8,0,0,1-16,0V416a8,8,0,0,1,16,0Z"/></svg>