<svg id="Outline" xmlns="http://www.w3.org/2000/svg" viewBox="0 0 512 512"><path d="M152,80a8,8,0,0,0-6.146,13.121L184,138.9V387.719l-20.438,13.625A8,8,0,0,0,160,408v80a8,8,0,0,0,8,8H304a8,8,0,0,0,8-8V400a8,8,0,0,0-2.343-5.657L291.313,376H304a8,8,0,0,0,8-8V312a8,8,0,0,0-1.6-4.8L296,288h8a8,8,0,0,0,8-8V224a8,8,0,0,0-1.14-4.116L294.129,192H304a8,8,0,0,0,8-8V144h8a8,8,0,0,0,6.146-2.879l40-48A8,8,0,0,0,360,80H312V24a8,8,0,0,0-8-8H168a8,8,0,0,0-6.4,12.8L184,58.667V80Zm17.081,16H184v17.9ZM312,96h30.919l-26.666,32H312a8,8,0,0,0-1.6-4.8L296,104h8A8,8,0,0,0,312,96ZM280,32h16V88H280Zm0,77.333,16,21.334V176H280Zm0,90.216,16,26.667V272H280Zm0,93.784,16,21.334V360H280Zm0,93.981,16,16V480H280ZM248,32h16V49.458A26.472,26.472,0,0,0,256.25,48,22.945,22.945,0,0,0,248,49.3Zm0,35.542c2.859-2.339,5.59-3.624,7.752-3.546,3.147.1,6.213,1.91,8.248,3.5V80H248ZM248,96h16v32H248Zm0,48h16V428.458c-2.862,2.339-5.6,3.625-7.752,3.546-3.147-.1-6.213-1.91-8.248-3.5Zm0,302.542A26.472,26.472,0,0,0,255.75,448c.222.007.443.011.665.011A23.24,23.24,0,0,0,264,446.682V480H248ZM208,384h-8V352h8a8,8,0,0,0,0-16h-8V304h8a8,8,0,0,0,0-16h-8V256h8a8,8,0,0,0,0-16h-8V208h8a8,8,0,0,0,0-16h-8V160h8a8,8,0,0,0,0-16h-8V112h8a8,8,0,0,0,0-16h-8V64h8a8,8,0,0,0,0-16H196L184,32h48V480H176V412.281L194.422,400H208a8,8,0,0,0,0-16Z"/></svg>