<svg id="Outline" xmlns="http://www.w3.org/2000/svg" viewBox="0 0 512 512"><path d="M472,96h-8V88a40.045,40.045,0,0,0-40-40h-8V32h8a8,8,0,0,0,0-16H392a8,8,0,0,0,0,16h8V48H368V24a8,8,0,0,0-16,0V48H336V24a8,8,0,0,0-8-8H200a8,8,0,0,0-8,8V48H56A40.045,40.045,0,0,0,16,88V232a40.045,40.045,0,0,0,40,40H96v48H88a8,8,0,0,0,0,16h8v16H56a40.045,40.045,0,0,0-40,40v64a40.045,40.045,0,0,0,40,40H424a40.045,40.045,0,0,0,40-40V208h8a24.027,24.027,0,0,0,24-24V120A24.027,24.027,0,0,0,472,96ZM304,32h16V48H304Zm-64,0h48V48H240Zm-32,0h16V48H208ZM96,64h32V256H112V104a8,8,0,0,0-8-8H96Zm32,232H112V272h72a8,8,0,0,0,6.86-3.884L212.529,232H272V352H112V312h16a8,8,0,0,0,0-16ZM56,256a24.027,24.027,0,0,1-24-24V88A24.027,24.027,0,0,1,56,64H80v40a8,8,0,0,0,8,8h8V256ZM240,480H56a24.027,24.027,0,0,1-24-24V416H240Zm0-80H32v-8a24.027,24.027,0,0,1,24-24H240Zm208,56a24.027,24.027,0,0,1-24,24H256V368h24a8,8,0,0,0,8-8V224a8,8,0,0,0-8-8H208a8,8,0,0,0-6.86,3.884L179.471,256H144V64H424a24.027,24.027,0,0,1,24,24Zm32-272a8.009,8.009,0,0,1-8,8h-8V112h8a8.009,8.009,0,0,1,8,8ZM360,144a56,56,0,1,0,56,56A56.064,56.064,0,0,0,360,144Zm32,64H399.2A40.118,40.118,0,0,1,368,239.2V232a8,8,0,0,0-16,0V239.2A40.118,40.118,0,0,1,320.805,208H328a8,8,0,0,0,0-16h-7.195A40.118,40.118,0,0,1,352,160.805V168a8,8,0,0,0,16,0v-7.195A40.118,40.118,0,0,1,399.2,192H392a8,8,0,0,0,0,16ZM184,152a24,24,0,1,0,24,24A24.027,24.027,0,0,0,184,152Zm0,32a8,8,0,1,1,8-8A8.009,8.009,0,0,1,184,184ZM376,296H344a24.028,24.028,0,0,0-24,24v32a24.028,24.028,0,0,0,24,24h32a24.028,24.028,0,0,0,24-24V320A24.028,24.028,0,0,0,376,296Zm8,56a8.009,8.009,0,0,1-8,8H344a8.009,8.009,0,0,1-8-8v-8h48Zm0-24H336v-8a8.009,8.009,0,0,1,8-8h32a8.009,8.009,0,0,1,8,8Z"/></svg>