<svg id="Outline" xmlns="http://www.w3.org/2000/svg" viewBox="0 0 512 512"><path d="M392,408V128a8,8,0,0,0-9.431-7.871c-.2.036-20.432,3.56-48.27-4.792-47.179-14.153-77.966-51.061-95.486-79.529a8,8,0,0,0-10.391-2.963l-96,48a8,8,0,0,0-3.733,10.4C129,91.953,160,162.5,160,224c0,56.053-32.275,63.867-33.569,64.155a8,8,0,0,0-6.253,9.521l24,112A8,8,0,0,0,152,416H384A8,8,0,0,0,392,408ZM328,288h-8a8,8,0,0,0,0,16h8v96H158.467L137.29,301.171a56.487,56.487,0,0,0,16.367-11.514C172.124,271.19,176,243.76,176,224c0-53.938-21.624-112.251-29.721-132.195l82.837-41.418C262,100.661,300.482,121.519,328,130.135Zm48,112H344V134.205a136.747,136.747,0,0,0,32,2.571ZM216,192a8,8,0,0,1-8,8H192a8,8,0,0,1,0-16h16A8,8,0,0,1,216,192ZM200,296a8,8,0,0,1-8,8H176a8,8,0,0,1,0-16h16A8,8,0,0,1,200,296Zm48,0a8,8,0,0,1-8,8H224a8,8,0,0,1,0-16h16A8,8,0,0,1,248,296Zm16,0a8,8,0,0,1,8-8h16a8,8,0,0,1,0,16H272A8,8,0,0,1,264,296Zm-8-112a8,8,0,0,1,0,16H240a8,8,0,0,1,0-16Zm24,8a8,8,0,0,1,8-8h16a8,8,0,0,1,0,16H288A8,8,0,0,1,280,192ZM72,400V304H64a8,8,0,0,1,0-16H96a8,8,0,0,1,0,16H88v96h8a8,8,0,0,1,0,16H64a8,8,0,0,1,0-16ZM336,56v8h32V56a8,8,0,0,1,16,0V88a8,8,0,0,1-16,0V80H336v8a8,8,0,0,1-16,0V56a8,8,0,0,1,16,0Zm32,416v-8H160v8a8,8,0,0,1-16,0V440a8,8,0,0,1,16,0v8H368v-8a8,8,0,0,1,16,0v32a8,8,0,0,1-16,0Zm72-336V400h8a8,8,0,0,1,0,16H416a8,8,0,0,1,0-16h8V136h-8a8,8,0,0,1,0-16h32a8,8,0,0,1,0,16Z"/></svg>