<svg id="Outline" xmlns="http://www.w3.org/2000/svg" viewBox="0 0 512 512"><path d="M16,200V424a8,8,0,0,0,8,8H400a8,8,0,0,0,5.657-2.343l72-72A8,8,0,0,0,480,352V207q7.567-13.014,14.655-27.478a8,8,0,0,0-2.959-10.319c-85.865-53.367-163.422-80.868-251.471-89.17a8.006,8.006,0,0,0-8.6,6.424c-7.521,38.307-9.618,72.84-5.86,105.541H24A8,8,0,0,0,16,200ZM415.233,397.454c1.945-14.883.413-28.619-4.628-41.436,13.8-5.179,29.179-5.348,46.583-.519ZM245.978,96.7c80.388,8.64,152.232,34.227,231.064,82.277-20.948,41.079-44.148,71.249-72.646,94.562-27.577,22.559-61.3,39.523-105.787,53.167C245.533,252.66,230.059,185.165,245.978,96.7ZM32,344H72a8,8,0,0,0,0-16H32V208H228.094c7.287,41.119,24.28,79.766,51.887,120H264a8,8,0,0,0,0,16h32a7.96,7.96,0,0,0,3.725-.923C375.137,320.512,425.05,287.559,464,232.083V340.8c-25.446-7.636-47.679-6.274-67.683,4.1a8,8,0,0,0-3.42,10.786c8.944,17.246,9.442,37.023,1.5,60.317H32Zm128-8a8,8,0,0,1-8,8H104a8,8,0,0,1,0-16h48A8,8,0,0,1,160,336Zm80,0a8,8,0,0,1-8,8H184a8,8,0,0,1,0-16h48A8,8,0,0,1,240,336Zm95.407-56.035a64.015,64.015,0,1,0-20.387-3.357A64.116,64.116,0,0,0,335.407,279.965ZM289.972,200.63a48,48,0,1,1,30.157,60.816A48.084,48.084,0,0,1,289.972,200.63Zm45.461,47.332a32.006,32.006,0,1,0-10.194-1.678A32.06,32.06,0,0,0,335.433,247.962ZM320.3,210.85a16,16,0,1,1,10.053,20.272A16.03,16.03,0,0,1,320.3,210.85Z"/></svg>