<svg id="Outline" xmlns="http://www.w3.org/2000/svg" viewBox="0 0 512 512"><path d="M128.845,275.578c1.041,2.081,25.952,49.706,119.155,52.305v80.586c-25.454,3.063-41.995,21.119-46.93,51.623A23.75,23.75,0,0,1,177.422,480H176a8,8,0,0,0,0,16h1.422a39.685,39.685,0,0,0,39.443-33.354c3.614-22.339,14.074-35.081,31.135-38V488a8,8,0,0,0,16,0V424.651c17.061,2.914,27.522,15.656,31.135,38A39.687,39.687,0,0,0,334.577,496H336a8,8,0,0,0,0-16h-1.423a23.75,23.75,0,0,1-23.647-19.908c-4.934-30.5-21.475-48.56-46.93-51.623V327.883c93.2-2.6,118.114-50.224,119.155-52.305a8,8,0,0,0-1.209-8.93l-69.153-76.836L335.761,97.94a8,8,0,0,0-4.79-9.368l-36.2-14.48L287.761,46.06A8,8,0,0,0,280,40H264V24a8,8,0,0,0-16,0V40H232a8,8,0,0,0-7.761,6.06l-7.008,28.032-36.2,14.48a8,8,0,0,0-4.79,9.368l22.968,91.872-69.153,76.836A8,8,0,0,0,128.845,275.578ZM198.1,119.412l-4.644-18.578,33.516-13.406a8,8,0,0,0,4.79-5.488L238.246,56h35.508l6.485,25.94a8,8,0,0,0,4.79,5.488l33.516,13.406L313.9,119.412A46.911,46.911,0,0,0,288,112c-12.985,0-25.127,7.88-32,13.358C249.127,119.88,236.986,112,224,112A46.906,46.906,0,0,0,198.1,119.412Zm15.847,77.94a8,8,0,0,0,1.815-7.292l-13.424-53.7A30.334,30.334,0,0,1,224,128c10.32,0,22.523,9.866,26.343,13.657a8.015,8.015,0,0,0,11.3.011C265.477,137.866,277.68,128,288,128a30.336,30.336,0,0,1,21.663,8.362l-13.424,53.7a8,8,0,0,0,1.815,7.292l67.881,75.422c-5.769,7.533-20.985,23.054-53.2,32.151L287.59,229.471a8,8,0,1,0-15.179,5.058l24.665,74.006A228.487,228.487,0,0,1,256,312a226.213,226.213,0,0,1-41.06-3.515l24.649-73.956a8,8,0,1,0-15.178-5.058l-25.126,75.386c-15-4.251-26.024-9.782-33.8-14.827A78.024,78.024,0,0,1,146.1,272.742Z"/></svg>