<svg id="Outline" xmlns="http://www.w3.org/2000/svg" viewBox="0 0 512 512"><path d="M160,168a8,8,0,1,1,8,8A8,8,0,0,1,160,168Zm72,8a8,8,0,1,0-8-8A8,8,0,0,0,232,176Zm-51.578,31.155,16,8a8,8,0,0,0,7.156,0l16-8a8,8,0,1,0-7.156-14.31L200,199.056l-12.422-6.211a8,8,0,1,0-7.156,14.31ZM496,320V472a24.028,24.028,0,0,1-24,24H24a8,8,0,0,1-8-8V280a8,8,0,0,1,5.191-7.491L135.878,229.5A72.038,72.038,0,0,1,113.814,192H104a24.027,24.027,0,0,1-24-24V152a24.039,24.039,0,0,1,16-22.624V88a72.081,72.081,0,0,1,72-72h64a72.081,72.081,0,0,1,72,72v41.376A24.039,24.039,0,0,1,320,152v16a24.027,24.027,0,0,1-24,24h-9.814a72.038,72.038,0,0,1-22.064,37.5L378.809,272.51A8,8,0,0,1,384,280v16h24V272a8,8,0,0,1,8-8h32a8,8,0,0,1,8,8v24h16A24.028,24.028,0,0,1,496,320Zm-72-24h16V280H424ZM321.253,268.014l-20.118,28.163A24.19,24.19,0,0,1,304,296h64V285.544ZM207.494,426.8l0,.007-7.429,19.82L280,350.7V329.889l-7.155-14.311a8,8,0,0,1,.645-8.228L305.744,262.2l-32.022-12.009Zm-23.311-67.766L200,401.215l15.817-42.18L208.938,304H191.062ZM190.559,288h18.882l5.5-27.5L200,249.831,185.059,260.5Zm33.54,8.3,3.811,30.489,16.865-44.973L229.218,270.7Zm26.492-29.992,8.149-21.734-10.82-4.057a71.443,71.443,0,0,1-23.643,7ZM296,144h-8v32h8a8.009,8.009,0,0,0,8-8V152A8.009,8.009,0,0,0,296,144Zm-184,0h-8a8.009,8.009,0,0,0-8,8v16a8.009,8.009,0,0,0,8,8h8Zm12.861-21.378C137.561,116.085,144,104.437,144,88a8,8,0,0,1,14.146-5.121l20.81,24.972A55.851,55.851,0,0,0,221.976,128H288V88a56.063,56.063,0,0,0-56-56H168a56.063,56.063,0,0,0-56,56v39.021A49.814,49.814,0,0,0,124.861,122.622ZM184,232h32a56.063,56.063,0,0,0,56-56V144H221.976a71.8,71.8,0,0,1-55.312-25.907l-9.282-11.139c-4.955,16.367-16.08,25.339-25.8,30.2-1.2.6-2.392,1.142-3.578,1.64V176A56.063,56.063,0,0,0,184,232Zm-28.775,49.813,16.865,44.974L175.9,296.3l-5.119-25.6Zm20.5-34.3a71.443,71.443,0,0,1-23.643-7l-10.82,4.057,8.149,21.734ZM64,464H32v16H64Zm0-190.456-32,12V288h6.085a8,8,0,0,1,0,16H32v16H48a8,8,0,0,1,0,16H32v16h8a8,8,0,0,1,0,16H32v16H48a8,8,0,0,1,0,16H32v16h8a8,8,0,0,1,0,16H32v16H64ZM181.772,449.823l-83.918-100.7a8,8,0,0,1-1.009-8.7L110.69,312.73,80,269.768V480h90.456ZM191.456,424l-65.178-173.81L94.256,262.2,126.51,307.35a8,8,0,0,1,.645,8.228L113.5,342.9l74.741,89.689ZM304,432h8V400H288a8,8,0,0,1-8-8V375.7L193.08,480H280V456A24.028,24.028,0,0,1,304,432ZM480,320a8.009,8.009,0,0,0-8-8H304a8.009,8.009,0,0,0-8,8v64h16V336a8,8,0,0,1,16,0v48h16V368a8,8,0,0,1,8-8h56a8,8,0,0,1,8,8v4.305a32,32,0,1,1,0,55.39V440a8,8,0,0,1-8,8H304a8.009,8.009,0,0,0-8,8v24H472a8.009,8.009,0,0,0,8-8ZM368,432V376h-8v16a8,8,0,0,1-8,8H328v32Zm32,0V376H384v56Zm32-16a16,16,0,1,0-16-16A16.019,16.019,0,0,0,432,416Z"/></svg>