<svg id="Outline" xmlns="http://www.w3.org/2000/svg" viewBox="0 0 512 512"><path d="M201.07,460.092A23.75,23.75,0,0,1,177.422,480H176a8,8,0,0,0,0,16h1.422a39.685,39.685,0,0,0,39.443-33.354c3.614-22.339,14.074-35.081,31.135-38V488a8,8,0,0,0,16,0V424.651c17.061,2.914,27.521,15.656,31.135,38A39.685,39.685,0,0,0,334.578,496H336a8,8,0,0,0,0-16h-1.422a23.75,23.75,0,0,1-23.648-19.908c-4.935-30.5-21.476-48.56-46.93-51.623V296h64a8,8,0,0,0,8-8c0-64.157-15.176-89.634-23.111-98.569L335.761,97.94a8,8,0,0,0-4.79-9.368l-36.2-14.48L287.761,46.06A8,8,0,0,0,280,40H264V24a8,8,0,0,0-16,0V40H232a8,8,0,0,0-7.761,6.06l-7.008,28.032-36.2,14.48a8,8,0,0,0-4.79,9.368l22.872,91.491C191.176,198.366,176,223.843,176,288a8,8,0,0,0,8,8h64V408.469C222.546,411.532,206.005,429.588,201.07,460.092ZM192.085,280c1.374-63.695,19.009-80.162,20.467-81.411,3-1.8,4.064-5.11,3.209-8.529l-22.306-89.226,33.516-13.406a8,8,0,0,0,4.79-5.488L238.246,56h35.508l6.485,25.94a8,8,0,0,0,4.79,5.488l33.516,13.406L296.239,190.06c-.855,3.419.208,6.726,3.209,8.529,1.458,1.249,19.093,17.716,20.467,81.411Z"/></svg>