<svg id="Outline" xmlns="http://www.w3.org/2000/svg" viewBox="0 0 512 512"><path d="M472,128H152c-76.262,0-136,31.626-136,72V312c0,40.374,59.738,72,136,72s136-31.626,136-72V256H472a24.028,24.028,0,0,0,24-24V152A24.028,24.028,0,0,0,472,128ZM272,312c0,13.707-12.053,27.594-33.068,38.1C215.846,361.643,184.973,368,152,368s-63.846-6.357-86.932-17.9C44.053,339.594,32,325.707,32,312V234.4a91.048,91.048,0,0,0,16,12.475V272a8,8,0,0,0,16,0V255.3a164.8,164.8,0,0,0,16,6.1V312a8,8,0,0,0,16,0V265.84q7.743,1.808,16,3.109V288a8,8,0,0,0,16,0V270.927q7.842.711,16,.952V328a8,8,0,0,0,16,0V271.879q8.149-.24,16-.952V288a8,8,0,0,0,16,0V268.949q8.246-1.3,16-3.109V312a8,8,0,0,0,16,0V261.4a164.8,164.8,0,0,0,16-6.1V272a8,8,0,0,0,16,0V246.879A91.048,91.048,0,0,0,272,234.4Zm-33.068-73.9a148.875,148.875,0,0,1-24.651,9.52,7.744,7.744,0,0,0-.859.243C195,253.162,173.972,256,152,256s-43-2.838-61.422-8.137a7.744,7.744,0,0,0-.859-.243,148.875,148.875,0,0,1-24.651-9.52C44.053,227.592,32,213.705,32,200s12.053-27.592,33.068-38.1C88.155,150.357,119.028,144,152,144s63.845,6.357,86.932,17.9C259.947,172.408,272,186.3,272,200S259.947,227.592,238.932,238.1ZM448,240H288V200c0-22.854-19.145-42.9-49.589-56H288v24a8,8,0,0,0,16,0V144h16v56a8,8,0,0,0,16,0V144h16v24a8,8,0,0,0,16,0V144h16v56a8,8,0,0,0,16,0V144h16v24a8,8,0,0,0,16,0V144h16Zm32-8a8.009,8.009,0,0,1-8,8h-8V144h8a8.009,8.009,0,0,1,8,8ZM152,176c-27.874,0-56,7.421-56,24s28.126,24,56,24,56-7.421,56-24S179.874,176,152,176Zm0,32c-22.111,0-35.518-5.043-39.274-8,3.756-2.957,17.163-8,39.274-8s35.518,5.043,39.274,8C187.518,202.957,174.111,208,152,208Z"/></svg>