<svg id="Outline" xmlns="http://www.w3.org/2000/svg" viewBox="0 0 512 512"><path d="M488,272H416V200a8,8,0,0,0-8-8H312a8,8,0,0,0-8,8v72H271A128,128,0,1,0,144,384H488a8,8,0,0,0,8-8V280A8,8,0,0,0,488,272ZM32,256A112,112,0,1,1,144,368,112.127,112.127,0,0,1,32,256ZM304,368H205.906a128.528,128.528,0,0,0,62.044-80H304Zm16-160h80v68.687l-80,80ZM480,368H331.314l80-80H480ZM144,176a80,80,0,1,0,80,80A80.091,80.091,0,0,0,144,176Zm0,144a64,64,0,1,1,64-64A64.072,64.072,0,0,1,144,320Zm0-96a32,32,0,1,0,32,32A32.036,32.036,0,0,0,144,224Zm0,48a16,16,0,1,1,16-16A16.019,16.019,0,0,1,144,272Zm304,40a8,8,0,1,1,8,8A8,8,0,0,1,448,312Zm0,32a8,8,0,1,1,8,8A8,8,0,0,1,448,344Zm-32-32a8,8,0,1,1,8,8A8,8,0,0,1,416,312Zm-64-80a8,8,0,1,1-8-8A8,8,0,0,1,352,232Zm0,32a8,8,0,1,1-8-8A8,8,0,0,1,352,264Zm32-32a8,8,0,1,1-8-8A8,8,0,0,1,384,232Zm0,32a8,8,0,1,1-8-8A8,8,0,0,1,384,264Zm16,80a8,8,0,1,1-8-8A8,8,0,0,1,400,344Zm-48-48a8,8,0,1,1-8-8A8,8,0,0,1,352,296Zm64,48a8,8,0,1,1,8,8A8,8,0,0,1,416,344Z"/></svg>