<svg id="Outline" xmlns="http://www.w3.org/2000/svg" viewBox="0 0 512 512"><path d="M496,308a43.988,43.988,0,0,0-80-25.272,43.965,43.965,0,0,0-72,0A43.988,43.988,0,1,0,282.728,344a43.965,43.965,0,0,0,0,72A43.988,43.988,0,1,0,344,477.272a43.965,43.965,0,0,0,72,0A43.988,43.988,0,1,0,477.272,416a43.965,43.965,0,0,0,0-72A43.978,43.978,0,0,0,496,308Zm-44,28a44.049,44.049,0,0,0-44,44,8,8,0,0,0,16,0,28,28,0,1,1,28,28,8,8,0,0,0,0,16,28,28,0,1,1-28,28,8,8,0,0,0-16,0,28,28,0,1,1-28-28,8,8,0,0,0,0-16,44.049,44.049,0,0,0-44,44,28,28,0,1,1-28-28,8,8,0,0,0,0-16,28,28,0,0,1,0-56,44.107,44.107,0,0,0,27.661-9.781A8,8,0,1,0,325.6,329.782,27.682,27.682,0,0,1,308,336a28,28,0,1,1,28-28,8,8,0,0,0,16,0,28,28,0,0,1,56,0,8,8,0,0,0,16,0,28,28,0,1,1,28,28ZM16,452a43.988,43.988,0,0,0,80,25.272,43.965,43.965,0,0,0,72,0A43.988,43.988,0,1,0,229.272,416a43.965,43.965,0,0,0,0-72A43.988,43.988,0,1,0,168,282.728a43.965,43.965,0,0,0-72,0A43.988,43.988,0,1,0,34.728,344a43.965,43.965,0,0,0,0,72A43.978,43.978,0,0,0,16,452Zm44-28a8,8,0,0,0,0-16,28,28,0,0,1,0-56,44.107,44.107,0,0,0,27.661-9.781A8,8,0,1,0,77.6,329.782,27.682,27.682,0,0,1,60,336a28,28,0,1,1,28-28,8,8,0,0,0,16,0,28,28,0,0,1,56,0,8,8,0,0,0,16,0,28,28,0,1,1,28,28,44.049,44.049,0,0,0-44,44,8,8,0,0,0,16,0,28,28,0,1,1,28,28,8,8,0,0,0,0,16,28,28,0,1,1-28,28,8,8,0,0,0-16,0,28,28,0,1,1-28-28,8,8,0,0,0,0-16,44.049,44.049,0,0,0-44,44,28,28,0,1,1-28-28Zm76-220a43.988,43.988,0,0,0,80,25.272,43.965,43.965,0,0,0,72,0A43.988,43.988,0,1,0,349.272,168a43.965,43.965,0,0,0,0-72A43.988,43.988,0,1,0,288,34.728a43.965,43.965,0,0,0-72,0A43.988,43.988,0,1,0,154.728,96a43.965,43.965,0,0,0,0,72A43.978,43.978,0,0,0,136,204Zm44-28a8,8,0,0,0,0-16,28,28,0,0,1,0-56,44.107,44.107,0,0,0,27.661-9.781A8,8,0,1,0,197.6,81.782,27.682,27.682,0,0,1,180,88a28,28,0,1,1,28-28,8,8,0,0,0,16,0,28,28,0,0,1,56,0,8,8,0,0,0,16,0,28,28,0,1,1,28,28,44.049,44.049,0,0,0-44,44,8,8,0,0,0,16,0,28,28,0,1,1,28,28,8,8,0,0,0,0,16,28,28,0,1,1-28,28,8,8,0,0,0-16,0,28,28,0,1,1-28-28,8,8,0,0,0,0-16,44.049,44.049,0,0,0-44,44,28,28,0,1,1-28-28Z"/></svg>