<svg id="Outline" xmlns="http://www.w3.org/2000/svg" viewBox="0 0 512 512"><path d="M460.661,433.5,380.7,376.178A127.936,127.936,0,0,0,288,160c-4.1,0-8.145.2-12.143.58l-27.4-82.618,15.1-4.977a8,8,0,0,0,5.093-10.1L258.637,32.492A24,24,0,0,0,228.331,17.21l-15.2,5.009a24.027,24.027,0,0,0-15.28,30.307l10.017,30.391a8,8,0,0,0,10.1,5.094l15.291-5.04,26.58,80.156A128.474,128.474,0,0,0,174.7,228.509l-63.181-45.29,9.187-12.637a8,8,0,0,0-1.766-11.175L93.053,140.589a24.033,24.033,0,0,0-33.526,5.3l-9.408,12.941a24,24,0,0,0,5.3,33.525L81.3,211.172a8,8,0,0,0,11.175-1.767l9.629-13.245,65.913,47.249A127.986,127.986,0,0,0,340.029,404.938l28.377,85.58a8,8,0,0,0,15.188-5.036L354.387,397.4a128.635,128.635,0,0,0,14.321-10.132L451.339,446.5a8,8,0,1,0,9.322-13ZM213.05,47.517a8.009,8.009,0,0,1,5.093-10.1l15.2-5.008a8,8,0,0,1,10.1,5.093l7.513,22.793L220.562,70.311ZM84.238,193.526,64.826,179.413a8,8,0,0,1-1.765-11.175L72.468,155.3a8.009,8.009,0,0,1,11.177-1.766l19.411,14.113ZM343.991,384.97c-.623-.209-1.248-.418-1.845-.626a184.076,184.076,0,0,1-69.152-43.58,181.775,181.775,0,0,1-53.357-129.128c0-4.21.149-8.439.433-12.619a112.241,112.241,0,0,1,18.009-11.255,167.611,167.611,0,0,0-1.716,23.874,165.184,165.184,0,0,0,11.9,61.853,166.553,166.553,0,0,0,105.347,97c2.527.78,5.1,1.478,7.678,2.138A112.461,112.461,0,0,1,343.991,384.97Zm52.726-123.909a183.638,183.638,0,0,0-66.129.247,102.26,102.26,0,0,1,5.729-17.5,169.275,169.275,0,0,1,54.473-.265A111.132,111.132,0,0,1,396.717,261.061Zm-22.3,98.112a148.62,148.62,0,0,1-15.269-3.738,123.149,123.149,0,0,1-12.332-14.879,169.971,169.971,0,0,1,39.765.565A112.455,112.455,0,0,1,374.415,359.173ZM337.927,325.55a100.77,100.77,0,0,1-6.05-15.45,169.073,169.073,0,0,1,65.893.185,110.911,110.911,0,0,1-4.393,15.663A185.651,185.651,0,0,0,337.927,325.55Zm26.436-34.641a183.744,183.744,0,0,0-35.74,3.523A89.024,89.024,0,0,1,328,284q0-2.947.171-5.873a167.826,167.826,0,0,1,71.37-.213c.3,3.324.459,6.686.459,10.086,0,2.14-.066,4.264-.185,6.374A183.639,183.639,0,0,0,364.363,290.909ZM312,284c0,20.254,5.917,40.315,17.024,58.579a150.872,150.872,0,0,1-26.592-19.017,133.842,133.842,0,0,1,33.786-136.639,112.022,112.022,0,0,1,15.121,8.76C326.219,218.926,312,250.586,312,284Zm-32-1.455a151.429,151.429,0,0,0,.99,17.255,150.376,150.376,0,0,1-17.176-30.591,164.7,164.7,0,0,1,37.361-92.43,111.183,111.183,0,0,1,18.819,3.885A150.153,150.153,0,0,0,280,282.545Zm-26.072-49.124a151.832,151.832,0,0,1,1.607-52.617,111.354,111.354,0,0,1,25.9-4.606A180.072,180.072,0,0,0,253.928,233.421Zm127.466-7.167a186.256,186.256,0,0,0-35.518.143A110.185,110.185,0,0,1,364,205.809,112.923,112.923,0,0,1,381.394,226.254ZM203.67,214.378a197.627,197.627,0,0,0,57.991,137.681,200.58,200.58,0,0,0,61.893,42.154,111.259,111.259,0,0,1-26.645,5.433,215.651,215.651,0,0,1-108.52-162.814A112.51,112.51,0,0,1,203.67,214.378ZM176,288a112.153,112.153,0,0,1,1.818-20.139,231.74,231.74,0,0,0,86.434,129.6A112.19,112.19,0,0,1,176,288Z"/></svg>