<svg id="Outline" xmlns="http://www.w3.org/2000/svg" viewBox="0 0 512 512"><path d="M390.146,261.122C399.59,249.788,407.747,240,424,240c25.5,0,32.166,17.847,32.411,18.53a8,8,0,0,0,15.178-5.06c-.4-1.2-10.252-29.47-47.589-29.47-23.747,0-35.647,14.28-46.146,26.878C368.41,262.212,360.253,272,344,272c-29.456,0-38.276-14.12-40.075-17.8a23.9,23.9,0,0,0-6.056-14.2,23.943,23.943,0,0,0-1.234-33.275C309.9,195.662,328,172.43,328,128c0-35.572-11.753-63.226-34.934-82.192C268.891,26.029,232.2,16,184,16S99.109,26.029,74.934,45.808C51.753,64.774,40,92.428,40,128c0,44.43,18.1,67.662,31.365,78.725A23.943,23.943,0,0,0,70.131,240a23.943,23.943,0,0,0,0,32,23.943,23.943,0,0,0,1.234,33.275C58.1,316.338,40,339.57,40,384c0,35.572,11.753,63.226,34.934,82.192C99.109,485.971,135.8,496,184,496s84.891-10.029,109.066-29.808C316.247,447.226,328,419.572,328,384c0-44.43-18.1-67.662-31.365-78.725a23.936,23.936,0,0,0,2.355-31.926c8.138,7.343,22,14.651,45.01,14.651C367.747,288,379.647,273.72,390.146,261.122ZM301.93,81.623c-14.513,43.942-34.6,83.73-59.741,118.377H218.258c22.848-30.22,50.188-75.659,69.488-137.512A73.635,73.635,0,0,1,301.93,81.623ZM280,264H88a8,8,0,0,1,0-16H280a8,8,0,0,1,0,16Zm8,24a8.009,8.009,0,0,1-8,8H88a8,8,0,0,1,0-16H280A8.009,8.009,0,0,1,288,288Zm-8-56H88a8,8,0,0,1,0-16H280a8,8,0,0,1,0,16ZM274.232,51.971C253.383,121.817,221.848,170.527,197.944,200H173.469c27.819-32.87,61.12-83.908,83.276-156.7A103.99,103.99,0,0,1,274.232,51.971ZM241.505,38.414c-23.887,78.618-61.1,130.8-89.36,161.586H127.069c28.637-29.922,69.043-83.313,95.386-165.409A179.912,179.912,0,0,1,241.505,38.414ZM179.513,97.362c-4.341,8.541-8.785,16.583-13.269,24.139a280.91,280.91,0,0,1-24.592-16.492A179.431,179.431,0,0,1,179.513,97.362ZM127.14,93.317c-5.773-5-10.961-9.921-15.613-14.675C131.882,68.925,158.882,64,192,64c.917,0,1.826.022,2.74.03q-3.5,8.569-7.173,16.615C164.229,82.156,143.955,86.414,127.14,93.317ZM184,32q11.622,0,22.216.81-2.576,7.848-5.321,15.322C197.95,48.053,194.984,48,192,48c-37.8,0-68.585,6.194-91.682,18.39-3.773-4.425-7-8.556-9.762-12.3C111.863,39.429,143.244,32,184,32ZM78.309,64.439a260.993,260.993,0,0,0,42.307,44.334A293.147,293.147,0,0,0,157.81,135.1q-4.746,7.324-9.468,13.948c-42.14-23.8-67.914-52.4-80.967-69.851A73.477,73.477,0,0,1,78.309,64.439ZM60.28,96.1c14.932,18.363,40.282,43.994,78.446,65.884-4.336,5.579-8.58,10.712-12.668,15.405-33.7-20.151-56.158-43.02-69.657-59.74A104.224,104.224,0,0,1,60.28,96.1Zm-3.505,46.262a284.459,284.459,0,0,0,58.273,47.065c-3.808,3.96-7.39,7.479-10.683,10.574H89.77C84.23,197.149,61.271,182.967,56.775,142.361ZM89.762,312h18.92A291.587,291.587,0,0,0,59,356.614C66.3,325.868,84.779,314.54,89.762,312ZM56.015,385.5c23-30.478,50.654-55.189,82.267-73.5h1.385q2.121,7.695,4.786,16.1C104.72,353.346,77.045,385.1,59.03,411.247A114.853,114.853,0,0,1,56.015,385.5Zm9.836,44.446c16.2-25.582,43.164-59.484,83.909-86.228q3,8.3,6.558,17.058c-37.911,26.939-63.668,59.452-79.8,84.844A73.95,73.95,0,0,1,65.851,429.944Zm22.722,26.565c14.8-23.778,38.732-54.777,74.22-80.692q3.608,7.983,7.729,16.225a301.773,301.773,0,0,0-67.2,73.227A93.344,93.344,0,0,1,88.573,456.509Zm29.979,14.771a285.656,285.656,0,0,1,59.519-64.8q4.226,7.725,8.951,15.595a302.287,302.287,0,0,0-50.4,53.807A157.834,157.834,0,0,1,118.552,471.28Zm57.134,8.613q-11.006-.286-21.023-1.345a285.128,285.128,0,0,1,40.915-42.77q4.6,7.09,9.624,14.237A300.029,300.029,0,0,0,175.686,479.893Zm21.708-.18q8.343-8.786,17.3-16.729,5.281,6.959,11.011,13.919A239.151,239.151,0,0,1,197.394,479.713Zm45.989-6.631A433.443,433.443,0,0,1,156.289,312h20.128a452.938,452.938,0,0,0,85.87,154.381A129.049,129.049,0,0,1,243.383,473.082Zm39.551-19.274q-3.011,2.463-6.343,4.7A437.214,437.214,0,0,1,193.245,312h20.634a448.536,448.536,0,0,0,76.992,134.288A75.086,75.086,0,0,1,282.934,453.808Zm17.628-20.893A432.5,432.5,0,0,1,230.913,312H252a450.046,450.046,0,0,0,56.7,100.323A83.1,83.1,0,0,1,300.562,432.915ZM312,384q0,2.721-.106,5.366A433.6,433.6,0,0,1,269.326,312h8.9C284.379,315.164,312,332.272,312,384ZM278.238,200H261.765a443.507,443.507,0,0,0,48.388-93.662A121.252,121.252,0,0,1,312,128C312,179.836,284.488,196.813,278.238,200Z"/></svg>