<svg id="Outline" xmlns="http://www.w3.org/2000/svg" viewBox="0 0 512 512"><path d="M223.155,36.422a8,8,0,0,0-10.733-3.577l-8.573,4.287L190.4,19.2A8,8,0,0,0,184,16H104a8,8,0,0,0-6.729,12.326L168,138.35V488a8,8,0,0,0,8,8H336a8,8,0,0,0,8-8V138.35L414.729,28.326A8,8,0,0,0,408,16H328a8,8,0,0,0-6.4,3.2l-9.085,12.113-12.937-6.468a8,8,0,0,0-7.156,14.31l10.336,5.168L290.7,60.4l-7.119-3.559a8,8,0,0,0-7.156,14.31l4.518,2.259L258,104h-4L237.606,82.141l5.972-2.986a8,8,0,1,0-7.156-14.31l-8.573,4.287L213.606,50.141l5.972-2.986A8,8,0,0,0,223.155,36.422ZM256,192a8,8,0,0,0,8-8V161.376A24.038,24.038,0,0,1,280,184v32.022a39.912,39.912,0,0,0-48,0V184a24.038,24.038,0,0,1,16-22.624V184A8,8,0,0,0,256,192Zm0,32a24,24,0,1,1-24,24A24.028,24.028,0,0,1,256,224ZM295.485,80.687l12.937,6.468a8,8,0,1,0,7.156-14.31l-10.336-5.168L317.3,51.6l7.119,3.559a8,8,0,1,0,7.156-14.31l-4.518-2.259L332,32h61.347l-64.076,99.674A8,8,0,0,0,328,136V480H264V448h24a8,8,0,0,0,0-16H264V416h24a8,8,0,0,0,0-16H264V384h24a8,8,0,0,0,0-16H264V352h24a8,8,0,0,0,0-16H264V320h24a8,8,0,0,0,0-16H264V287.2A40.067,40.067,0,0,0,296,248V184a39.961,39.961,0,0,0-1.064-9.132l15.138-17.661a8,8,0,0,0,1.354-8.178l-16-40A8,8,0,0,0,288,104H278ZM282.583,120l12.19,30.473-7.451,8.692A40.041,40.041,0,0,0,264,144.805V144a8,8,0,0,0-16,0v.805a40.041,40.041,0,0,0-23.322,14.36l-7.451-8.692L229.417,120ZM223.061,89.414,234,104H224a8,8,0,0,0-7.428,5.029l-16,40a8,8,0,0,0,1.354,8.178l15.138,17.661A39.961,39.961,0,0,0,216,184v64A40.067,40.067,0,0,0,248,287.2V320H224a8,8,0,0,0,0,16h24v16H224a8,8,0,0,0,0,16h24v16H224a8,8,0,0,0,0,16h24v16H224a8,8,0,0,0,0,16h24v16H224a8,8,0,0,0,0,16h24v16H184V136a8,8,0,0,0-1.271-4.326L118.653,32H180l9.3,12.4-8.881,4.441a8,8,0,1,0,7.156,14.31l11.482-5.741L213.3,76.4l-8.881,4.441a8,8,0,1,0,7.156,14.31Z"/></svg>